<svg width="24" height="25" viewBox="0 0 24 25" fill="none" xmlns="http://www.w3.org/2000/svg">
<path d="M16.5089 10.2085C16.5089 11.5067 16.1239 12.7758 15.4027 13.8552C14.6815 14.9346 13.6564 15.7759 12.457 16.2728C11.2577 16.7696 9.93792 16.8997 8.66466 16.6465C7.39139 16.3933 6.2218 15.7682 5.30377 14.8503C4.38574 13.9324 3.7605 12.7629 3.50711 11.4897C3.25372 10.2165 3.38357 8.89672 3.88023 7.69729C4.37689 6.49786 5.21806 5.47263 6.29737 4.75125C7.37668 4.02987 8.64567 3.64473 9.94386 3.64453C10.8059 3.6444 11.6596 3.81409 12.4561 4.1439C13.2526 4.47371 13.9763 4.95719 14.586 5.56673C15.1956 6.17627 15.6792 6.89992 16.0091 7.69637C16.339 8.49281 16.5089 9.34645 16.5089 10.2085Z" stroke="#97A0A8" stroke-linecap="round" stroke-linejoin="round"/>
<path d="M19.9997 20.2673L15.2637 15.5312" stroke="#97A0A8" stroke-linecap="round" stroke-linejoin="round"/>
</svg>
