<svg width="24" height="25" viewBox="0 0 24 25" fill="none" xmlns="http://www.w3.org/2000/svg">
<path d="M9.15957 11.1512C9.05957 11.1412 8.93957 11.1412 8.82957 11.1512C6.44957 11.0712 4.55957 9.12125 4.55957 6.72125C4.55957 4.27125 6.53957 2.28125 8.99957 2.28125C11.4496 2.28125 13.4396 4.27125 13.4396 6.72125C13.4296 9.12125 11.5396 11.0712 9.15957 11.1512Z" fill="#48FDBC" stroke="black" stroke-width="2" stroke-linecap="round" stroke-linejoin="round"/>
<path d="M16.4103 4.28125C18.3503 4.28125 19.9103 5.85125 19.9103 7.78125C19.9103 9.67125 18.4103 11.2112 16.5403 11.2812C16.4603 11.2713 16.3703 11.2713 16.2803 11.2812" stroke="black" stroke-width="2" stroke-linecap="round" stroke-linejoin="round"/>
<path d="M4.15973 14.8413C1.73973 16.4613 1.73973 19.1012 4.15973 20.7112C6.90973 22.5512 11.4197 22.5512 14.1697 20.7112C16.5897 19.0912 16.5897 16.4513 14.1697 14.8413C11.4297 13.0113 6.91973 13.0113 4.15973 14.8413Z" fill="#48FDBC" stroke="black" stroke-width="2" stroke-linecap="round" stroke-linejoin="round"/>
<path d="M18.3398 20.2812C19.0598 20.1312 19.7398 19.8412 20.2998 19.4112C21.8598 18.2412 21.8598 16.3112 20.2998 15.1412C19.7498 14.7212 19.0798 14.4412 18.3698 14.2812" stroke="black" stroke-width="2" stroke-linecap="round" stroke-linejoin="round"/>
</svg>
