<svg width="49" height="49" viewBox="0 0 49 49" fill="none" xmlns="http://www.w3.org/2000/svg">
<path d="M31.7812 2.5824C32.0878 2.36108 32.4868 2.20735 32.8657 2.3359C33.3116 2.4618 33.5713 2.87263 33.8485 3.20792C29.3257 6.49984 24.7506 9.72417 20.2157 13.0028C20.1139 13.0638 20.0028 13.1049 19.8836 13.1261C19.6614 12.7232 19.2637 12.2978 19.4204 11.8035C19.5154 11.2668 20.0457 11.0017 20.4473 10.7075C24.2257 7.99869 28.0055 5.29253 31.7812 2.5824Z" fill="#48FDBC"/>
<path d="M36.2812 3.54323C37.5907 2.71495 39.176 2.31208 40.7238 2.53207C42.55 2.72953 44.229 3.79105 45.272 5.27666C46.2561 6.51974 46.8319 8.09944 46.7529 9.68576C46.6498 11.3158 45.9361 12.9088 44.7338 14.0366C41.9194 10.5366 39.0997 7.04056 36.2812 3.54323Z" fill="#F7F7F7"/>
<path d="M20.8369 14.607C25.5485 11.2714 30.2187 7.87478 34.9276 4.53516C38.5655 9.09136 42.2421 13.6184 45.8947 18.164C46.5387 18.8584 46.4329 20.1267 45.6202 20.6568C41.3022 23.7566 36.9802 26.851 32.6595 29.9481C31.891 30.5471 30.6726 30.3099 30.1798 29.479C27.0722 24.5173 23.9311 19.5754 20.8369 14.607Z" fill="#F7F7F7"/>
<path d="M12.1406 19.2793C12.8369 19.5337 13.5867 19.7339 14.2146 20.1089C14.3231 21.4779 14.469 22.8442 14.6417 24.2066C14.0486 24.6969 13.4327 25.1594 12.8047 25.6021C12.5343 23.4989 12.3682 21.3864 12.1406 19.2793Z" fill="#48FDBC"/>
<path d="M16.0957 20.2818C18.0519 20.0035 20.0348 19.9266 21.9936 19.6562C22.6671 20.6793 23.2897 21.7356 23.9685 22.756C22.5961 22.9866 21.201 23.0396 19.8219 23.2092C18.6785 23.2914 17.5457 23.4624 16.4037 23.5618C16.2858 22.4698 16.1506 21.3791 16.0957 20.2818Z" fill="#F7F7F7"/>
<path d="M12.1384 37.3482C12.5883 37.3124 13.0395 37.3045 13.4907 37.3071C13.6059 38.5383 13.2538 39.8476 12.3326 40.7183C11.4596 41.642 10.1394 41.9548 8.89962 41.854C8.82999 40.9078 8.96656 39.9192 9.50079 39.1121C10.0832 38.1963 11.0713 37.5589 12.1384 37.3482Z" fill="#48FDBC"/>
<path d="M19.188 37.3093C20.0114 37.2908 20.8804 37.3093 21.6168 37.7254C22.6919 38.2516 23.4846 39.2945 23.7189 40.4568C23.7912 40.9206 23.755 41.3898 23.7577 41.8562C23.1257 41.8496 22.4764 41.8788 21.8698 41.672C20.5403 41.2228 19.4799 40.042 19.2389 38.6664C19.1719 38.2158 19.1907 37.7612 19.188 37.3093Z" fill="#48FDBC"/>
<path d="M28.362 37.4415C28.915 37.2838 29.4961 37.3116 30.0665 37.309C30.0598 37.9014 30.1013 38.5097 29.9125 39.0822C29.5135 40.4008 28.3647 41.4782 27.0017 41.7737C26.505 41.8678 25.9975 41.8506 25.4941 41.8546C25.5061 41.2887 25.4312 40.7029 25.6079 40.1543C25.9734 38.8608 27.0526 37.7953 28.362 37.4415Z" fill="#48FDBC"/>
<path d="M35.7632 37.3086C36.3737 37.3126 37.0003 37.2821 37.5908 37.4729C38.8159 37.8599 39.8469 38.8525 40.195 40.089C40.3945 40.6575 40.3623 41.2631 40.353 41.8555C39.1105 41.9576 37.789 41.6408 36.916 40.7158C35.9975 39.8451 35.6454 38.5384 35.7632 37.3086Z" fill="#48FDBC"/>
<path d="M2.58379 37.3084C3.36973 37.2952 4.1945 37.2978 4.91082 37.6623C5.90027 38.1155 6.68621 38.9835 7.01023 40.0159C7.2432 40.6017 7.19634 41.2391 7.19232 41.854C6.54697 41.85 5.8842 41.8792 5.26697 41.6645C4.13023 41.2669 3.16889 40.3525 2.80738 39.2048C2.58245 38.5979 2.5704 37.9459 2.58379 37.3084Z" fill="#48FDBC"/>
<path d="M43.2282 38.431C44.1133 37.5219 45.4294 37.2065 46.6692 37.3098C46.7201 38.2786 46.5635 39.2924 46.0078 40.1127C45.3357 41.108 44.1869 41.817 42.9631 41.8435C42.6619 41.8581 42.3606 41.8541 42.062 41.8554C41.9335 40.6177 42.299 39.3017 43.2282 38.431Z" fill="#48FDBC"/>
<path d="M30.8849 1.15934C31.7017 0.531169 32.8746 0.459605 33.7984 0.888986C34.3969 1.18319 34.8347 1.70269 35.2177 2.23146C37.2943 0.835976 40.0203 0.357561 42.4103 1.19114C44.752 1.87232 46.5556 3.74357 47.6254 5.85734C49.1999 8.95975 48.426 13.0481 45.7897 15.3475C46.2556 15.908 46.7042 16.4819 47.1661 17.0464C47.6776 17.6574 48.0284 18.43 48.0297 19.2318C48.0565 20.3489 47.4647 21.4515 46.5328 22.0757C42.259 25.1437 37.9825 28.2063 33.706 31.2703C32.9268 31.868 31.8771 32.0946 30.9171 31.8799C29.9838 31.7196 29.1832 31.0808 28.6972 30.2936C27.5497 28.4648 26.3956 26.6399 25.2508 24.8097C25.149 24.6547 25.0433 24.5009 24.9228 24.3605C22.7095 24.5805 20.5017 24.8667 18.2844 25.0416C17.544 25.1516 16.7862 25.1477 16.0525 25.3001C15.1969 25.8593 14.4418 26.5617 13.5808 27.113C12.89 27.5371 11.9608 27.2787 11.4694 26.677C11.1654 26.3536 11.1239 25.8951 11.0717 25.4777C10.9177 23.3891 10.5495 21.319 10.4638 19.2251C10.3795 18.1265 11.6849 17.2624 12.6931 17.6759C13.4992 18.0046 14.3346 18.2577 15.1393 18.5903C15.3402 18.6871 15.5678 18.6354 15.782 18.6261C17.22 18.4923 18.6486 18.267 20.092 18.1835C20.3932 18.1185 20.7025 18.1026 21.0105 18.0841C20.0464 16.5389 19.0731 14.9989 18.1023 13.4576C17.3084 12.1775 17.7797 10.3645 19.0851 9.6078C23.0242 6.7996 26.9472 3.96886 30.8849 1.15934ZM31.782 2.58265C28.0063 5.29279 24.2265 7.99895 20.4481 10.7078C20.0464 11.002 19.5162 11.267 19.4212 11.8037C19.2645 12.2981 19.6622 12.7235 19.8844 13.1263C20.0036 13.1051 20.1147 13.0641 20.2165 13.0031C24.7514 9.72442 29.3264 6.50009 33.8493 3.20817C33.5721 2.87288 33.3124 2.46206 32.8665 2.33616C32.4876 2.20761 32.0886 2.36134 31.782 2.58265ZM36.2821 3.54346C39.1005 7.04079 41.9202 10.5368 44.7346 14.0368C45.937 12.909 46.6506 11.316 46.7537 9.68599C46.8327 8.09967 46.257 6.51997 45.2729 5.27689C44.2299 3.79128 42.5509 2.72976 40.7246 2.53229C39.1768 2.3123 37.5915 2.71518 36.2821 3.54346ZM20.8377 14.608C23.932 19.5763 27.0731 24.5182 30.1807 29.4799C30.6734 30.3108 31.8918 30.5481 32.6603 29.949C36.981 26.8519 41.303 23.7575 45.621 20.6577C46.4337 20.1276 46.5395 18.8594 45.8955 18.1649C42.2429 13.6193 38.5663 9.09228 34.9285 4.53607C30.2195 7.8757 25.5494 11.2723 20.8377 14.608ZM12.1415 19.2795C12.3691 21.3866 12.5351 23.4991 12.8056 25.6022C13.4336 25.1596 14.0495 24.6971 14.6426 24.2067C14.4699 22.8444 14.3239 21.4781 14.2155 20.1091C13.5875 19.734 12.8377 19.5339 12.1415 19.2795ZM16.0967 20.2827C16.1515 21.38 16.2868 22.4707 16.4046 23.5627C17.5467 23.4633 18.6794 23.2923 19.8228 23.2102C21.2019 23.0405 22.5971 22.9875 23.9695 22.7569C23.2906 21.7365 22.668 20.6803 21.9946 19.6572C20.0357 19.9275 18.0528 20.0044 16.0967 20.2827Z" fill="black"/>
<path d="M7.23997 21.0809C7.8639 20.7973 8.55612 21.5235 8.31779 22.1318C8.11963 22.813 7.02976 22.9521 6.69771 22.3094C6.40315 21.8296 6.71511 21.2187 7.23997 21.0809Z" fill="black"/>
<path d="M4.55534 23.3526C5.2355 23.0637 5.96119 23.9225 5.59165 24.5466C5.34128 25.1987 4.2099 25.2172 3.99701 24.5268C3.78144 24.0669 4.15232 23.5633 4.55534 23.3526Z" fill="black"/>
<path d="M7.96683 26.3544C8.16766 26.084 8.32298 25.6812 8.70858 25.644C9.12766 25.546 9.52666 25.8402 9.66992 26.2166C9.88415 26.8659 9.27361 27.6863 8.55327 27.5166C7.98959 27.4649 7.80884 26.8195 7.96683 26.3544Z" fill="black"/>
<path d="M2.7828 26.4856C3.38263 26.1423 4.20071 26.7917 4.01594 27.4411C3.9356 27.7751 3.66247 28.003 3.36657 28.1527C3.25276 28.1527 3.02247 28.1527 2.90866 28.1527C2.1495 27.9367 2.12406 26.8275 2.7828 26.4856Z" fill="black"/>
<path d="M7.33501 29.2638C7.44078 29.2612 7.54789 29.2585 7.65367 29.2559C8.55877 29.4454 8.5976 30.8144 7.78756 31.1457C7.33099 31.359 6.84095 31.0608 6.63609 30.6474C6.60128 30.1067 6.72982 29.4348 7.33501 29.2638Z" fill="black"/>
<path d="M2.22186 29.9216C2.73868 29.7215 3.37065 30.0568 3.43358 30.6121C3.56747 31.2389 2.77349 31.834 2.21115 31.4867C1.59257 31.2071 1.59123 30.1867 2.22186 29.9216Z" fill="black"/>
<path d="M6.48633 34.6598C5.95612 34.1178 6.34574 33.1675 7.08482 33.0801C7.56415 33.1662 8.03277 33.5439 7.96315 34.074C8.03545 34.8201 6.95093 35.2548 6.48633 34.6598Z" fill="black"/>
<path d="M0.905501 35.6122C2.30466 35.6665 3.7614 35.4253 5.10031 35.9395C6.31069 36.3225 7.32157 37.176 8.02717 38.207C8.74617 37.2581 9.65663 36.3994 10.8108 36.0045C12.1939 35.4134 13.7256 35.6652 15.185 35.6109C15.1663 37.009 15.3189 38.4416 14.8878 39.7986C14.304 41.3717 13.02 42.6996 11.3999 43.2297C10.6032 43.5504 9.73563 43.573 8.88809 43.5531C8.88676 44.6875 8.88676 45.8219 8.88809 46.9563C13.8474 46.9563 18.8068 46.9563 23.7661 46.9563C23.7688 45.8219 23.7688 44.6875 23.7674 43.5531C22.1366 43.6763 20.4456 43.1515 19.2593 42.0211C18.2431 41.0961 17.6245 39.7801 17.4879 38.427C17.4518 37.4901 17.4745 36.5505 17.4745 35.6122C18.8791 35.6665 20.3438 35.424 21.6894 35.9422C22.8637 36.3225 23.8732 37.1256 24.5547 38.1394C24.5909 38.1394 24.6618 38.1408 24.698 38.1408C25.6968 36.6194 27.4829 35.6546 29.3119 35.6122C30.134 35.6082 30.9574 35.6122 31.7808 35.6122C31.7862 36.3344 31.7835 37.0567 31.7848 37.779C31.825 39.3587 31.1636 40.9516 29.9893 42.0264C28.8057 43.1582 27.1147 43.6737 25.4879 43.5531C25.4852 44.6875 25.4852 45.8219 25.4879 46.9563C30.4473 46.9563 35.4053 46.9563 40.3646 46.9563C40.3673 45.8219 40.3673 44.6875 40.3659 43.5531C38.707 43.679 36.9865 43.1396 35.7922 41.9747C35.1509 41.373 34.6809 40.611 34.3662 39.7973C33.9338 38.4416 34.0878 37.009 34.069 35.6109C35.5298 35.6652 37.0642 35.4121 38.4486 36.0071C39.6054 36.3967 40.5052 37.2635 41.2295 38.207C42.2203 36.6896 43.9596 35.6877 45.7872 35.6148C46.6401 35.6042 47.4943 35.6148 48.3485 35.6122C48.3177 36.8367 48.4516 38.0798 48.1932 39.2884C47.8585 40.668 46.9587 41.9005 45.7524 42.6638C44.6638 43.3689 43.341 43.6352 42.0543 43.5544C42.0543 44.6875 42.0543 45.8219 42.0543 46.9563C44.0693 46.9643 46.0831 46.9404 48.0981 46.9682C48.0928 47.5129 48.0928 48.0576 48.0981 48.6036C39.7835 48.6314 31.4675 48.6076 23.1529 48.6155C15.8196 48.6076 8.48776 48.6314 1.15588 48.6036C1.16123 48.0576 1.16123 47.5129 1.15588 46.9682C3.17094 46.9404 5.18466 46.9643 7.19973 46.9563C7.19973 45.8219 7.19839 44.6875 7.19973 43.5544C5.87822 43.6392 4.51655 43.3516 3.41596 42.6029C2.24977 41.8435 1.38751 40.6322 1.05948 39.2884C0.802405 38.0785 0.936296 36.8367 0.905501 35.6122ZM12.139 37.3496C11.0719 37.5603 10.0837 38.1978 9.50132 39.1135C8.96709 39.9206 8.83052 40.9092 8.90015 41.8554C10.14 41.9562 11.4601 41.6434 12.3331 40.7197C13.2543 39.849 13.6064 38.5397 13.4913 37.3085C13.0401 37.3059 12.5888 37.3138 12.139 37.3496ZM19.1883 37.3098C19.191 37.7617 19.1723 38.2163 19.2392 38.6669C19.4802 40.0425 20.5406 41.2233 21.8702 41.6726C22.4767 41.8793 23.1261 41.8501 23.7581 41.8568C23.7554 41.3903 23.7915 40.9211 23.7192 40.4573C23.4849 39.2951 22.6923 38.2521 21.6171 37.726C20.8807 37.3098 20.0118 37.2913 19.1883 37.3098ZM28.3626 37.4424C27.0531 37.7962 25.974 38.8617 25.6084 40.1551C25.4317 40.7038 25.5067 41.2896 25.4946 41.8554C25.9981 41.8515 26.5055 41.8687 27.0022 41.7746C28.3652 41.4791 29.514 40.4016 29.913 39.083C30.1018 38.5105 30.0603 37.9022 30.067 37.3098C29.4966 37.3125 28.9155 37.2847 28.3626 37.4424ZM35.7641 37.3085C35.6463 38.5383 35.9984 39.845 36.9169 40.7157C37.7899 41.6407 39.1114 41.9575 40.3539 41.8554C40.3632 41.2631 40.3954 40.6574 40.1959 40.0889C39.8478 38.8524 38.8168 37.8598 37.5917 37.4728C37.0012 37.282 36.3746 37.3125 35.7641 37.3085ZM2.5845 37.3098C2.57111 37.9473 2.58316 38.5993 2.8081 39.2063C3.1696 40.3539 4.13094 41.2684 5.26768 41.6659C5.88491 41.8806 6.54768 41.8515 7.19303 41.8554C7.19705 41.2405 7.24391 40.6031 7.01094 40.0173C6.68692 38.9849 5.90098 38.1169 4.91153 37.6637C4.19521 37.2992 3.37044 37.2966 2.5845 37.3098ZM43.2285 38.431C42.2993 39.3017 41.9338 40.6177 42.0623 41.8554C42.3609 41.8541 42.6622 41.8581 42.9634 41.8435C44.1872 41.817 45.336 41.108 46.0081 40.1127C46.5637 39.2924 46.7204 38.2786 46.6695 37.3098C45.4297 37.2065 44.1135 37.5219 43.2285 38.431Z" fill="black"/>
</svg>
