<svg width="52" height="61" viewBox="0 0 52 61" fill="none" xmlns="http://www.w3.org/2000/svg">
<path d="M28.3368 15.7986C28.9204 18.1668 28.6783 20.5451 27.794 22.63C26.3692 24.3676 25.4098 23.6081 23.7628 24.802C23.0976 25.2842 22.7074 19.5182 20.5369 16.826C19.1137 15.0608 16.1347 18.3582 15.5795 18.495C14.7071 18.71 18.6447 29.2595 17.7848 29.2596C12.9042 29.26 8.46802 25.9468 7.24789 20.9956C5.81279 15.1721 9.37032 9.28779 15.1938 7.85269C21.0174 6.41759 26.9017 9.97512 28.3368 15.7986Z" fill="#48FDBC"/>
<path d="M38.1816 27.5812C38.1816 27.5812 41.4849 25.1043 43.6815 26.5825C48.6646 39.516 48.9716 43.4803 46.326 47.5818C46.326 47.5818 37.6816 60.5818 20.6814 55.0812C15.8008 55.0817 11.682 36.5811 11.682 36.5811C13.7792 33.8184 15.2341 33.6815 18.1818 35.0816L15.1816 19.082L16.6815 17.0831L20.1816 17.0819L24.1818 26.5825L26.6819 24.0814L31.1812 26.5825L33.6813 24.5817L38.1816 27.5812Z" fill="white"/>
<path d="M7.79312 8.2069C10.6531 5.37211 14.7144 3.84958 18.7186 4.06027C22.552 4.23603 26.2996 6.01284 28.8956 8.89788C31.0791 11.2426 32.4037 14.3288 32.7744 17.5122C32.8088 18.2024 32.9687 18.9158 32.7933 19.597C32.5625 20.3985 31.4074 20.6183 30.8751 19.9859C30.4883 19.5014 30.6035 18.8405 30.5456 18.2655C30.4521 16.1694 29.7399 14.1324 28.6723 12.3425C27.1805 9.93819 24.8918 8.04107 22.2504 7.09314C20.2022 6.32338 17.9627 6.15895 15.8194 6.51415C12.6294 7.09212 9.69606 8.97595 7.84383 11.6678C5.31994 15.2456 4.85755 20.2196 6.73932 24.2227C6.92886 24.6679 7.20524 25.0823 7.26373 25.5733C7.18828 25.9095 7.08336 26.2773 6.76265 26.455C6.23758 26.8723 5.40406 26.6587 5.09563 26.0657C4.15435 24.2758 3.58112 22.2952 3.37381 20.2825C2.95308 15.8437 4.6181 11.2693 7.79312 8.2069Z" fill="black"/>
<path d="M10.3247 14.1839C11.3473 12.4763 12.9441 11.1394 14.7795 10.4142C16.0966 9.97199 17.4953 9.67191 18.8916 9.86437C22.4214 10.1419 25.6451 12.7615 26.7086 16.1864C26.9963 16.8196 27.0398 17.5252 27.1395 18.2048C27.1307 19.0435 26.0958 19.5837 25.4033 19.1273C24.9837 18.9036 24.8822 18.411 24.8209 17.9787C24.5783 16.4059 23.7993 14.9125 22.6058 13.8646C21.4616 12.8058 19.9475 12.2004 18.4136 12.0973C16.6977 12.0498 14.936 12.588 13.6442 13.7484C12.1346 15.0286 11.2579 17.0205 11.2727 19.0185C11.278 19.9525 11.5405 20.8555 11.8217 21.7376C12.0967 22.5511 11.1839 23.4085 10.398 23.1292C9.77958 22.9302 9.54449 22.2299 9.38501 21.6583C8.63445 19.174 8.98532 16.3818 10.3247 14.1839Z" fill="black"/>
<path d="M16.2709 16.0208C17.9914 15.067 20.304 15.5121 21.6428 16.9608C22.1613 17.4993 22.5196 18.1868 22.7346 18.9028C23.1758 20.6443 23.5843 22.3939 24.0342 24.1333C24.958 23.2772 26.2048 22.7226 27.4786 22.8547C28.8758 22.9158 30.2109 23.7072 30.987 24.8864C31.2206 24.9059 31.3143 24.5949 31.5077 24.4999C32.1854 23.8761 33.0881 23.6253 33.9748 23.4879C35.9605 23.2864 37.9633 24.5958 38.6535 26.4949C39.5252 25.6273 40.7718 25.1958 41.9878 25.234C43.8698 25.2973 45.6434 26.6807 46.1501 28.5318C46.7269 30.8237 47.2827 33.1222 47.8507 35.4163C48.2281 36.9911 48.6952 38.5573 48.8168 40.1789C49.167 44.5418 47.4978 48.9969 44.3949 52.0119C42.5784 53.8232 40.2682 55.0939 37.7989 55.7349C35.7932 56.2386 33.7834 56.7258 31.7762 57.2231C30.0395 57.6741 28.2279 57.9502 26.4299 57.7689C22.3802 57.487 18.4916 55.3759 15.9579 52.1498C14.6454 50.5054 13.716 48.5639 13.1569 46.5325C12.4005 43.4793 11.6478 40.4252 10.8977 37.3704C10.6308 36.2225 10.9565 34.9367 11.8222 34.1368C13.2031 32.868 15.3211 32.7988 16.9848 33.5363C16.1383 30.0634 15.2127 26.6099 14.3728 23.1367C14.0961 21.852 13.7589 20.543 13.8735 19.2214C14.1362 17.8578 15.0633 16.659 16.2709 16.0208ZM16.1483 20.6624C18.0778 28.5245 20.0273 36.3816 21.9527 44.2433C22.1301 44.9686 21.5095 45.6568 20.7974 45.6498C20.3336 45.5654 19.8933 45.2576 19.7667 44.7766C19.3608 43.2102 19.0094 41.6277 18.6059 40.0607C18.3102 38.9091 18.0222 37.7353 17.439 36.691C16.6663 35.6664 15.2793 35.1554 14.049 35.437C13.4463 35.5503 12.9141 36.1815 13.1204 36.8187C13.8686 39.8766 14.6228 42.9317 15.3798 45.9874C16.448 50.3004 19.9489 53.8829 24.1798 55.0405C26.389 55.6868 28.7668 55.6563 30.9731 55.0545C33.1079 54.5244 35.245 54.0085 37.3779 53.4708C41.2886 52.4327 44.5803 49.3523 45.8837 45.4699C46.6975 43.1744 46.782 40.6398 46.2202 38.263C45.4826 35.243 44.7335 32.2245 43.9909 29.2058C43.7614 28.3447 43.0189 27.6316 42.1359 27.5194C40.7364 27.2169 39.3139 28.6027 39.5377 30.0288C39.6894 30.8983 39.9512 31.7447 40.145 32.6066C40.333 33.2617 39.7798 33.9913 39.117 34.0114C38.541 34.0439 37.9952 33.5837 37.8915 33.0118C37.4243 31.1429 36.9794 29.2672 36.5021 27.4008C36.2626 26.4178 35.2721 25.7509 34.2998 25.7567C33.5667 25.8158 32.8136 26.1554 32.4392 26.8221C32.0853 27.3404 32.0056 28.0047 32.155 28.6112C32.611 30.4829 33.0841 32.349 33.5325 34.2225C33.66 34.6966 33.4096 35.2084 33.025 35.4775C32.4253 35.8834 31.4603 35.4982 31.3412 34.7612C30.6973 32.1695 30.0636 29.5767 29.4234 26.9841C29.2937 26.4957 29.0446 26.03 28.6472 25.713C27.8167 24.9608 26.4401 24.9622 25.6461 25.7512C25.0079 26.3139 24.7822 27.2494 24.9963 28.0697C25.624 30.6221 26.2554 33.1736 26.8831 35.726C27.0601 36.2717 26.8132 36.9272 26.2941 37.1686C25.6912 37.4753 24.8642 37.0777 24.7244 36.4026C23.3419 30.8412 21.9817 25.2729 20.6055 19.71C20.3301 18.5547 19.138 17.6902 17.9732 17.8543C16.7033 18.0077 15.823 19.4235 16.1483 20.6624Z" fill="black"/>
</svg>
