<svg width="46" height="62" viewBox="0 0 46 62" fill="none" xmlns="http://www.w3.org/2000/svg">
<path d="M21.5032 4.58791C21.9255 4.17572 22.4492 3.77653 23.0826 3.85329C23.7089 3.82377 24.1503 4.30328 24.5821 4.67295C26.0089 5.75007 27.9987 6.03116 29.6832 5.43709C30.1687 5.19261 30.7616 5.23395 31.2197 5.52095C31.7983 5.81385 31.9343 6.48705 32.2576 6.99018C32.9781 8.08856 34.121 8.90585 35.3831 9.27553C36.1502 9.49284 37.0556 9.31096 37.6998 9.85424C38.1483 10.2097 38.2915 10.792 38.3082 11.3365C38.4084 13.0006 39.4308 14.5206 40.811 15.4347C41.3216 15.7383 41.9622 15.8918 42.2891 16.4304C42.6637 17.0551 42.4644 17.8181 42.1877 18.4405C41.695 20.1885 42.2354 22.1927 43.5345 23.4742C44.0845 24.073 44.1107 25.0615 43.5727 25.6745C42.437 26.5579 41.9849 28.039 41.9407 29.4184C41.9765 30.0668 42.0851 30.7235 42.3356 31.3282C42.5539 31.8691 42.4024 32.4963 42.0648 32.9557C41.7522 33.3266 41.2607 33.4517 40.8468 33.6738C39.655 34.3753 38.7913 35.5635 38.3989 36.8697C38.1865 37.648 38.3965 38.5893 37.7583 39.2082C37.151 39.872 36.1752 39.6712 35.3855 39.8944C34.1114 40.2428 32.9829 41.0731 32.2397 42.1526C31.9283 42.5967 31.8126 43.1754 31.3736 43.5309C30.9251 43.8403 30.331 44.0021 29.8013 43.8084C28.0453 43.1187 25.9338 43.4447 24.4462 44.5844C24.0107 45.0001 23.4751 45.404 22.8309 45.3237C22.04 45.3438 21.5974 44.6115 20.9854 44.2501C19.5992 43.3714 17.7788 43.1659 16.2411 43.7647C15.771 43.9702 15.2044 43.9513 14.7618 43.688C14.1844 43.4033 14.0031 42.7443 13.7072 42.2282C12.9974 41.1239 11.8713 40.2995 10.6127 39.9121C10.1582 39.8283 9.70251 39.7432 9.24084 39.7125C8.51553 39.6854 7.8272 39.1267 7.71148 38.4086C7.591 37.6823 7.57668 36.9146 7.23907 36.2438C6.75951 35.1844 5.97455 34.2348 4.94981 33.6549C4.42372 33.3856 3.77356 33.1529 3.56838 32.5435C3.29638 32.012 3.49203 31.4168 3.69244 30.9007C4.19706 29.4775 3.88928 27.8618 3.12341 26.5886C2.82756 26.082 2.31101 25.7123 2.1428 25.1336C1.90899 24.5442 2.08673 23.8238 2.54841 23.3915C2.90032 23.0561 3.16397 22.6474 3.41449 22.2353C3.9871 21.0884 4.1219 19.7527 3.8344 18.5078C3.7342 18.046 3.3954 17.6339 3.47294 17.1414C3.57195 16.5154 4.02408 15.9686 4.61936 15.7335C6.07714 15.1147 7.11143 13.7529 7.55401 12.2719C7.75324 11.7487 7.65422 11.1782 7.76397 10.6396C7.99302 10.0586 8.49883 9.55071 9.14779 9.47985C9.68223 9.43615 10.2119 9.34875 10.738 9.24246C12.1934 8.72988 13.5152 7.68228 14.114 6.24493C14.4564 5.47016 15.4823 5.05207 16.2649 5.41701C17.9971 6.05006 20.0525 5.71346 21.5032 4.58791ZM20.7862 9.32749C19.8247 9.53299 18.8453 9.69244 17.9243 10.0479C13.6965 11.4593 10.1868 14.797 8.54893 18.9C7.69597 20.9538 7.36672 23.1966 7.48363 25.4099C7.40012 26.33 7.62082 27.2264 7.81408 28.1181C8.9772 33.2167 12.9831 37.5736 18.009 39.1822C18.8393 39.4952 19.7209 39.6322 20.5834 39.8306C22.1056 39.9936 23.6433 39.9889 25.1679 39.8495C26.5147 39.5873 27.8639 39.2791 29.1153 38.7086C33.4052 36.8898 36.7586 33.0537 37.9551 28.5882C38.1746 27.6882 38.418 26.7859 38.4215 25.854C38.5921 25.5363 38.5575 25.1643 38.5778 24.817C38.511 23.1612 38.3189 21.4947 37.7964 19.9145C36.446 15.6249 33.0688 12.0227 28.8648 10.3373C27.6647 9.83416 26.3907 9.54126 25.1118 9.31332C23.6731 9.21293 22.2237 9.2023 20.7862 9.32749Z" fill="white"/>
<path d="M20.1638 12.8209C21.9265 12.6499 23.7494 12.6094 25.4609 13.1169C29.184 14.0631 32.3809 16.7949 33.9162 20.2784C34.7981 22.2294 35.1539 24.4032 34.9391 26.5297C34.797 27.3128 34.7402 28.1161 34.4788 28.8733C33.5026 32.4018 30.875 35.4329 27.5202 36.9609C25.462 37.9206 23.1402 38.3133 20.8752 38.0883C17.0067 37.771 13.3779 35.5398 11.2948 32.3073C10.2765 30.767 9.63668 29.0005 9.36165 27.1845C9.30824 26.4813 9.30938 25.7747 9.29688 25.0692C9.35824 22.6356 10.1538 20.2233 11.555 18.2205C13.0211 16.112 15.1338 14.4378 17.559 13.5399C18.392 13.1911 19.2808 13.001 20.1638 12.8209Z" fill="#48FDBC"/>
<path d="M10.932 42.3008C11.5106 42.6185 11.9389 43.1547 12.193 43.7535C12.8264 45.1412 14.3821 46.0459 15.9162 45.8983C16.7035 45.8758 17.3919 45.368 18.1911 45.4436C18.963 45.5215 19.7861 45.7306 20.3313 46.314C20.7428 46.7534 21.2856 47.0156 21.8475 47.2116C21.2713 49.0198 20.7965 50.8564 20.2406 52.6705C19.6883 54.6924 19.0489 56.6908 18.518 58.7186C17.1521 57.0097 15.7754 55.3101 14.3904 53.6177C14.1518 53.2645 13.6794 53.1878 13.2905 53.2952C11.049 53.9991 8.80144 54.6771 6.55273 55.3585C7.83635 51.5874 9.09133 47.808 10.3726 44.0369C10.542 43.4523 10.7937 42.8937 10.932 42.3008Z" fill="white"/>
<path d="M32.7058 45.0927C33.3154 44.6156 33.653 43.9069 33.9453 43.2148C34.8412 44.9935 35.8074 46.7391 36.7248 48.5095C37.5623 50.0354 38.3317 51.5992 39.1859 53.1168C37.8378 52.9219 36.4719 52.9408 35.1215 52.7743C34.3664 52.7058 33.6112 52.6125 32.8525 52.6031C32.4648 52.6054 32.1558 52.903 31.9745 53.216C30.7398 55.088 29.5803 57.0119 28.3098 58.8591C26.6385 55.9112 24.96 52.9668 23.2898 50.0177C23.1061 49.7319 23.3447 49.4083 23.4103 49.1201C23.5714 48.4871 23.7503 47.8576 23.9651 47.2399C24.3003 47.084 24.6689 46.9919 24.9743 46.7757C25.4741 46.4687 25.8356 45.9584 26.4022 45.7565C27.1717 45.4329 28.0724 45.3112 28.8609 45.6384C30.1171 46.1427 31.662 45.9785 32.7058 45.0927Z" fill="white"/>
<path d="M20.4336 2.82512C21.6707 1.66178 23.7249 1.53423 25.1266 2.47908C25.5382 2.72946 25.8221 3.14873 26.2671 3.3507C27.0771 3.71682 28.0398 3.90461 28.8892 3.5562C30.18 3.02472 31.7654 3.25857 32.8045 4.19633C33.321 4.60852 33.6455 5.19314 33.9223 5.77895C34.2348 6.36357 34.7812 6.79347 35.3562 7.11236C36.2533 7.5777 37.346 7.31078 38.2336 7.8021C39.2297 8.28633 39.9848 9.22173 40.2425 10.2894C40.3224 10.7264 40.3141 11.1728 40.394 11.6086C40.6684 12.6539 41.4259 13.607 42.4638 13.9885C43.479 14.4396 44.2222 15.3939 44.4751 16.4581C44.5598 16.9931 44.5657 17.5446 44.4703 18.0796C44.3546 18.5981 44.0134 19.0623 44.0969 19.6174C44.0074 20.5055 44.3486 21.402 44.9725 22.0397C45.9841 23.0909 46.3444 24.8022 45.6167 26.1014C45.4163 26.6116 45.0358 27.0167 44.6683 27.4135C43.9955 28.2615 43.8237 29.4698 44.2031 30.4784C44.4691 31.2307 44.5407 32.0563 44.3427 32.8334C44.0921 33.9223 43.2678 34.8412 42.2359 35.2735C41.4175 35.5581 40.8461 36.2845 40.5002 37.0439C40.2461 37.6261 40.3451 38.2757 40.1757 38.8781C39.9383 40.0863 38.9827 41.0736 37.8506 41.5295C37.1134 41.7728 36.3177 41.7126 35.5769 41.9441C37.4916 45.6242 39.4551 49.2796 41.3841 52.9515C41.5714 53.3236 41.8184 53.6743 41.9162 54.0842C42.0415 54.6133 41.6335 55.1979 41.0871 55.2569C39.8882 55.2628 38.7048 55.0455 37.5118 54.9747C36.1566 54.9593 34.817 54.7373 33.4677 54.6463C32.1662 56.7144 30.8194 58.7529 29.5143 60.8185C29.3401 61.1114 29.1338 61.3854 28.9381 61.6654C28.449 61.9642 27.7142 61.924 27.4052 61.3937C25.7183 58.4611 24.0876 55.4943 22.3709 52.5783C21.9331 54.3971 21.3307 56.1734 20.8499 57.9805C20.6042 58.7222 20.4431 59.4875 20.1831 60.2256C20.0674 60.7264 19.954 61.2366 19.6474 61.6642C19.1846 61.8968 18.5726 61.9653 18.192 61.5484C17.3069 60.4548 16.4217 59.3611 15.5413 58.2651C14.7898 57.3143 13.9976 56.3931 13.2652 55.427C11.0523 56.1191 8.8286 56.777 6.61449 57.4643C5.94524 57.6002 5.3106 58.0183 4.60437 57.8647C4.39083 57.7679 4.22979 57.5919 4.05084 57.4454C3.97807 57.123 3.91723 56.7888 4.02818 56.4675C5.6816 51.5579 7.33741 46.647 8.98965 41.7362C8.10925 41.6701 7.31713 41.2484 6.67413 40.6697C6.30551 40.2339 5.9703 39.7591 5.78062 39.2182C5.58975 38.4411 5.66609 37.599 5.28435 36.8714C4.92169 36.2089 4.40157 35.5841 3.68103 35.2912C2.89368 34.9463 2.18627 34.3747 1.80929 33.5952C1.37387 32.8936 1.35836 32.0326 1.45141 31.239C1.5039 30.6851 1.87252 30.215 1.8928 29.6528C1.92382 28.9005 1.69954 28.1363 1.28678 27.5068C0.881181 27.0226 0.3873 26.5679 0.21313 25.9396C-0.0755635 24.9782 -0.116123 23.8775 0.376564 22.9728C0.664064 22.2228 1.45499 21.8035 1.7067 21.0347C1.83673 20.5681 1.98824 20.091 1.94887 19.6009C1.89877 18.8296 1.40608 18.1517 1.4359 17.3687C1.41562 15.9278 2.32584 14.5377 3.65001 13.9436C4.84893 13.4948 5.6482 12.2429 5.66967 10.9909C5.68399 9.16976 7.28015 7.52927 9.12087 7.4525C10.2589 7.44778 11.3684 6.85725 11.9887 5.91359C12.2357 5.55691 12.343 5.12346 12.6162 4.78332C13.4155 3.65305 14.8983 3.09559 16.2619 3.32353C16.8846 3.39203 17.4345 3.77115 18.0739 3.74635C18.9305 3.70265 19.8168 3.44164 20.4336 2.82512ZM21.5025 4.58844C20.0518 5.71399 17.9964 6.05059 16.2642 5.41754C15.4817 5.0526 14.4557 5.47069 14.1134 6.24546C13.5145 7.68281 12.1927 8.73041 10.7373 9.24299C10.2112 9.34928 9.68155 9.43668 9.14711 9.48038C8.49815 9.55124 7.99234 10.0591 7.7633 10.6402C7.65355 11.1787 7.75256 11.7492 7.55334 12.2724C7.11075 13.7534 6.07647 15.1152 4.61869 15.7341C4.0234 15.9691 3.57128 16.5159 3.47226 17.1419C3.39472 17.6344 3.73352 18.0466 3.83373 18.5084C4.12123 19.7532 3.98642 21.089 3.41381 22.2358C3.16329 22.648 2.89965 23.0566 2.54773 23.392C2.08606 23.8243 1.90831 24.5448 2.14213 25.1341C2.31033 25.7128 2.82688 26.0825 3.12273 26.5892C3.8886 27.8623 4.19638 29.478 3.69177 30.9012C3.49135 31.4173 3.29571 32.0126 3.5677 32.544C3.77289 33.1535 4.42304 33.3861 4.94913 33.6554C5.97387 34.2353 6.75883 35.1849 7.2384 36.2443C7.576 36.9151 7.59032 37.6828 7.71081 38.4092C7.82652 39.1273 8.51485 39.6859 9.24016 39.7131C9.70184 39.7438 10.1575 39.8288 10.6121 39.9127C11.8706 40.3 12.9968 41.1244 13.7066 42.2287C14.0024 42.7448 14.1837 43.4039 14.7611 43.6885C15.2037 43.9519 15.7704 43.9708 16.2404 43.7653C17.7781 43.1665 19.5985 43.372 20.9847 44.2507C21.5967 44.6121 22.0393 45.3443 22.8302 45.3243C23.4744 45.4046 24.01 45.0006 24.4455 44.5849C25.9331 43.4452 28.0446 43.1192 29.8006 43.809C30.3303 44.0027 30.9244 43.8409 31.3729 43.5314C31.8119 43.1759 31.9276 42.5972 32.239 42.1531C32.9822 41.0736 34.1107 40.2434 35.3848 39.8949C36.1745 39.6717 37.1504 39.8725 37.7576 39.2087C38.3958 38.5899 38.1858 37.6486 38.3982 36.8703C38.7907 35.564 39.6544 34.3759 40.8461 33.6743C41.2601 33.4523 41.7516 33.3271 42.0641 32.9562C42.4017 32.4968 42.5532 31.8697 42.3349 31.3287C42.0844 30.724 41.9758 30.0674 41.9401 29.419C41.9842 28.0395 42.4363 26.5585 43.572 25.675C44.11 25.0621 44.0838 24.0735 43.5338 23.4747C42.2347 22.1933 41.6943 20.189 42.187 18.4411C42.4638 17.8186 42.663 17.0557 42.2884 16.4309C41.9615 15.8923 41.3209 15.7388 40.8103 15.4353C39.4301 14.5211 38.4077 13.0011 38.3075 11.337C38.2908 10.7925 38.1477 10.2103 37.6991 9.85477C37.0549 9.31149 36.1495 9.49337 35.3824 9.27605C34.1203 8.90638 32.9774 8.08909 32.2569 6.99071C31.9336 6.48758 31.7976 5.81438 31.219 5.52148C30.7609 5.23448 30.168 5.19314 29.6825 5.43762C27.9981 6.03169 26.0082 5.7506 24.5815 4.67348C24.1496 4.30381 23.7082 3.8243 23.0819 3.85383C22.4485 3.77706 21.9248 4.17625 21.5025 4.58844ZM10.9318 42.3008C10.7934 42.8936 10.5417 43.4523 10.3723 44.0369C9.09105 47.808 7.83607 51.5874 6.55245 55.3585C8.80116 54.677 11.0487 53.9991 13.2902 53.2952C13.6791 53.1877 14.1515 53.2645 14.3901 53.6176C15.7751 55.3101 17.1518 57.0096 18.5177 58.7186C19.0486 56.6907 19.688 54.6924 20.2403 52.6704C20.7962 50.8563 21.271 49.0198 21.8472 47.2116C21.2854 47.0155 20.7426 46.7533 20.331 46.314C19.7858 45.7305 18.9627 45.5215 18.1908 45.4435C17.3916 45.368 16.7032 45.8758 15.9159 45.8983C14.3818 46.0459 12.8262 45.1412 12.1927 43.7535C11.9386 43.1547 11.5103 42.6185 10.9318 42.3008ZM32.7054 45.094C31.6616 45.9797 30.1167 46.1439 28.8606 45.6396C28.072 45.3124 27.1714 45.4341 26.4019 45.7577C25.8353 45.9597 25.4738 46.4699 24.9739 46.777C24.6686 46.9931 24.2999 47.0852 23.9647 47.2411C23.75 47.8588 23.571 48.4883 23.41 49.1214C23.3444 49.4095 23.1058 49.7331 23.2895 50.019C24.9596 52.9681 26.6381 55.9124 28.3094 58.8603C29.5799 57.0132 30.7395 55.0892 31.9742 53.2173C32.1555 52.9043 32.4645 52.6067 32.8522 52.6043C33.6109 52.6137 34.366 52.707 35.1212 52.7755C36.4716 52.9421 37.8375 52.9232 39.1855 53.118C38.3314 51.6004 37.5619 50.0367 36.7245 48.5107C35.8071 46.7403 34.8408 44.9947 33.9449 43.2161C33.6526 43.9082 33.315 44.6168 32.7054 45.094Z" fill="black"/>
<path d="M20.7863 9.32801C22.2238 9.20282 23.6732 9.21345 25.1119 9.31384C26.3908 9.54178 27.6648 9.83469 28.8649 10.3378C33.0689 12.0232 36.4461 15.6254 37.7965 19.915C38.3191 21.4953 38.5111 23.1617 38.5779 24.8176C38.5576 25.1648 38.5922 25.5368 38.4216 25.8545C38.4181 26.7864 38.1747 27.6887 37.9552 28.5887C36.7587 33.0542 33.4053 36.8903 29.1155 38.7091C27.8641 39.2796 26.5148 39.5879 25.168 39.85C23.6434 39.9894 22.1057 39.9941 20.5835 39.8312C19.721 39.6327 18.8394 39.4957 18.0091 39.1828C12.9832 37.5742 8.97731 33.2172 7.81419 28.1186C7.62093 27.2269 7.40024 26.3305 7.48374 25.4105C7.36683 23.1972 7.69609 20.9543 8.54904 18.9005C10.187 14.7975 13.6966 11.4598 17.9244 10.0485C18.8454 9.69296 19.8248 9.53352 20.7863 9.32801ZM20.902 11.3677C19.9751 11.5567 19.0422 11.7563 18.1678 12.1224C15.622 13.0649 13.4043 14.8223 11.8654 17.0356C10.3945 19.1379 9.55947 21.67 9.49505 24.2247C9.50817 24.9652 9.50698 25.7069 9.56305 26.4451C9.85174 28.3513 10.5234 30.2055 11.5923 31.8224C13.7789 35.2156 17.588 37.5576 21.6488 37.8907C24.0263 38.1269 26.4635 37.7147 28.624 36.7073C32.1455 35.1034 34.9036 31.9216 35.9284 28.2178C36.2028 27.423 36.2624 26.5797 36.4115 25.7577C36.637 23.5255 36.2636 21.2437 35.3379 19.1957C33.7262 15.5392 30.3704 12.6716 26.4623 11.6783C24.6658 11.1457 22.7523 11.1882 20.902 11.3677Z" fill="black"/>
<path d="M28.9296 18.7055C29.2266 18.3193 29.8005 18.1752 30.2371 18.4114C30.5878 18.5366 30.7465 18.9217 30.7894 19.2618C30.787 19.6858 30.4983 20.0283 30.2275 20.3271C29.1467 21.6168 28.0707 22.9101 26.9863 24.1963C26.4614 24.814 25.9735 25.4647 25.3913 26.0328C23.9991 27.6898 22.6153 29.3539 21.222 31.0086C20.9154 31.3322 20.672 31.7727 20.2139 31.9038C19.7857 32.042 19.3968 31.7385 19.1116 31.4586C18.4639 30.7972 17.7899 30.1594 17.1385 29.5027C16.6315 29.0173 16.1388 28.5177 15.633 28.0311C15.4052 27.7949 15.132 27.5351 15.1534 27.1784C15.1057 26.6221 15.6258 26.1568 16.1543 26.0989C16.5981 26.1025 16.9285 26.4391 17.222 26.7284C18.1191 27.6284 19.0424 28.5059 19.93 29.4165C20.5456 28.5992 21.2434 27.8481 21.8817 27.0497C22.3016 26.5584 22.7012 26.0493 23.1617 25.5958C25.0847 23.2987 27.0149 21.0086 28.9296 18.7055Z" fill="black"/>
</svg>
