<svg width="49" height="61" viewBox="0 0 49 61" fill="none" xmlns="http://www.w3.org/2000/svg">
<path d="M18 56.082L47.4997 55.0833C47.4997 55.0833 48.3746 16.7117 46.9997 15.6931C45.4997 14.5819 18.4997 15.693 18.4997 15.693C18.0236 20.3067 18.4997 27.082 18.4997 27.082C18.4997 27.082 23.9957 29.9445 29.4997 30.5821C26.7075 44.4991 23 50.082 18 56.082Z" fill="white"/>
<path d="M25.444 1.62355C25.6105 1.20697 26.0246 0.905553 26.4828 0.942519C30.8056 0.941097 35.1298 0.938254 39.4526 0.943941C39.9905 0.906975 40.4828 1.38469 40.433 1.92639C40.443 5.97134 40.433 10.0163 40.4373 14.0598C41.8161 14.0712 43.1949 14.0385 44.5737 14.0769C46.7209 14.2205 48.5849 15.9977 48.8595 18.1275C48.9221 19.3673 48.888 20.6128 48.8809 21.8554C48.713 22.1398 48.4825 22.4483 48.1282 22.4924C47.5732 22.6203 46.9984 22.117 47.014 21.5583C46.9898 20.5517 47.0339 19.5436 46.9955 18.537C46.9443 17.0982 45.5783 15.8698 44.1468 15.9408C36.6495 15.9423 29.1522 15.9394 21.6534 15.9423C20.4211 15.911 19.297 16.8494 18.957 18.0081C18.7563 18.9507 18.9456 19.9303 18.8431 20.8844C18.6396 21.6905 17.3775 21.7843 17.0659 21.0081C16.898 20.4066 17.0232 19.764 16.9848 19.1469C16.9179 17.8901 17.3235 16.5949 18.1715 15.6536C19.0679 14.6285 20.4339 14.0314 21.7943 14.0613C23.0094 14.0598 24.2246 14.0598 25.4383 14.0613C25.444 9.91535 25.4327 5.76945 25.444 1.62355ZM27.3223 2.80647C27.3223 6.55854 27.3223 10.3092 27.3223 14.0598C31.0759 14.0613 34.831 14.0613 38.5847 14.0598C38.5847 10.3092 38.5861 6.55712 38.5847 2.80647C34.8296 2.80789 31.0759 2.80647 27.3223 2.80647Z" fill="black"/>
<path d="M41.6535 11.529C42.0832 11.0953 42.7505 11.2916 43.2941 11.2588C43.9273 11.2347 44.3115 11.9072 44.1991 12.4773C44.0141 12.7631 43.7807 13.0887 43.4108 13.1171C42.9611 13.1455 42.5029 13.1655 42.0576 13.0958C41.4016 12.9195 41.1739 12.0024 41.6535 11.529Z" fill="black"/>
<path d="M15.7473 55.216C21.7211 53.6231 24.708 46.0562 26.5002 32.1173C21.3229 30.9225 15.0304 27.2585 13.756 26.9399C12.4816 26.6213 6.98571 29.3295 1.41016 30.5241C3.40143 46.8527 11.6028 56.3211 15.7473 55.216Z" fill="#48FDBC"/>
<path d="M20.4455 33.777C20.6968 33.4469 21.1824 33.3238 21.5518 33.5257C21.8486 33.6327 21.9828 33.9617 22.0192 34.2524C22.0172 34.6148 21.7729 34.9076 21.5437 35.1629C20.6292 36.2652 19.7187 37.3705 18.8012 38.4698C18.357 38.9977 17.9442 39.5539 17.4516 40.0394C16.2736 41.4557 15.1026 42.8779 13.9236 44.2921C13.6642 44.5687 13.4583 44.9452 13.0707 45.0573C12.7083 45.1754 12.3792 44.916 12.138 44.6767C11.5899 44.1114 11.0195 43.5664 10.4684 43.0051C10.0394 42.5902 9.6225 42.1633 9.1945 41.7474C9.0017 41.5455 8.77054 41.3234 8.78871 41.0186C8.74834 40.5431 9.18844 40.1454 9.63562 40.096C10.0111 40.099 10.2907 40.3867 10.539 40.634C11.2981 41.4032 12.0794 42.1532 12.8304 42.9314C13.3513 42.2329 13.9418 41.5909 14.4818 40.9086C14.8372 40.4886 15.1753 40.0536 15.5649 39.666C17.1921 37.7026 18.8254 35.7454 20.4455 33.777Z" fill="black"/>
<path d="M22.3563 11.2825C23.0251 11.2882 23.9742 11.0095 24.3697 11.7332C24.7539 12.3275 24.2161 13.2033 23.5117 13.1322C22.9696 13.1109 22.2781 13.2829 21.901 12.7753C21.4456 12.299 21.7487 11.4517 22.3563 11.2825Z" fill="black"/>
<path d="M25.1918 22.5131C25.3099 22.5131 25.5433 22.5117 25.6614 22.5117C26.0342 22.6482 26.3558 22.951 26.3572 23.3747C26.3757 24.0529 26.3785 24.7325 26.3558 25.4107C26.3287 25.9496 25.7567 26.3519 25.2402 26.224C24.8005 26.1429 24.4832 25.7107 24.5031 25.2714C24.4989 24.6444 24.4889 24.0174 24.5103 23.3918C24.5216 22.9809 24.8318 22.6653 25.1918 22.5131Z" fill="black"/>
<path d="M32.7288 22.5098C32.8454 22.5112 33.0788 22.514 33.1955 22.514C33.6039 22.6832 33.9183 23.0785 33.8899 23.5363C33.8956 31.4556 33.887 39.3749 33.8941 47.2956C33.8813 47.6198 33.9368 47.9795 33.7518 48.2695C33.537 48.6889 32.9806 48.8624 32.5566 48.6648C32.1781 48.5254 32.0031 48.1089 32.0145 47.7307C32.013 39.6649 32.013 31.6006 32.0145 23.5349C31.9732 23.0586 32.2791 22.6463 32.7288 22.5098Z" fill="black"/>
<path d="M39.9245 22.658C40.4965 22.2443 41.4143 22.7064 41.3887 23.4187C41.4 31.5171 41.3901 39.6156 41.3929 47.7126C41.4783 48.3552 40.7853 48.9311 40.1706 48.6979C39.7352 48.6026 39.4663 48.1434 39.5118 47.7169C39.5118 39.6611 39.5133 31.6039 39.5118 23.5481C39.482 23.204 39.6228 22.8443 39.9245 22.658Z" fill="black"/>
<path d="M14.6047 23.5941C14.9533 23.3524 15.4144 23.4221 15.7473 23.6566C19.1011 25.5604 22.6499 27.1329 26.3466 28.2447C27.3967 28.6186 28.5024 28.7964 29.5567 29.1561C29.9423 29.2727 30.1729 29.6978 30.1259 30.0873C29.9964 31.6556 29.7047 33.2053 29.4657 34.7593C28.5365 39.9104 26.9912 45.0444 24.1653 49.4946C22.1789 52.6111 19.4341 55.3367 16.0319 56.8651C15.6548 57.0428 15.2465 57.3072 14.8153 57.1452C11.6038 55.8243 8.89884 53.4699 6.87545 50.6747C3.91436 46.5657 2.21113 41.6905 1.16244 36.774C1.01161 36.2763 1.3645 35.7147 1.87105 35.6209C2.41176 35.4901 2.96101 35.9308 3.00227 36.4754C3.82756 40.1478 4.97586 43.7805 6.81284 47.0818C8.67686 50.4884 11.4202 53.541 14.996 55.1803C15.2806 55.2656 15.5182 55.0139 15.7658 54.9158C18.5676 53.5139 20.8314 51.2135 22.5176 48.6017C25.1485 44.5255 26.5857 39.8094 27.5049 35.082C27.734 33.6261 28.0428 32.1816 28.1623 30.7115C23.6104 29.5286 19.2036 27.7741 15.1141 25.4467C11.9168 27.2836 8.50753 28.7367 5.00005 29.8684C4.03389 30.1186 3.10472 30.5196 2.11153 30.6532C2.09303 30.9333 2.09445 31.2176 2.18125 31.4892C2.16133 32.1247 2.5384 32.8698 2.08876 33.4228C1.6377 33.9816 0.657307 33.7356 0.49794 33.0475C0.338573 32.2541 0.238969 31.448 0.187744 30.6418C0.0383382 30.1542 0.0354924 29.4504 0.571932 29.1987C1.68608 28.8092 2.85714 28.613 3.9727 28.2234C7.6794 27.0945 11.2438 25.5163 14.6047 23.5941Z" fill="black"/>
<path d="M47.0112 25.3871C46.9486 24.7885 47.5533 24.2682 48.1339 24.4132C48.6035 24.4672 48.9478 24.935 48.8923 25.3999C48.8923 31.7481 48.8923 38.0978 48.8923 44.4475C48.8724 47.3436 48.9322 50.2412 48.861 53.1359C48.6177 54.7937 47.458 56.2994 45.87 56.8724C45.0561 57.2449 44.1469 57.1965 43.2746 57.1937C43.3244 58.1477 43.2661 59.2083 42.5859 59.9505C41.8788 60.8078 40.6237 61.1562 39.5751 60.7894C38.8095 60.5647 38.1806 59.9647 37.869 59.2382C37.5389 58.6083 37.647 57.8761 37.6285 57.1951C34.5024 57.1923 31.3762 57.1951 28.2486 57.1937C28.233 57.7766 28.3113 58.378 28.1305 58.9439C27.8616 59.8666 27.0804 60.6159 26.1442 60.8405C24.7027 61.2614 23.0294 60.2931 22.7192 58.8188C22.5641 57.9586 22.6466 57.0771 22.6409 56.2098C22.6395 55.7392 23.0351 55.307 23.5146 55.3184C30.4342 55.307 37.3567 55.3184 44.2778 55.3127C45.7235 55.3198 47.0283 54.0132 47.0055 52.563C47.0155 43.5048 47.0041 34.4453 47.0112 25.3871ZM24.5007 57.1937C24.5291 57.7524 24.3484 58.4676 24.8607 58.8657C25.2932 59.2396 26.0189 59.0676 26.2637 58.5629C26.433 58.1264 26.3491 57.6486 26.3647 57.1937C25.7429 57.1937 25.1211 57.1937 24.5007 57.1937ZM39.511 57.1937C39.5082 57.5989 39.5124 58.0041 39.5167 58.4107C39.7515 58.9354 40.4402 59.2965 40.9496 58.9112C41.5586 58.5529 41.3665 57.778 41.3921 57.1937C40.7646 57.1937 40.1371 57.1937 39.511 57.1937Z" fill="black"/>
</svg>
