<svg width="48" height="49" viewBox="0 0 48 49" fill="none" xmlns="http://www.w3.org/2000/svg">
<path d="M28.761 3.15731C28.8695 2.65503 29.3163 2.25899 29.829 2.21165C30.4571 2.15276 31.061 2.66543 31.1303 3.28778C31.1511 3.63764 31.0322 3.97365 30.9698 4.31427C29.6327 11.2203 28.3003 18.1274 26.9609 25.0334C26.2484 24.6639 25.4425 24.5403 24.6504 24.4941C25.1827 21.5255 25.7993 18.5731 26.3466 15.6079C27.1618 11.4593 27.9539 7.30713 28.761 3.15731Z" fill="white"/>
<path d="M38.313 23.0122C38.2541 22.4452 38.9654 21.9626 39.463 22.2651C39.6743 22.3655 39.7967 22.5711 39.9168 22.7627C39.9526 23.1207 39.836 23.5387 39.4734 23.6853C38.9885 23.9509 38.3026 23.5756 38.313 23.0122Z" fill="#F7F7F7"/>
<path d="M21.3555 28.4467C21.8196 27.3232 22.793 26.3013 24.0435 26.1327C24.7351 25.9919 25.4545 26.1281 26.1023 26.3868C27.4809 26.9664 28.512 28.2123 28.9057 29.6463C27.6483 30.1128 26.2916 30.241 24.9591 30.2017C23.6001 30.1047 22.2307 29.5136 21.3555 28.4467Z" fill="white"/>
<path d="M43.9675 27.0156C44.7538 26.7546 45.6256 27.5063 45.4812 28.3226C45.4339 29.1309 44.4097 29.6539 43.7296 29.2117C43.0034 28.8757 42.9075 27.7361 43.5368 27.2627C43.665 27.1576 43.807 27.0641 43.9675 27.0156Z" fill="#F7F7F7"/>
<path d="M12.8979 36.3368C15.9058 34.8634 18.722 32.792 20.5614 29.9492C22.0901 31.4122 24.3094 32.0253 26.3866 31.7586C27.3357 31.7424 28.2675 31.5311 29.1716 31.254C29.3056 32.2493 29.4072 33.2492 29.4453 34.2526C28.2075 34.9246 27.3311 36.174 27.0748 37.5538C27.0794 37.7662 26.8519 37.8159 26.7111 37.9094C25.479 38.5618 24.5911 39.7903 24.3105 41.1505C24.0403 42.4172 24.3879 43.7612 25.1292 44.8085C23.194 46.0901 20.9124 46.8337 18.595 46.9573C19.9009 46.074 21.089 45.0244 22.1294 43.8397C22.4019 43.573 22.515 43.1296 22.2841 42.8005C22.0093 42.3271 21.2553 42.3156 20.9447 42.7555C19.4102 44.5186 17.4958 45.9238 15.4047 46.9573C15.2881 46.9388 15.1726 46.9192 15.0583 46.8984C14.1588 46.8545 13.2651 46.724 12.3841 46.5439C11.6255 46.3938 10.8519 46.291 10.121 46.0278C11.2941 45.6929 12.4107 45.1895 13.5226 44.6965C16.8503 43.1504 19.9898 40.9704 22.1121 37.9302C22.3211 37.6635 22.4227 37.279 22.2241 36.9764C21.9839 36.4592 21.1653 36.4257 20.8801 36.9187C19.5938 38.7708 17.8941 40.3076 16.0005 41.5188C13.4718 43.1665 10.6371 44.2842 7.7528 45.1318C7.6154 45.1768 7.48377 45.1699 7.35445 45.1087C6.21596 44.6168 5.11557 44.006 4.16529 43.2023C7.26669 42.7878 10.2907 41.8341 13.1 40.4635C13.6254 40.2603 13.7016 39.4509 13.257 39.1252C13.0365 38.9324 12.6959 38.892 12.4372 39.026C9.44783 40.5963 6.10165 41.2845 2.79818 41.8318C2.29591 41.1759 1.92296 40.4335 1.69434 39.6414C5.54626 39.0225 9.38433 38.0687 12.8979 36.3368Z" fill="white"/>
<path d="M35.8094 35.2164C37.1176 34.7707 38.6268 34.9242 39.7826 35.6967C40.8345 36.3676 41.5307 37.498 41.7824 38.7092C41.8506 39.1156 42.2997 39.2299 42.6438 39.2923C43.765 39.5186 44.7638 40.3118 45.2014 41.3741C45.6355 42.3002 45.6147 43.4225 45.1575 44.337C44.4497 45.9662 42.3979 46.831 40.7363 46.196C40.2398 46.1013 39.8496 45.5736 39.3138 45.7353C38.9709 45.875 38.7653 46.2064 38.4986 46.4454C37.5668 47.3067 36.3071 47.8367 35.03 47.8009C33.477 47.8529 31.9309 47.1024 30.9772 45.8819C30.7647 45.5447 30.3618 45.2503 29.9484 45.4096C29.3976 45.6521 28.8457 45.9616 28.2233 45.9466C26.593 46.0308 25.0446 44.6222 25.0319 42.9791C24.9418 41.6824 25.7974 40.3753 27.0306 39.9551C27.3851 39.8431 27.8019 39.6156 27.7973 39.1872C27.8007 38.1573 28.3377 37.1365 29.2013 36.5696C30.2405 35.8676 31.7116 35.8803 32.7207 36.6343C33.0267 36.9056 33.5694 36.9241 33.8407 36.5916C34.3742 35.9819 35.0485 35.4981 35.8094 35.2164Z" fill="#48FDBC"/>
<path d="M27.9733 1.41222C28.9605 0.385731 30.7491 0.352246 31.7882 1.31754C32.4291 1.89486 32.8043 2.78626 32.7224 3.64878C32.4083 5.28723 32.0954 6.92569 31.7744 8.56299C30.7075 14.0903 29.6383 19.6188 28.5691 25.1461C28.5194 25.4094 28.4917 25.6773 28.3982 25.9301C28.636 26.228 28.9362 26.4693 29.1718 26.7707C30.0724 27.8642 30.5805 29.2486 30.7086 30.6527C30.8472 31.6699 30.9627 32.6918 31.0215 33.7171C31.7097 33.5982 32.4106 33.6675 33.0826 33.843C33.384 33.9411 33.6772 34.0647 33.9624 34.2055C34.8538 33.3776 35.9912 32.8153 37.1978 32.6433C39.0464 32.3454 41.0208 32.9585 42.3579 34.2748C43.1362 35.0138 43.6846 35.9675 43.9964 36.9917C45.3577 37.3058 46.5401 38.2422 47.2294 39.4488C47.9072 40.6681 48.1254 42.1692 47.6751 43.504C47.2571 44.9842 46.1163 46.2174 44.7019 46.8074C43.7516 47.1734 42.6974 47.3178 41.6952 47.0926C41.2726 47.0095 40.8673 46.8571 40.4585 46.7277C38.9898 48.1953 36.8191 48.8361 34.7753 48.5509C33.2431 48.3027 31.7998 47.5314 30.7641 46.371C29.3092 46.9956 27.5784 46.8143 26.2725 45.9276C23.6664 47.8743 20.3341 48.5948 17.1311 48.5856C16.5168 48.5648 15.8979 48.6121 15.2894 48.5163C12.091 48.3062 8.90532 47.5891 5.98405 46.2532C4.32943 45.438 2.80413 44.3191 1.62061 42.8978C0.934747 42.0375 0.40707 41.0445 0.133417 39.9765C-0.0386266 39.3299 0.292759 38.6013 0.860849 38.263C1.23727 38.0517 1.68065 38.0367 2.09402 37.9443C6.65605 37.1915 11.2354 35.8648 15.0919 33.2356C16.914 31.9632 18.5767 30.3721 19.6182 28.3861C19.8318 28.0085 19.9426 27.5836 20.169 27.2129C20.7728 26.1056 21.7647 25.1888 22.954 24.7524C24.2738 17.9746 25.575 11.1933 26.889 4.41432C27.1073 3.37975 27.1431 2.17891 27.9733 1.41222ZM28.7607 3.1569C27.9536 7.30672 27.1615 11.4589 26.3464 15.6075C25.7991 18.5727 25.1825 21.5251 24.6502 24.4937C25.4423 24.5399 26.2482 24.6635 26.9606 25.033C28.3 18.127 29.6325 11.2198 30.9696 4.31386C31.0319 3.97324 31.1509 3.63723 31.1301 3.28737C31.0608 2.66502 30.4569 2.15235 29.8288 2.21124C29.3161 2.25858 28.8693 2.65462 28.7607 3.1569ZM21.3559 28.4461C22.2312 29.513 23.6006 30.1042 24.9596 30.2012C26.2921 30.2404 27.6488 30.1123 28.9062 29.6458C28.5125 28.2117 27.4814 26.9659 26.1027 26.3862C25.455 26.1276 24.7356 25.9913 24.044 26.1322C22.7935 26.3008 21.8201 27.3226 21.3559 28.4461ZM12.8981 36.337C9.3845 38.069 5.54643 39.0227 1.69451 39.6416C1.92313 40.4337 2.29608 41.1762 2.79836 41.832C6.10182 41.2847 9.44801 40.5965 12.4374 39.0262C12.696 38.8923 13.0367 38.9327 13.2572 39.1255C13.7017 39.4511 13.6255 40.2605 13.1002 40.4637C10.2909 41.8343 7.26686 42.7881 4.16547 43.2026C5.11575 44.0062 6.21613 44.617 7.35462 45.1089C7.48394 45.1701 7.61557 45.177 7.75297 45.132C10.6373 44.2845 13.472 43.1668 16.0007 41.5191C17.8943 40.3079 19.5939 38.771 20.8802 36.919C21.1654 36.4259 21.9841 36.4594 22.2242 36.9767C22.4228 37.2792 22.3212 37.6637 22.1122 37.9304C19.99 40.9706 16.8505 43.1506 13.5228 44.6967C12.4108 45.1897 11.2943 45.6932 10.1212 46.028C10.8521 46.2913 11.6257 46.394 12.3843 46.5442C13.2653 46.7243 14.159 46.8548 15.0585 46.8986C15.1728 46.9194 15.2882 46.939 15.4049 46.9575C17.4959 45.9241 19.4104 44.5189 20.9449 42.7557C21.2555 42.3158 22.0095 42.3274 22.2843 42.8008C22.5152 43.1298 22.4021 43.5732 22.1296 43.84C21.0892 45.0246 19.9011 46.0742 18.5952 46.9575C20.9126 46.834 23.1942 46.0904 25.1294 44.8087C24.3881 43.7614 24.0405 42.4174 24.3107 41.1508C24.5913 39.7906 25.4792 38.562 26.7112 37.9097C26.8521 37.8161 27.0796 37.7665 27.0749 37.554C27.3313 36.1742 28.2077 34.9249 29.4454 34.2529C29.4073 33.2495 29.3057 32.2495 29.1718 31.2542C28.2677 31.5314 27.3359 31.7427 26.3868 31.7588C24.3095 32.0255 22.0903 31.4124 20.5615 29.9495C18.7222 32.7922 15.906 34.8637 12.8981 36.337ZM36.6089 34.4157C35.848 34.6974 35.1737 35.1812 34.6402 35.7909C34.3689 36.1234 33.8262 36.1049 33.5202 35.8336C32.5111 35.0796 31.04 35.0669 30.0008 35.7689C29.1372 36.3359 28.6002 37.3566 28.5968 38.3865C28.6014 38.8149 28.1846 39.0424 27.8301 39.1544C26.5969 39.5747 25.7413 40.8817 25.8314 42.1784C25.8441 43.8215 27.3925 45.2302 29.0228 45.1459C29.6452 45.1609 30.1971 44.8514 30.7479 44.609C31.1613 44.4496 31.5642 44.744 31.7767 45.0812C32.7304 46.3017 34.2765 47.0522 35.8295 47.0002C37.1066 47.036 38.3663 46.5061 39.2981 45.6447C39.5648 45.4057 39.7704 45.0743 40.1133 44.9346C40.649 44.7729 41.0393 45.3006 41.5358 45.3953C43.1974 46.0303 45.2492 45.1655 45.957 43.5363C46.4142 42.6218 46.435 41.4995 46.0009 40.5734C45.5633 39.5112 44.5645 38.7179 43.4433 38.4916C43.0992 38.4292 42.6501 38.3149 42.5819 37.9085C42.3302 36.6973 41.634 35.5669 40.5821 34.896C39.4263 34.1236 37.9171 33.97 36.6089 34.4157Z" fill="black"/>
<path d="M5.89131 10.4461C6.24232 10.1401 6.71227 10.3364 7.11409 10.3999C9.53539 10.8122 11.9532 11.2417 14.3699 11.6793C16.2959 12.0095 18.2242 12.3386 20.1455 12.7012C20.6928 12.8236 20.9237 13.5868 20.5277 13.9886C20.1409 14.4793 19.4793 14.1826 18.9747 14.1087C15.9876 13.5787 13.0017 13.0499 10.0134 12.5291C8.72252 12.252 7.40506 12.1169 6.11877 11.8179C5.52875 11.6643 5.39827 10.7879 5.89131 10.4461Z" fill="black"/>
<path d="M9.70839 15.7069C9.82617 15.3167 10.2788 15.0465 10.6783 15.155C11.2914 15.2786 11.9092 15.3859 12.5281 15.4818C14.7612 15.8709 16.9919 16.2796 19.2274 16.6595C19.6488 16.7184 19.9929 17.1168 19.9051 17.5509C19.9305 17.9839 19.501 18.231 19.1246 18.2737C17.5439 18.0035 15.9689 17.6941 14.3847 17.4401C13.0084 17.1433 11.6032 16.999 10.2303 16.6792C9.82039 16.5683 9.58831 16.1099 9.70839 15.7069Z" fill="black"/>
<path d="M38.3802 20.7024C39.0741 20.4356 39.8593 20.61 40.4701 20.9979C41.2726 21.5545 41.7183 22.6283 41.4366 23.5786C41.2091 24.4665 40.4389 25.1743 39.5395 25.3429C38.9691 25.4053 38.3594 25.3429 37.8698 25.0231C37.1078 24.5612 36.624 23.6525 36.7163 22.7611C36.8064 21.8304 37.4773 20.9725 38.3802 20.7024ZM38.3132 23.0105C38.3028 23.574 38.9887 23.9492 39.4737 23.6837C39.8362 23.537 39.9528 23.119 39.917 22.7611C39.797 22.5694 39.6746 22.3639 39.4633 22.2634C38.9656 21.9609 38.2543 22.4436 38.3132 23.0105Z" fill="black"/>
<path d="M7.49547 25.5422C7.79222 25.2916 8.26793 25.3332 8.52889 25.6184C8.95495 26.0375 9.39257 26.4486 9.78977 26.8966C10.1708 27.3354 9.83364 28.0801 9.27364 28.1436C8.88105 28.2221 8.56814 27.9358 8.32567 27.6714C8.00929 27.3319 7.65597 27.0282 7.35345 26.6772C7.07056 26.3412 7.15023 25.802 7.49547 25.5422Z" fill="black"/>
<path d="M12.4081 25.4492C12.8827 25.1802 13.5373 25.5809 13.5327 26.1224C13.5905 26.6316 13.102 26.911 12.8088 27.2413C12.5074 27.5149 12.2591 27.8544 11.9151 28.0784C11.4232 28.367 10.7292 27.9606 10.7327 27.3948C10.7211 26.9826 11.0872 26.7321 11.3389 26.463C11.7014 26.1316 12.0086 25.7367 12.4081 25.4492Z" fill="black"/>
<path d="M43.5888 25.4646C45.0737 25.0212 46.7906 26.0869 47.0377 27.6203C47.3645 29.0348 46.3888 30.5797 44.9674 30.8787C43.3601 31.3487 41.5312 30.0035 41.5266 28.3246C41.3961 27.0303 42.3544 25.7925 43.5888 25.4646ZM43.9675 27.0153C43.807 27.0638 43.665 27.1573 43.5368 27.2624C42.9075 27.7358 43.0034 28.8754 43.7296 29.2114C44.4097 29.6536 45.4339 29.1306 45.4812 28.3223C45.6256 27.506 44.7538 26.7543 43.9675 27.0153Z" fill="black"/>
<path d="M9.00099 28.9882C9.59448 28.8508 10.1672 29.5517 9.87853 30.1013C9.59448 30.532 9.17188 30.8472 8.82549 31.2259C8.58416 31.4418 8.37286 31.7882 8.00222 31.7547C7.3891 31.8633 6.92839 31.0677 7.27363 30.5689C7.52881 30.2237 7.87521 29.9569 8.16502 29.6406C8.42713 29.4073 8.63497 29.0655 9.00099 28.9882Z" fill="black"/>
<path d="M11.4376 28.9858C11.7044 28.9327 11.978 29.0447 12.1593 29.2399C12.5449 29.6313 12.941 30.0123 13.3232 30.4084C13.7481 30.8287 13.4791 31.7108 12.8544 31.7397C12.329 31.8424 12.0253 31.3344 11.6916 31.0319C11.3695 30.6532 10.8661 30.3737 10.7518 29.8576C10.716 29.4489 11.0358 29.054 11.4376 28.9858Z" fill="black"/>
<path d="M37.2545 35.8998C38.8375 35.3306 40.7288 36.4749 40.9736 38.1306C41.0937 38.6421 40.5891 39.119 40.0926 39.0544C39.7462 39.0082 39.4529 38.7299 39.3894 38.387C39.267 37.6376 38.3676 37.1376 37.669 37.4413C37.3249 37.5591 37.1182 37.8847 36.8088 38.0533C36.2834 38.2911 35.6276 37.7808 35.7269 37.2161C35.728 36.9483 35.9324 36.7531 36.1067 36.5776C36.4231 36.2566 36.8261 36.0338 37.2545 35.8998Z" fill="black"/>
</svg>
