<svg width="128" height="35" viewBox="0 0 128 35" fill="none" xmlns="http://www.w3.org/2000/svg">
<path d="M56.4434 30.1988C62.2929 30.1988 67.0349 24.8793 67.0349 18.3175C67.0349 16.7618 67.0349 4.47656 67.0349 4.47656" stroke="black" stroke-width="1.35767" stroke-linecap="round"/>
<path d="M35.5791 30.2705C40.5696 30.2705 44.754 26.3807 45.8754 21.1445" stroke="black" stroke-width="1.35767" stroke-linecap="round"/>
<circle cx="73.004" cy="24.6534" r="0.989317" fill="black"/>
<circle cx="55.2813" cy="24.6534" r="0.989317" fill="black"/>
<path d="M72.4772 30.1992C74.2692 29.791 76.1673 27.8289 76.3408 25.9063" stroke="black" stroke-width="0.905111" stroke-linecap="round"/>
<path d="M46.2543 18.1853C46.2543 16.3304 45.9301 15.4209 45.869 15.2174C44.9281 12.0807 42.2376 10.2969 38.7734 10.2969C35.5332 10.2969 32.76 12.3331 31.6211 15.2174" stroke="black" stroke-width="1.35767" stroke-linecap="round"/>
<path d="M19.8301 10.1484C16.5898 10.1484 13.8167 12.1847 12.6777 15.0689" stroke="black" stroke-width="1.35767" stroke-linecap="round"/>
<path d="M81.4396 17.4805C81.4396 17.4805 80.2338 17.8153 79.454 17.9872C78.7296 18.1469 70.8718 18.2286 67.7734 18.2221" stroke="black" stroke-width="1.35767" stroke-linecap="round"/>
<path d="M82.4704 20.1992C82.4704 20.1992 81.1186 20.534 80.2444 20.706C79.4323 20.8657 70.6902 20.9473 67.2168 20.9409" stroke="black" stroke-width="1.35767" stroke-linecap="round"/>
<path d="M1.5006 20.6162C2.71504 25.8716 7.42445 29.7892 13.0489 29.7892C18.633 29.7892 23.2038 26.3415 24.626 20.3438" stroke="black" stroke-width="1.35767" stroke-linecap="round"/>
<path d="M60.7353 17.4414C60.7353 17.4414 59.5295 17.7762 58.7497 17.9481C58.0252 18.1079 48.7966 18.1895 45.6982 18.183" stroke="black" stroke-width="1.35767" stroke-linecap="round"/>
<path d="M61.7655 20.1992C61.7655 20.1992 60.4138 20.534 59.5396 20.706C58.7275 20.8657 49.4197 20.9473 45.9463 20.9409" stroke="black" stroke-width="1.35767" stroke-linecap="round"/>
<path d="M29.2101 20.1992C29.2101 20.1992 30.5619 20.534 31.436 20.706C32.2482 20.8657 42.6584 20.9473 46.1318 20.9409" stroke="black" stroke-width="1.35767" stroke-linecap="round"/>
<path d="M30.2608 17.4414C30.2608 17.4414 31.5253 17.7762 32.343 17.9481C33.1027 18.1079 42.8407 18.1895 46.0898 18.183" stroke="black" stroke-width="1.35767" stroke-linecap="round"/>
<path d="M11.459 20.2188C11.459 20.2188 12.9317 20.5541 13.8838 20.7255C15.6883 21.0503 20.6216 21.0278 22.2569 20.7255C23.1871 20.5536 24.6254 20.2188 24.6254 20.2188" stroke="black" stroke-width="1.35767" stroke-linecap="round"/>
<path d="M11.3271 17.5C11.3271 17.5 12.7002 17.8353 13.5879 18.0067C15.2703 18.3316 20.8922 18.309 22.4169 18.0067C23.2841 17.8348 24.6251 17.5 24.6251 17.5" stroke="black" stroke-width="1.35767" stroke-linecap="round"/>
<path d="M94.463 17.3733C94.463 8.43798 101.707 1.19446 110.642 1.19446C119.577 1.19446 126.821 8.43798 126.821 17.3733C126.821 26.3086 119.577 33.5522 110.642 33.5522C101.707 33.5522 94.463 26.3086 94.463 17.3733Z" fill="white" stroke="black" stroke-width="1.35767"/>
<path d="M109.341 10.4727L105.042 12.9051L103.119 15.3376L102.779 18.4489H118.506L117.996 15.3376L114.998 11.5475L109.341 10.4727Z" fill="#48FDBC"/>
<path d="M118.618 17.9962C118.601 17.9014 118.618 17.6758 118.38 16.582C117.603 13.0236 114.433 10.3594 110.642 10.3594C107.075 10.3594 104.059 12.7175 103.067 15.9597" stroke="black" stroke-width="1.35767" stroke-linecap="round"/>
<path d="M119.225 11.6037C118.558 10.6336 117.897 10.0537 117.564 9.75" stroke="black" stroke-width="0.905111" stroke-linecap="round"/>
<path d="M121.917 11.028C121.188 9.55109 119.653 7.93867 118.352 7.10938" stroke="black" stroke-width="0.905111" stroke-linecap="round"/>
<path d="M102.043 11.6037C102.71 10.6336 103.37 10.0537 103.703 9.75" stroke="black" stroke-width="0.905111" stroke-linecap="round"/>
<path d="M99.3502 11.028C100.08 9.55109 101.614 7.93867 102.916 7.10938" stroke="black" stroke-width="0.905111" stroke-linecap="round"/>
<path d="M101.93 18.0547C101.93 18.0547 103.196 18.3615 104.015 18.5183C105.566 18.8155 116.137 18.7949 117.543 18.5183C118.343 18.361 119.579 18.0547 119.579 18.0547" stroke="black" stroke-width="1.35767" stroke-linecap="round"/>
<path d="M100.46 20.3711C100.46 20.3711 101.937 20.7083 102.892 20.8807C104.703 21.2073 117.035 21.1846 118.675 20.8807C119.608 20.7078 121.051 20.3711 121.051 20.3711" stroke="black" stroke-width="1.35767" stroke-linecap="round"/>
<path d="M110.642 8.09766L110.642 9.90788" stroke="black" stroke-width="1.35767" stroke-linecap="round"/>
<path d="M109.511 7.75781H111.774" stroke="black" stroke-width="1.35767" stroke-linecap="round"/>
<circle cx="112.452" cy="24.0496" r="0.905111" fill="black"/>
<circle cx="108.605" cy="24.0496" r="0.905111" fill="black"/>
<path d="M112.113 28.4609C113.792 28.4624 116.186 26.8198 116.186 23.9354" stroke="black" stroke-width="1.35767" stroke-linecap="round"/>
</svg>
