<svg width="24" height="24" viewBox="0 0 24 24" fill="none" xmlns="http://www.w3.org/2000/svg">
<path d="M8.98065 0.533538C9.65208 0.354951 10.3489 0.448944 11.0288 0.50534C12.227 0.674528 13.395 1.0787 14.4423 1.7005C15.9925 2.61874 17.2775 4.00478 18.0872 5.64243C18.8044 7.08993 19.1564 8.72613 19.0908 10.3493C19.0964 11.0261 18.8559 11.7072 19.04 12.3774C19.0964 12.6442 19.2424 12.8814 19.4364 13.0664C20.2432 13.8741 21.0465 14.6839 21.8569 15.4871C22.5713 16.1943 23.017 17.2007 22.9987 18.2245C23.0241 19.1456 22.675 20.0653 22.0861 20.7565C21.6636 21.2157 21.2179 21.6509 20.7863 22.1006C20.2989 22.6407 19.7185 23.1201 19.0202 23.3312C17.7486 23.7976 16.2499 23.4259 15.2858 22.4687C14.4141 21.5779 13.5466 20.6828 12.6735 19.7942C12.2418 19.3633 11.5888 19.3358 11.0252 19.4161C9.22398 19.6619 7.3557 19.3517 5.7251 18.5303C2.98088 17.1862 0.978602 14.3744 0.585059 11.2806C0.500426 10.4231 0.379118 9.49977 0.757146 8.6936C1.10626 7.90044 1.85244 7.31913 2.68325 7.15572C3.27921 6.99666 3.90056 7.10728 4.47747 7.29454C5.20391 7.56568 5.76037 8.12964 6.28298 8.68998C6.69556 9.07535 7.03833 9.62774 7.63852 9.70511C7.86209 9.6704 8.10329 9.69715 8.30923 9.58219C8.54973 9.46145 8.72887 9.25032 8.91647 9.06017C9.10267 8.86712 9.30931 8.68275 9.42709 8.43548C9.52724 8.24677 9.51102 8.0248 9.55193 7.82018C9.50397 7.59749 9.47153 7.36178 9.32553 7.18031C8.66892 6.36546 7.75347 5.7545 7.30845 4.77263C7.00377 4.07636 6.88034 3.26946 7.09404 2.52692C7.30845 1.57614 8.06239 0.785874 8.98065 0.533538ZM9.52936 3.04243C9.45389 3.23187 9.49127 3.43938 9.51314 3.63604C9.69792 3.99104 10.0153 4.23904 10.2798 4.52753C10.7185 4.9946 11.2241 5.4154 11.5281 5.99599C12.1918 7.15645 12.1805 8.6813 11.5041 9.83381C11.2171 10.3609 10.7629 10.7549 10.3559 11.1808C9.67465 11.867 8.72393 12.2364 7.77393 12.2458C6.84367 12.235 5.91553 11.8749 5.23776 11.2155C4.79767 10.7752 4.3738 10.319 3.92947 9.8837C3.77149 9.71523 3.54792 9.65811 3.33281 9.61328C3.23407 9.64004 3.13533 9.66173 3.0366 9.68486C3.00768 9.78247 2.96043 9.87791 2.96536 9.98275C2.96607 10.6183 3.0768 11.248 3.22984 11.8626C3.67416 13.4815 4.70951 14.9225 6.09185 15.8299C7.37122 16.6917 8.94328 17.072 10.4653 16.9115C10.7671 16.8833 11.0669 16.8226 11.3715 16.8247C12.4682 16.7965 13.6051 17.1638 14.3951 17.9657C15.2682 18.8492 16.1272 19.7465 17.001 20.6293C17.4489 21.0935 18.267 21.092 18.7135 20.6264C19.1655 20.1716 19.6092 19.7082 20.0591 19.2505C20.4089 18.9526 20.5881 18.4689 20.4992 18.009C20.4498 17.6186 20.1684 17.333 19.9004 17.08C19.2805 16.4618 18.6542 15.8494 18.0399 15.2254C17.7444 14.9239 17.4291 14.6376 17.195 14.2811C16.5765 13.3549 16.3748 12.1815 16.5243 11.0803C16.5983 10.5764 16.6343 10.0645 16.5997 9.55616C16.5017 7.42252 15.3676 5.37997 13.6425 4.18771C12.5282 3.39382 11.1748 2.9817 9.82205 2.95784C9.71837 2.95278 9.6147 2.98315 9.52936 3.04243Z" fill="white"/>
</svg>
