<svg width="24" height="24" viewBox="0 0 24 24" fill="none" xmlns="http://www.w3.org/2000/svg">
<path d="M6.71192 0.0261987C7.0074 -0.0383074 7.32991 0.0164687 7.5807 0.188725C7.82573 0.336116 7.99257 0.590897 8.06284 0.865137C8.11833 1.0655 8.09743 1.27524 8.11761 1.48029C8.18535 2.41292 8.54029 3.32321 9.13269 4.04792C9.81049 4.88361 10.782 5.47966 11.8399 5.68471C12.2424 5.78562 12.6629 5.74309 13.0683 5.82309C13.567 5.94238 13.909 6.45194 13.8964 6.95429C13.904 7.54278 13.3743 8.08873 12.7811 8.07504C12.0767 8.08297 11.3693 8.22964 10.7337 8.53739C9.8004 8.97777 9.02927 9.74463 8.57056 10.6679C8.2794 11.2737 8.11977 11.9422 8.10392 12.6142C8.12338 13.0197 7.92771 13.4319 7.58575 13.655C7.27585 13.855 6.86543 13.9069 6.52418 13.7577C6.10871 13.5945 5.79377 13.1743 5.79774 12.7213C5.8017 11.7735 5.51271 10.8247 4.96139 10.052C4.37619 9.22173 3.51318 8.58965 2.54098 8.29306C2.06605 8.14315 1.56697 8.07576 1.06934 8.07504C0.547571 8.06063 0.100748 7.62134 0.0164282 7.11646C-0.0740174 6.61699 0.217498 6.07788 0.681617 5.87427C1.09529 5.7121 1.554 5.80688 1.97993 5.69913C2.96474 5.52399 3.88757 5.01875 4.56573 4.28324C5.26984 3.51962 5.7217 2.51671 5.78116 1.47596C5.80747 1.24857 5.77972 1.01253 5.85359 0.792343C5.97719 0.40819 6.31807 0.109084 6.71192 0.0261987ZM6.962 4.02882C6.31843 5.25587 5.30695 6.30202 4.05837 6.91609C4.10125 6.96186 4.16683 6.97916 4.22016 7.01123C5.34263 7.61665 6.28059 8.55649 6.88741 9.67796C6.90542 9.71832 6.93894 9.74715 6.9656 9.78139C7.54287 8.66893 8.44048 7.719 9.53303 7.10096C9.63392 7.03934 9.74923 6.99934 9.83536 6.91537C8.60551 6.28689 7.57278 5.27101 6.962 4.02882Z" fill="white"/>
<path d="M18.2438 6.83802C18.5483 6.74973 18.8881 6.79261 19.1605 6.95442C19.4769 7.14037 19.691 7.48812 19.7187 7.8539C19.7302 7.97426 19.7252 8.09534 19.7313 8.21643C19.7893 8.91122 20.1003 9.57574 20.5774 10.0824C21.0055 10.5264 21.5626 10.8522 22.1683 10.9805C22.5459 11.086 22.9603 10.9794 23.3221 11.1581C23.8118 11.3693 24.094 11.9466 23.9707 12.4637C23.9008 12.7603 23.7167 13.0371 23.4508 13.1917C23.254 13.307 23.0259 13.3618 22.7993 13.3654C22.049 13.3748 21.3049 13.6648 20.7486 14.1683C20.1021 14.7449 19.7115 15.6026 19.7234 16.4707C19.7313 17.101 19.144 17.6642 18.513 17.6181C17.9289 17.6127 17.432 17.0833 17.414 16.5089C17.4129 15.8018 17.1834 15.0883 16.7318 14.5395C16.16 13.8173 15.2534 13.3708 14.3313 13.3661C14.0394 13.3582 13.7407 13.2713 13.518 13.0764C13.3428 12.9156 13.2268 12.6991 13.1493 12.4767C13.1018 12.1517 13.1533 11.7985 13.3508 11.5289C13.5126 11.3138 13.7461 11.1477 14.0106 11.0875C14.2783 11.0161 14.5594 11.0605 14.83 11.0078C15.5002 10.8878 16.1286 10.5448 16.5895 10.0435C17.0345 9.56457 17.3149 8.93933 17.3902 8.29102C17.4197 8.06363 17.3902 7.82759 17.4673 7.6074C17.5743 7.24127 17.8687 6.92991 18.2438 6.83802ZM18.5595 10.432C18.144 11.1671 17.5127 11.7632 16.7981 12.2054C17.2763 12.5034 17.7206 12.863 18.0831 13.2962C18.268 13.502 18.4056 13.7434 18.5757 13.9607C19.0114 13.2529 19.6063 12.6306 20.3345 12.2219C20.1753 12.0814 19.9864 11.9816 19.821 11.8493C19.3133 11.4641 18.9004 10.9678 18.5595 10.432Z" fill="white"/>
<path d="M9.66548 15.0894C9.9134 15.0458 10.1768 15.0855 10.3984 15.2062C10.7285 15.3666 10.9537 15.706 11.0059 16.0653C11.0341 16.2466 11.02 16.4318 11.0521 16.6127C11.2023 17.452 11.901 18.1677 12.7417 18.3241C13.0156 18.3846 13.3049 18.3501 13.5727 18.443C14.0915 18.6225 14.4458 19.2077 14.3268 19.7504C14.2224 20.2784 13.7175 20.6939 13.1784 20.6914C12.6221 20.6827 12.0697 20.9119 11.6737 21.3011C11.2694 21.691 11.0189 22.2442 11.0222 22.8089C11.0341 23.2381 10.7822 23.6558 10.4081 23.8612C10.1155 24.0165 9.75304 24.0468 9.44459 23.9192C9.15236 23.8028 8.9048 23.5664 8.79021 23.2716C8.67562 22.9873 8.72355 22.672 8.65076 22.3783C8.48645 21.5927 7.83279 20.9454 7.05841 20.7548C6.72294 20.6712 6.35503 20.7469 6.04045 20.5818C5.73741 20.4301 5.49706 20.1461 5.41598 19.8153C5.35112 19.5778 5.38031 19.3223 5.46895 19.0953C5.62966 18.6917 6.04045 18.4048 6.4743 18.3897C6.73014 18.3778 6.98743 18.3468 7.2321 18.2668C7.96215 18.0268 8.53041 17.3688 8.66914 16.6138C8.72247 16.3763 8.67995 16.1262 8.75994 15.8941C8.87814 15.4844 9.23631 15.1439 9.66548 15.0894ZM8.77256 19.5404C9.17362 19.8182 9.53432 20.1616 9.81214 20.5634C9.83304 20.5652 9.8752 20.5696 9.8961 20.5714C10.1602 20.1923 10.4975 19.8708 10.8625 19.5894C10.9148 19.5656 10.9141 19.4924 10.8625 19.4683C10.4806 19.1803 10.1364 18.8398 9.86619 18.4441C9.56711 18.8686 9.19163 19.2355 8.77256 19.5404Z" fill="white"/>
</svg>
