<svg width="24" height="25" viewBox="0 0 24 25" fill="none" xmlns="http://www.w3.org/2000/svg">
<path d="M14.4033 10.0216H10.0656L11.185 5.39844L12.5843 7.15206L14.4033 10.0216Z" fill="white"/>
<path d="M9.92677 10.0199H7.96781L10.7663 5.875L10.9062 6.6721L9.92677 10.0199Z" fill="white"/>
<path d="M20.1953 4.96995C20.0206 4.92317 19.8401 4.9768 19.6637 4.94485C19.5704 4.96196 19.4754 4.9574 19.3821 4.94428C18.9884 4.98421 18.592 4.94313 18.1978 4.95683C18.1526 4.9574 18.0632 4.9574 18.0185 4.95797C17.8121 4.91746 17.604 4.96881 17.3964 4.96025C17.2867 4.93572 17.1753 4.93686 17.0656 4.96139C16.763 4.91575 16.4587 4.98307 16.1567 4.94313C15.969 4.96938 15.779 4.96881 15.5912 4.94428C15.3469 4.96938 15.0997 4.9728 14.856 4.94256C14.6484 4.97223 14.438 4.96196 14.2288 4.95683C14.101 4.93458 13.9709 4.93458 13.8425 4.9574C13.3488 4.97565 12.8562 4.93401 12.363 4.95911C11.9892 4.91176 11.6114 5.00133 11.2365 4.9477C11.0125 4.93743 10.7863 4.92716 10.5629 4.95854C10.4843 4.95911 10.4063 4.95854 10.3271 4.9574C10.2366 4.94199 10.1444 4.94142 10.0533 4.95569C9.82713 4.96196 9.59808 4.97451 9.37299 4.93971C9.24009 4.95055 9.10662 4.95797 8.97315 4.94542C8.8476 4.96025 8.72092 4.96196 8.5948 4.96367C8.60046 8.77471 8.60668 12.5852 8.61233 16.3962C10.3418 16.3979 12.0712 16.3979 13.8007 16.3962C13.9551 15.5627 14.4991 14.813 15.2366 14.4068C15.8904 14.032 16.6934 13.9567 17.4156 14.1529C18.4438 14.4353 19.2644 15.3379 19.4652 16.3922C19.7078 16.3911 19.9499 16.3928 20.1919 16.3894C20.1919 14.4656 20.1908 12.5418 20.1925 10.618C18.9404 10.6106 17.6882 10.618 16.4361 10.6146C16.1811 10.5399 15.9384 10.359 15.8774 10.0852C15.749 9.67726 16.0747 9.20259 16.5051 9.20088C17.734 9.19232 18.963 9.20202 20.1919 9.19632C20.1919 8.7245 20.1919 8.25326 20.1919 7.78144C18.8086 7.77745 17.4253 7.78258 16.0419 7.77916C15.7445 7.77574 15.4453 7.5829 15.3718 7.28167C15.2128 6.84466 15.5895 6.35059 16.0414 6.36029C17.4253 6.35687 18.8086 6.36371 20.1925 6.35687C20.1931 5.89475 20.188 5.43206 20.1953 4.96995Z" fill="white"/>
<path d="M7.20886 11.4799C7.20547 10.5534 7.21621 9.62687 7.20377 8.70036C6.45046 8.70093 5.69659 8.70378 4.94328 8.69922C4.05367 9.62288 3.16802 10.5511 2.28068 11.4782C3.9236 11.4822 5.56651 11.4788 7.20886 11.4799Z" fill="white"/>
<path d="M7.2084 12.8945C5.24765 12.8945 3.28689 12.8945 1.32614 12.8945C1.32614 14.0612 1.32671 15.2285 1.32614 16.3952C1.41663 16.3958 1.50655 16.3969 1.59647 16.3981C1.75935 15.568 2.2904 14.8143 3.03014 14.4092C3.64319 14.0555 4.38971 13.9654 5.07629 14.1183C5.84147 14.2837 6.51674 14.7983 6.91488 15.4744C7.03591 15.6958 7.1575 15.924 7.18521 16.1796C7.19596 16.05 7.20953 15.9217 7.20897 15.7922C7.20784 14.8263 7.20897 13.8604 7.2084 12.8945Z" fill="white"/>
<path d="M17.9456 16.2575C17.6843 15.7515 17.1204 15.4143 16.5509 15.4662C15.9085 15.4708 15.3554 15.9757 15.1783 16.5816C15.1467 16.8326 15.1455 17.0865 15.1772 17.3375C15.3333 17.8766 15.7761 18.329 16.3281 18.4409C16.513 18.4671 16.7014 18.4648 16.8869 18.4477C17.4796 18.3473 17.9818 17.8504 18.0949 17.2548C18.139 16.9176 18.1209 16.5565 17.9456 16.2575Z" fill="white"/>
<path d="M4.75945 15.4943C4.4009 15.4338 4.00897 15.4566 3.69396 15.6563C3.23134 15.9193 2.91803 16.4482 2.94631 16.9879C2.92425 17.7843 3.66059 18.5134 4.45123 18.4615C5.00094 18.4804 5.52124 18.1221 5.76386 17.6343C5.9324 17.3319 5.92504 16.9708 5.88602 16.637C5.76669 16.0831 5.30973 15.6152 4.75945 15.4943Z" fill="white"/>
<path d="M20.9544 6.08479C20.9602 5.76465 20.627 5.48508 20.2882 5.51832C16.4653 5.5188 12.6425 5.51832 8.81963 5.51832C8.59286 5.51929 8.36504 5.51147 8.13879 5.53347C7.93339 5.62144 7.77751 5.7842 7.7087 5.98606C7.69931 6.90347 7.70922 7.82087 7.70348 8.73877C6.946 8.73779 6.18905 8.73877 5.43209 8.73779C5.32574 8.7373 5.21939 8.74756 5.11408 8.75978C5.01711 8.81648 4.91754 8.8722 4.83882 8.95138C3.63092 10.1322 2.41364 11.3053 1.20469 12.4856C1.06341 12.6127 0.994596 12.7974 1.00033 12.9798C1.00085 14.3659 0.998766 15.752 1.00189 17.1381C0.997202 17.4446 1.26673 17.7222 1.59464 17.7413C1.93297 17.7554 2.27236 17.7374 2.61069 17.7506C2.83799 18.4646 3.4276 19.0687 4.16945 19.3385C4.62821 19.5282 5.14484 19.5399 5.63488 19.4817C6.40435 19.34 7.10292 18.8786 7.47932 18.2305C7.56846 18.0746 7.64249 17.9114 7.70766 17.7457C9.75332 17.7462 11.799 17.7466 13.8447 17.7452C14.1366 18.6201 14.9514 19.3141 15.9153 19.4813C16.5863 19.581 17.2958 19.4661 17.8614 19.1054C18.3854 18.7887 18.7612 18.2892 18.9578 17.7388C19.4191 17.7374 19.8805 17.7447 20.3414 17.7364C20.6057 17.7295 20.8298 17.5619 20.9367 17.3424C20.9482 17.2408 20.957 17.1386 20.9565 17.0365C20.9555 15.2178 20.9576 13.3991 20.9555 11.5804C21.4492 11.5721 21.9429 11.578 22.4366 11.577C22.6644 11.5247 22.8859 11.3893 22.9568 11.1694C23.1132 10.8233 22.8239 10.3874 22.4225 10.3673C21.934 10.3536 21.445 10.3683 20.956 10.36C20.956 9.95627 20.9565 9.55304 20.956 9.14933C21.285 9.13906 21.6864 9.21091 21.9293 8.94649C22.1983 8.69087 22.1352 8.2285 21.8094 8.04277C21.5613 7.87073 21.2406 7.94942 20.9555 7.92693C20.9555 7.31305 20.9586 6.69868 20.9544 6.08479ZM19.685 6.74022C19.6782 7.13612 19.6829 7.5325 19.6824 7.9284C18.4067 7.93426 17.1316 7.9284 15.8559 7.93133C15.4394 7.92302 15.0922 8.34629 15.2387 8.72068C15.3064 8.97875 15.5822 9.14395 15.8564 9.14688C17.1316 9.14981 18.4067 9.14542 19.6819 9.14884C19.6819 9.55304 19.6819 9.95676 19.6819 10.361C18.5491 10.3659 17.4162 10.3575 16.2834 10.3649C15.8867 10.3663 15.5864 10.773 15.7047 11.1225C15.761 11.3571 15.9847 11.512 16.2198 11.576C17.374 11.579 18.5282 11.5726 19.6824 11.579C19.6809 13.2271 19.6819 14.8752 19.6819 16.5233C19.4588 16.5262 19.2356 16.5247 19.012 16.5257C18.8269 15.6225 18.0705 14.8493 17.1227 14.6073C16.457 14.4392 15.7167 14.5037 15.1141 14.8248C14.4343 15.1728 13.9328 15.8151 13.7904 16.5291C12.1962 16.5306 10.602 16.5306 9.00783 16.5291C9.00262 13.2642 8.99688 9.99977 8.99167 6.73484C9.10793 6.73338 9.2247 6.73191 9.34044 6.7192C9.46347 6.72996 9.5865 6.7236 9.70901 6.71432C9.91649 6.74413 10.1276 6.73338 10.3362 6.728C10.4201 6.71578 10.5051 6.71627 10.5885 6.72947C10.6615 6.73044 10.7334 6.73093 10.8059 6.73044C11.0118 6.70356 11.2203 6.71236 11.4268 6.72116C11.7724 6.7671 12.1206 6.69037 12.4652 6.73093C12.9198 6.70943 13.3739 6.74511 13.829 6.72947C13.9474 6.70992 14.0673 6.70992 14.1851 6.72898C14.378 6.73338 14.5719 6.74218 14.7632 6.71676C14.9879 6.74266 15.2157 6.73973 15.4409 6.71823C15.614 6.73924 15.7892 6.73973 15.9623 6.71725C16.2406 6.75146 16.5211 6.69379 16.8 6.73289C16.9012 6.71187 17.0039 6.71089 17.105 6.73191C17.2963 6.73924 17.4882 6.69525 17.6785 6.72996C17.7196 6.72947 17.802 6.72947 17.8437 6.72898C18.2071 6.71725 18.5725 6.75244 18.9354 6.71823C19.0214 6.72947 19.109 6.73338 19.195 6.71871C19.3576 6.74609 19.5239 6.70014 19.685 6.74022ZM7.71391 12.318C6.19999 12.317 4.68555 12.3199 3.17112 12.3165C3.98907 11.5223 4.80546 10.727 5.6255 9.93574C6.3199 9.93965 7.01482 9.93721 7.70922 9.93672C7.72069 10.7305 7.71078 11.5242 7.71391 12.318ZM7.71391 13.5301C7.71443 14.3576 7.71339 15.185 7.71443 16.0125C7.71495 16.1235 7.70244 16.2334 7.69254 16.3444C7.66699 16.1254 7.55491 15.9299 7.44335 15.7403C7.07633 15.1611 6.45388 14.7202 5.74853 14.5785C5.11564 14.4475 4.4275 14.5247 3.86239 14.8278C3.1805 15.1748 2.69098 15.8204 2.54084 16.5316C2.45794 16.5306 2.37506 16.5296 2.29164 16.5291C2.29217 15.5296 2.29164 14.5296 2.29164 13.5301C4.09907 13.5301 5.90649 13.5301 7.71391 13.5301ZM17.6112 16.4109C17.7728 16.667 17.7895 16.9764 17.7488 17.2652C17.6446 17.7755 17.1816 18.2012 16.6353 18.2872C16.4643 18.3019 16.2907 18.3038 16.1202 18.2813C15.6114 18.1856 15.2032 17.798 15.0593 17.3361C15.0301 17.121 15.0312 16.9035 15.0604 16.6885C15.2235 16.1694 15.7334 15.7369 16.3256 15.7329C16.8506 15.6885 17.3704 15.9773 17.6112 16.4109ZM5.45659 15.7559C5.96383 15.8595 6.38506 16.2603 6.49506 16.7349C6.53103 17.0208 6.53781 17.3302 6.38246 17.5893C6.15881 18.0072 5.67919 18.3141 5.17247 18.298C4.44366 18.3424 3.7649 17.7178 3.78523 17.0355C3.75916 16.5731 4.04798 16.12 4.47442 15.8947C4.7648 15.7237 5.12607 15.7041 5.45659 15.7559Z" fill="black"/>
</svg>
