<svg width="12" height="12" viewBox="0 0 12 12" fill="none" xmlns="http://www.w3.org/2000/svg">
<path d="M0.844981 10.9297C0.705361 10.7797 0.603785 10.599 0.546152 10.4023C0.48852 10.2057 0.476387 9.99854 0.512949 9.79688L0.860606 7.32227C0.888049 7.19006 0.951815 7.06707 1.04225 6.9668L5.1067 2.90234C5.17197 3.09143 5.24927 3.27836 5.33522 3.45898C5.42522 3.64498 5.51351 3.81633 5.61451 3.98633C5.69038 4.12117 5.77841 4.25161 5.87428 4.37305C5.95587 4.49818 6.04562 4.61593 6.14381 4.72852C6.17191 4.7717 6.20514 4.81122 6.24342 4.8457C6.44476 5.08739 6.66701 5.31089 6.90748 5.51367C6.94011 5.55083 6.97703 5.58396 7.01686 5.61328C7.13264 5.71288 7.2541 5.80632 7.38014 5.89258C7.51344 5.98989 7.65168 6.08082 7.7942 6.16406C7.9702 6.26406 8.14917 6.36427 8.33717 6.44727C8.52517 6.53027 8.70795 6.60687 8.88795 6.67188L4.82545 10.7324C4.72511 10.8254 4.60038 10.89 4.46607 10.916L1.98561 11.2656C1.90949 11.2773 1.83409 11.2829 1.75709 11.2832C1.58948 11.2872 1.42123 11.2578 1.2649 11.1973C1.10857 11.1367 0.966134 11.0456 0.844981 10.9297ZM9.50123 5.85547C8.65097 5.61001 7.87753 5.15455 7.25123 4.5293C6.62493 3.90404 6.16609 3.12915 5.9192 2.2793C5.90706 2.23425 5.90764 2.18778 5.9192 2.14258C5.93076 2.09738 5.95333 2.05517 5.98561 2.02148L6.77076 1.23828C6.98806 0.942492 7.27142 0.702873 7.59889 0.537109C7.92635 0.371346 8.2885 0.285156 8.65553 0.285156C9.02256 0.285156 9.3847 0.371346 9.71217 0.537109C10.0396 0.702873 10.323 0.942492 10.5403 1.23828C10.8346 1.45671 11.0748 1.74095 11.2395 2.06836C11.4043 2.39577 11.4895 2.75848 11.4895 3.125C11.4895 3.49152 11.4043 3.85228 11.2395 4.17969C11.0748 4.5071 10.8346 4.79134 10.5403 5.00977L9.76295 5.79102C9.73923 5.81698 9.71117 5.83744 9.67896 5.85156C9.64676 5.86568 9.61061 5.87318 9.57545 5.87305C9.54947 5.87229 9.52472 5.86659 9.50123 5.85547Z" fill="#97A0A8"/>
</svg>
