<svg width="34" height="33" viewBox="0 0 34 33" fill="none" xmlns="http://www.w3.org/2000/svg">
<path d="M20.2292 29.611L33.2107 29.4352V28.2016L29.7963 22.7526L28.9928 20.5178L29.6456 18.7601L29.7963 16.8768L28.9928 14.9433L28.3399 14.3156L26.1051 15.998L24.1213 12.8843L24.4478 10.9508L23.9707 9.31859L23.7196 6.95972L24.5984 5.75292L25.4773 5.37627L25.8791 4.37185V3.59642L24.5984 3.06611L23.7196 2.46646L22.7403 2.33791L21.9367 3.06611L22.4641 4.37185L22.0874 5.62737L21.4345 7.1591H20.7314L17.9693 1.8357L16.8142 1.21094L15.5838 2.46646L14.7803 3.59642L13.575 2.01447L12.9221 1.43659L11.5662 3.42062L10.8882 4.85062L11.8675 6.4587L13.123 6.95972L12.5706 7.98978L9.35644 12.8863L9.05512 11.9083H7.39783L6.44364 12.3354L5.36389 15.0465L4.71102 16.0496V18.3335L4.98724 21.0198L1.89866 25.9685L0.466797 28.5798L1.27091 29.611H11.5908L15.5835 30.2622L20.2292 29.611Z" fill="white"/>
<path d="M22.8553 3.41499C23.0149 3.37786 23.1848 3.38725 23.3452 3.41585C23.5044 3.53279 23.647 3.68899 23.7003 3.88317C23.7366 4.01121 23.8224 4.12559 23.9295 4.20241C24.0703 4.22801 24.2176 4.23271 24.3584 4.20155C24.4745 4.15034 24.5863 4.07352 24.7203 4.08846C24.9751 4.06157 25.2086 4.22545 25.3276 4.44141C25.3682 4.63346 25.3759 4.84216 25.3093 5.02951C25.1462 5.27107 24.8334 5.27406 24.5855 5.36966C24.451 5.44221 24.2867 5.4516 24.1693 5.55574C23.9372 5.72346 23.9628 5.99902 23.816 6.241C23.7609 6.48128 23.6068 6.684 23.5569 6.92514C23.5138 7.08902 23.4131 7.22858 23.3452 7.38137C23.3132 7.42276 23.2786 7.5158 23.2108 7.47483C22.9701 7.41338 22.3307 7.14308 22.0704 7.14991C22.0665 6.78245 22.3469 6.50803 22.4203 6.16191C22.4604 6.03558 22.5402 5.9259 22.5812 5.79999C22.6457 5.52643 22.909 5.28345 22.8736 5.00476C22.8493 4.68553 22.6329 4.42946 22.4652 4.1704C22.4178 4.03212 22.4532 3.88275 22.4784 3.74319C22.6325 3.66423 22.6782 3.45981 22.8553 3.41499Z" fill="#48FDBC"/>
<path d="M6.91774 13.6903C7.09603 13.6069 7.23484 13.4402 7.43974 13.4229C7.68721 13.3825 7.94533 13.3852 8.18748 13.4535C8.32585 13.512 8.44648 13.6061 8.58041 13.6752C8.65182 13.7063 8.67887 13.7839 8.72233 13.8429C8.79507 13.9591 8.93654 14.0234 8.984 14.1564C9.05363 14.3786 9.12947 14.5995 9.18313 14.8261C9.20353 14.9609 9.18091 15.1104 9.24167 15.235C9.34988 15.3437 9.4754 15.4772 9.64437 15.4572C9.97965 15.412 10.33 15.3907 10.656 15.4989C10.9571 15.7016 11.205 15.993 11.327 16.3398C11.3878 16.5992 11.3869 16.8689 11.3576 17.1328C11.3505 17.2822 11.339 17.4716 11.4849 17.5612C11.6574 17.6729 11.8388 17.7741 12.0295 17.8521C12.2566 18.0109 12.4034 18.2495 12.5692 18.4677C12.6579 18.5963 12.6358 18.7644 12.7005 18.9032C12.7688 19.0407 12.7555 19.1995 12.7622 19.3489C12.756 19.5232 12.775 19.7104 12.6912 19.8705C12.6309 20.0239 12.6557 20.2089 12.5457 20.3424C12.4672 20.4417 12.391 20.5437 12.3266 20.6532C12.1701 20.8675 11.9443 21.0116 11.7381 21.1721C11.617 21.2382 11.4676 21.2387 11.3572 21.3256C11.2702 21.3886 11.1753 21.4387 11.0786 21.4844C10.7722 21.6901 10.7465 21.7691 10.5482 22.0795C10.5065 22.2002 10.2098 21.8386 10.138 21.9437C9.9149 21.7566 10.0351 21.4293 9.90514 21.1938C9.81911 20.9259 9.81733 20.6163 9.94373 20.3604C9.97522 20.27 9.99251 20.1746 10.0351 20.0886C10.189 19.877 10.346 19.6633 10.5482 19.4939C10.6542 19.4087 10.7615 19.3249 10.864 19.2357C11.0565 19.1297 11.2538 19.0322 11.4472 18.9284C11.6508 18.7723 11.5922 18.4796 11.5359 18.2649C11.3847 18.1948 11.2512 18.0543 11.0689 18.1022C10.8507 18.1807 10.6391 18.2831 10.444 18.4099C10.2568 18.4938 10.3096 18.8197 10.138 18.9284C9.94107 19.0521 9.6661 19.1328 9.45012 19.23C9.40177 18.8849 9.2603 18.5607 9.21861 18.2144C9.18136 17.9935 9.18623 17.7443 9.32017 17.5544C9.44568 17.3451 9.46475 17.0355 9.66078 16.8945C9.78584 16.7659 10.0444 16.7482 10.138 16.5827C10.1841 16.4692 10.409 16.5557 10.3877 16.4253C10.3478 16.3228 10.3047 16.2208 10.2555 16.1228C10.1637 16.0763 10.0644 16.0474 9.97211 16.0022C9.86168 15.9468 9.76323 16.0488 9.66078 16.0754C9.43814 16.1419 9.27405 16.3162 9.07359 16.4248C9.00839 16.4523 8.99464 16.5273 8.96227 16.5827C8.91481 16.5872 8.8678 16.5925 8.82079 16.5983C8.81946 16.412 8.71125 16.251 8.70371 16.0656C8.69262 15.8341 8.64029 15.6057 8.54538 15.3946C8.44825 15.2465 8.28327 15.1241 8.09878 15.1449C7.94311 15.1356 8.22828 15.4399 8.09567 15.4962C8.0389 15.729 8.14579 15.843 8.18748 16.0754C8.25888 16.3366 8.36576 16.5051 8.38084 16.7788C8.29879 16.761 7.77369 16.8182 7.69874 16.7788C7.56702 16.7091 7.4118 16.738 7.27254 16.6963C7.13106 16.6435 6.97495 16.6475 6.82727 16.6639C6.62858 16.753 6.75143 16.5951 6.78514 16.8377C6.75941 17.0129 6.91065 17.1291 7.02329 17.236C7.17053 17.3637 7.37721 17.2866 7.55239 17.3198C7.73466 17.3526 7.94267 17.3243 8.09567 17.4476C8.2163 17.5309 8.3498 17.5992 8.45269 17.7057C8.59683 17.9159 8.92634 19.0153 8.96227 19.2677C9.05008 19.5098 8.48905 19.2477 8.51921 19.5018C8.30545 19.4269 8.10321 19.3249 7.89832 19.2295C7.65129 19.1652 7.38874 19.1896 7.14481 19.1129C6.88315 19.0756 6.91464 19.1204 6.68402 19.2677C6.96032 19.3133 6.951 19.4939 6.55185 19.4939C6.49154 19.7036 6.49996 19.5404 6.6512 19.6757C6.87738 19.7466 7.1182 19.7036 7.35015 19.7311C7.524 19.7356 7.68322 19.8114 7.85308 19.8398C8.01939 19.9125 8.24158 20.0425 8.38084 20.1702C8.54316 20.3032 8.74673 20.3897 8.86825 20.5684C9.00351 20.7658 9.31219 21.0785 9.32017 21.3344C9.33126 21.5606 9.48701 22.1355 9.54467 22.352C9.84403 22.23 9.94745 22.5535 9.93858 22.6382C9.79977 22.4511 8.84119 22.0249 8.65492 21.8945C8.38262 21.7814 8.12051 21.6337 7.82824 21.5765C7.38341 21.5016 6.9204 21.6182 6.48267 21.4927C6.29108 21.3681 6.04804 21.3228 5.89681 21.1428C5.82807 21.0629 5.73449 21.0124 5.65643 20.9441C5.38856 20.6536 5.22491 20.2851 5.10649 19.9121C5.08077 19.6987 4.74425 19.43 4.97025 19.2038C5.02614 18.9528 4.9801 18.6312 5.10649 18.4099C5.2564 18.2374 5.76642 18.1953 5.69058 17.9452C5.60853 17.8019 5.5287 17.6578 5.44577 17.5159C5.34776 17.3611 5.36594 17.1695 5.30474 17.0018C5.25906 16.8883 5.01513 16.4727 5.06126 16.3592C5.12601 16.1947 5.0994 15.996 5.21471 15.8523C5.27236 15.7756 5.32647 15.6966 5.3859 15.6217C5.48879 15.5476 5.59079 15.4727 5.69058 15.3946C5.90346 15.3259 5.87859 15.2207 6.04002 15.0482C6.19258 14.9409 6.15577 14.7285 6.13936 14.5684C6.07328 14.3284 6.44541 14.4628 6.46271 14.2051C6.4361 13.896 6.55673 14.2695 6.68402 13.995C6.76473 13.8952 6.84589 13.7963 6.91774 13.6903Z" fill="#48FDBC"/>
<path d="M26.8614 16.25C27.0387 16.2566 27.0382 16.4414 27.0979 16.5664C27.2305 16.7851 27.3556 17.0174 27.3895 17.2746C26.8802 17.299 26.371 17.3117 25.8613 17.314C26.1491 16.9191 26.5737 16.6454 26.8614 16.25Z" fill="#48FDBC"/>
<path d="M25.6875 18.3368C26.1093 18.2893 26.5418 18.35 26.9547 18.2456C27.1033 18.2362 27.2523 18.2362 27.4014 18.2324C27.3915 18.3965 27.392 18.5634 27.3449 18.7224C27.2669 18.933 27.1409 19.1211 27.0534 19.328C27.0153 19.4187 26.9509 19.4944 26.8945 19.5748C26.8522 19.4436 26.7445 19.3614 26.6368 19.2861C26.547 19.1573 26.4469 19.0346 26.3077 18.9565C26.2419 18.8667 26.1643 18.7887 26.0749 18.7224C25.9767 18.5634 25.8027 18.4812 25.6875 18.3368Z" fill="#48FDBC"/>
<path d="M24.9498 19.5522C25.0105 19.3904 24.9724 19.208 25.0579 19.0547C25.1092 19.2051 25.2329 19.3011 25.3542 19.3932C25.6175 19.6702 25.8822 19.9452 26.1648 20.2034C26.1982 20.3317 26.043 20.3933 25.9504 20.4413C25.7599 20.4798 25.6062 20.603 25.4289 20.6722C25.2582 20.7037 25.0857 20.7225 24.9141 20.7427C24.931 20.3458 24.9258 19.9485 24.9498 19.5522Z" fill="#48FDBC"/>
<path d="M23.7191 19.4228C23.7962 19.3321 23.8922 19.2597 23.9904 19.1934C23.9857 19.6955 23.95 20.1977 23.9589 20.7008C23.7991 20.697 23.6298 20.6881 23.4958 20.5908C23.319 20.4695 23.0731 20.4681 22.9358 20.2922C22.901 20.1779 23.0237 20.1258 23.0877 20.0571C23.2988 19.846 23.5118 19.6372 23.7191 19.4228Z" fill="#48FDBC"/>
<path d="M16.2158 23.1199C16.4312 23.0536 16.6611 23.0888 16.883 23.0804C17.0904 23.0616 17.2761 23.1669 17.4788 23.189C17.6617 23.1998 17.7886 23.3446 17.9499 23.4119C18.1389 23.4918 18.2823 23.6437 18.4351 23.7758C18.6914 24.0128 18.8997 24.2963 19.0798 24.5939C19.1409 24.7557 19.2411 24.8977 19.3158 25.0524C19.4113 25.3721 19.5302 25.6848 19.6445 25.9975C19.6887 26.2293 19.6906 26.4676 19.7362 26.699C19.8062 26.8918 19.7733 27.1005 19.7827 27.3013C19.7733 27.511 19.81 27.7301 19.7357 27.9323C19.6793 28.1989 19.7127 28.4881 19.5937 28.7396C19.5081 28.9935 19.3765 29.2291 19.305 29.4877C19.1564 29.6476 19.1056 29.87 18.9524 30.0256C18.7408 30.3411 18.446 30.5856 18.1747 30.8485C18.0077 30.9237 17.8874 31.0741 17.7134 31.1348C17.498 31.2082 17.3255 31.3713 17.1087 31.44C16.9301 31.4771 16.7439 31.4827 16.5741 31.5537C16.2407 31.6135 15.8989 31.5984 15.5623 31.5838C15.3488 31.5815 15.1569 31.4748 14.9449 31.4606C14.7441 31.4522 14.5885 31.3177 14.4267 31.2161C14.3393 31.1508 14.225 31.1404 14.1366 31.0788C13.9598 30.927 13.7445 30.8184 13.6133 30.619C13.3923 30.4798 13.2621 30.2428 13.1149 30.0355C13.0035 29.79 12.7905 29.5935 12.7453 29.3208C12.6894 29.1158 12.5756 28.9272 12.553 28.7133C12.4801 28.1472 12.4806 27.5721 12.5492 27.006C12.5704 26.7662 12.6955 26.5546 12.7538 26.3247C12.8064 26.028 13.0434 25.8131 13.1281 25.5277C13.5893 24.8074 14.1526 24.1143 14.9021 23.677C15.0408 23.5788 15.1668 23.4499 15.3399 23.4151C15.4823 23.3841 15.5956 23.2891 15.724 23.2271C15.8843 23.1758 16.0564 23.1739 16.2158 23.1199ZM15.5829 25.6791C15.3131 25.6772 15.0958 25.8484 14.8518 25.9354C14.7648 25.9636 14.7065 26.0374 14.6379 26.0929C14.4526 26.2499 14.2288 26.3755 14.1051 26.5922C14.0482 26.6929 13.9307 26.7493 13.9034 26.8678C13.8691 26.9802 13.8047 27.0794 13.7492 27.1823C13.6368 27.362 13.665 27.5881 13.5649 27.7738C13.507 28.0672 13.523 28.371 13.539 28.6682C13.5381 28.8294 13.6368 28.9649 13.6547 29.1228C13.6824 29.3504 13.8357 29.53 13.9217 29.7364C14.0069 29.8422 14.0938 29.9476 14.1775 30.0557C14.3379 30.256 14.564 30.3834 14.7672 30.5344C14.9651 30.5955 15.149 30.6938 15.3455 30.7596C15.6351 30.8165 15.9323 30.8075 16.2257 30.7934C16.4857 30.7892 16.7119 30.6496 16.9526 30.571C17.1233 30.524 17.2343 30.3731 17.3941 30.3035C17.594 30.1281 17.7802 29.9358 17.941 29.7237C18.0458 29.5324 18.1667 29.3509 18.2678 29.1572C18.3345 28.9837 18.3152 28.7895 18.3815 28.6155C18.4366 28.4829 18.4229 28.3353 18.4286 28.1951C18.4225 28.0094 18.4469 27.8143 18.3717 27.6389C18.303 27.4452 18.343 27.2171 18.217 27.045C18.1149 26.8927 18.0209 26.7357 17.9334 26.5753C17.8535 26.4822 17.7637 26.3976 17.6984 26.2932C17.5484 26.1959 17.4148 26.0769 17.2771 25.9645C17.0956 25.8818 16.9225 25.7755 16.733 25.7135C16.3555 25.6396 15.9652 25.6396 15.5829 25.6791Z" fill="white"/>
<path d="M15.5221 27.3569C15.6836 27.317 15.8534 27.3431 16.0055 27.4054C16.1811 27.4264 16.3101 27.5528 16.4306 27.6701C16.5798 27.7914 16.6262 27.9869 16.7214 28.1463C16.7732 28.3867 16.7692 28.6387 16.7279 28.881C16.6841 29.0041 16.6113 29.116 16.5653 29.2391C16.5433 29.3144 16.4723 29.3557 16.4259 29.4147C16.3752 29.4738 16.3376 29.5502 16.263 29.5835C16.1446 29.6378 16.0475 29.7345 15.9204 29.7696C15.6774 29.8207 15.4211 29.8189 15.181 29.7515C14.9807 29.649 14.8113 29.4958 14.6784 29.3148C14.606 29.1645 14.544 29.0088 14.5028 28.8477C14.4919 28.7238 14.4912 28.5985 14.5013 28.4743C14.5419 28.2868 14.6128 28.1075 14.6882 27.9315C14.8377 27.7566 14.9992 27.5879 15.1904 27.4579C15.2998 27.4206 15.4156 27.4032 15.5221 27.3569Z" fill="#48FDBC"/>
<path d="M16.5277 0.658927C16.8037 0.575702 17.106 0.596391 17.3881 0.637298C17.6138 0.766131 17.864 0.899667 17.9773 1.14793C18.0596 1.33836 18.2321 1.47424 18.3017 1.67079C18.3657 1.87015 18.5364 2.0098 18.5984 2.21057C18.779 2.48987 18.9595 2.76963 19.1076 3.06727C19.1528 3.22713 19.3065 3.32446 19.3507 3.48386C19.4104 3.69874 19.5985 3.84168 19.6855 4.04245C19.749 4.17975 19.8454 4.29918 19.9046 4.43929C19.985 4.64195 20.1679 4.78489 20.2361 4.99506C20.2812 5.15493 20.4345 5.25273 20.4787 5.41166C20.5436 5.63688 20.7444 5.78687 20.8295 6.00222C20.9889 6.25331 21.0886 6.53777 21.2931 6.75971C21.4012 6.51661 21.5682 6.29703 21.6204 6.03231C21.6674 5.83154 21.8084 5.66744 21.8489 5.46432C21.8785 5.30821 21.9819 5.1822 22.036 5.03503C22.0482 4.93958 22.0468 4.84272 22.0384 4.74774C21.9109 4.42801 21.6119 4.18304 21.5874 3.82475C21.5635 3.64843 21.4558 3.47728 21.5249 3.29672C21.6161 3.09877 21.5677 2.8585 21.6994 2.67794C21.792 2.54065 21.8705 2.38736 22.0055 2.28486C22.1338 2.17672 22.2434 2.03472 22.4084 1.97923C22.6031 1.9087 22.7822 1.78363 22.9938 1.76624C23.2576 1.7432 23.5402 1.74085 23.7786 1.87485C23.9102 1.95572 24.0752 1.9703 24.1923 2.07562C24.3663 2.22091 24.505 2.40758 24.6827 2.54629C24.9747 2.53783 25.2747 2.5082 25.5615 2.58296C25.7054 2.65773 25.8404 2.75082 25.9951 2.8049C26.201 2.97558 26.3787 3.18058 26.5461 3.38935C26.6007 3.54075 26.619 3.70391 26.6862 3.85202C26.7483 4.17504 26.7417 4.52205 26.6138 4.82909C26.6016 5.05055 26.4333 5.19772 26.2927 5.34724C26.1864 5.56588 25.9396 5.62513 25.7496 5.74597C25.562 5.88091 25.3119 5.80521 25.1078 5.89314C24.9625 5.97542 24.8125 6.07651 24.7392 6.23215C24.6766 6.34452 24.6682 6.47665 24.6244 6.59608C24.552 6.74043 24.4754 6.88196 24.402 7.02584C24.3235 7.17254 24.3339 7.35074 24.2431 7.49227C24.1561 7.63803 24.0748 7.79507 24.0644 7.96811C24.1035 8.1623 24.2826 8.27797 24.3555 8.45523C24.457 8.66117 24.6254 8.83844 24.6696 9.0693C24.7157 9.25973 24.7975 9.43888 24.8577 9.6246C24.9145 9.88133 24.9207 10.1451 24.9465 10.4056C25.0218 10.6581 25.017 10.9327 24.9451 11.1852C24.9192 11.6192 24.8845 12.0593 24.6973 12.4585C24.6103 12.6155 24.742 12.7453 24.8276 12.8638C25.0147 13.192 25.1736 13.5376 25.413 13.8328C25.4666 13.9871 25.5385 14.1319 25.6424 14.2593C25.735 14.4568 25.8493 14.6416 25.9744 14.8203C26.0726 15.0229 26.186 15.219 26.3218 15.3995C26.801 14.9524 27.2368 14.4591 27.7188 14.0139C27.8707 13.8902 28.0587 13.791 28.2609 13.8117C28.6042 13.8089 28.8585 14.0792 29.0438 14.3388C29.237 14.5283 29.3447 14.7808 29.5121 14.9905C29.5892 15.3116 29.8685 15.5415 29.908 15.874C29.9607 16.0799 30.0829 16.2652 30.1046 16.4796C30.1304 16.6611 30.1398 16.8473 30.2132 17.0179C30.2734 17.4317 30.2574 17.8535 30.2522 18.2705C30.2386 18.4666 30.255 18.673 30.1685 18.8555C30.1201 19.0454 30.1285 19.2457 30.0731 19.4347C30.0058 19.6275 29.9226 19.8151 29.8765 20.0145C29.7919 20.2961 29.5582 20.5167 29.5159 20.8134C29.5314 21.0612 29.7148 21.2408 29.8427 21.4378C29.9983 21.8012 30.255 22.1102 30.4045 22.4764C30.5089 22.6401 30.6575 22.7769 30.713 22.9687C30.9095 23.3153 31.1225 23.6543 31.3209 24.0013C31.446 24.155 31.4827 24.3586 31.6073 24.5129C31.675 24.6031 31.7573 24.6854 31.7982 24.7931C31.864 24.9939 32.0145 25.149 32.0977 25.3418C32.2355 25.5261 32.2914 25.7584 32.4461 25.9314C32.5886 26.0998 32.6267 26.3292 32.7753 26.4943C32.9916 26.9019 33.2666 27.2776 33.4585 27.6989C33.5563 27.8541 33.6964 27.9857 33.7523 28.1653C33.8111 28.3656 33.9616 28.5401 33.9503 28.7578C33.9846 29.0338 33.8078 29.2642 33.7166 29.5106C33.4726 29.7696 33.1477 30.0052 32.7753 29.992C28.5651 29.9958 24.3545 29.9859 20.1444 29.9972C20.0104 30.206 19.9027 30.4345 19.7363 30.6207C19.5802 30.9362 19.2609 31.1219 19.0616 31.4064C18.842 31.5775 18.6186 31.7435 18.3887 31.8991C18.1136 31.9918 17.9119 32.2367 17.6171 32.2758C17.3999 32.3153 17.2212 32.4728 16.9979 32.4883C16.7792 32.5236 16.554 32.5203 16.3424 32.5908C16.0923 32.604 15.8403 32.6068 15.5901 32.5894C15.2737 32.4822 14.9135 32.5499 14.6149 32.3849C14.5063 32.3388 14.4005 32.2824 14.283 32.2631C14.0187 32.2193 13.8405 31.9979 13.6026 31.8944C13.0449 31.5592 12.6058 31.0627 12.2409 30.5304C12.169 30.3386 11.9889 30.2032 11.9626 29.993C8.44597 29.992 4.92986 29.992 1.41327 29.993C1.21955 29.9887 1.00984 30.0141 0.833519 29.9159C0.706096 29.8467 0.581024 29.7725 0.441847 29.7297C0.404231 29.6168 0.314894 29.5416 0.227908 29.4673C0.15926 29.3211 0.140922 29.156 0.0699227 29.0103C0.0379494 28.8339 0.0290158 28.6379 0.1113 28.4733C0.170074 28.344 0.173366 28.1907 0.269285 28.0798C0.381192 27.9354 0.439026 27.7586 0.555164 27.6171C0.684938 27.4539 0.735718 27.2452 0.868313 27.0839C0.966584 26.9776 0.969876 26.8206 1.06297 26.7115C1.16971 26.5775 1.23083 26.4157 1.33004 26.277C1.48239 26.0744 1.56091 25.828 1.72172 25.631C1.80165 25.3648 1.99866 25.1622 2.159 24.9421C2.28736 24.8725 2.44488 24.7696 2.59064 24.8556C2.7284 24.9417 2.91225 25.0479 2.90661 25.2341C2.9146 25.3616 2.91084 25.4913 2.88263 25.6169C2.81915 25.7509 2.69972 25.8538 2.64894 25.9963C2.57606 26.191 2.41667 26.3367 2.33297 26.5267C2.27561 26.6776 2.1416 26.7858 2.0974 26.9438C2.03346 27.1596 1.81952 27.2884 1.76168 27.5061C1.6968 27.6824 1.54727 27.8132 1.4885 27.9946C1.33804 28.2138 1.21062 28.4474 1.0752 28.6755C1.04464 28.7667 1.06344 28.8645 1.0625 28.9585C1.27221 28.991 1.48427 28.9802 1.69539 28.9811C4.39101 28.9811 7.08664 28.9811 9.78227 28.9811C10.394 28.9774 11.0062 28.9891 11.6179 28.9745C11.5493 28.7676 11.5022 28.5528 11.5046 28.3337C11.5004 27.7097 11.4425 27.0599 11.6804 26.4675C11.7373 26.2789 11.7547 26.0767 11.8582 25.9046C11.9677 25.7283 11.9564 25.5003 12.0989 25.3432C12.1906 25.2313 12.2113 25.0827 12.2917 24.9642C12.3556 24.8439 12.4628 24.7541 12.5259 24.6328C12.7036 24.3347 12.9481 24.0869 13.1672 23.8203C13.3289 23.6834 13.4404 23.4925 13.6308 23.3886C13.786 23.2297 13.9792 23.115 14.1344 22.9556C14.2129 22.8643 14.3441 22.8545 14.4353 22.7807C14.6215 22.6231 14.8688 22.5728 15.0635 22.4257C15.4265 22.3335 15.7702 22.1774 16.1337 22.0881C16.4929 22.0528 16.8563 22.05 17.216 22.0819C17.5739 22.1421 17.8969 22.3208 18.2453 22.4167C18.5265 22.6194 18.8608 22.7553 19.0912 23.0233C19.188 23.1479 19.3296 23.2278 19.4048 23.3703C19.5948 23.5165 19.6944 23.7375 19.8346 23.9261C19.907 24.0173 19.9295 24.1358 19.9968 24.2303C20.1049 24.3864 20.2168 24.5472 20.2526 24.7376C20.3005 24.937 20.4524 25.0973 20.474 25.3037C20.5065 25.5698 20.6085 25.8191 20.672 26.0781C20.6898 26.2413 20.7044 26.4059 20.7646 26.5601C20.8112 27.0557 20.806 27.5564 20.7684 28.0525C20.7134 28.2142 20.6927 28.3835 20.6649 28.5518C20.6071 28.6891 20.5803 28.8363 20.5723 28.9853C23.1979 28.9759 25.8234 28.9839 28.449 28.9811C29.924 28.9759 31.3995 28.9919 32.8745 28.9731C32.9478 28.7277 32.8256 28.4827 32.6577 28.3092C32.6041 28.1042 32.4767 27.9368 32.3446 27.776C32.1894 27.3994 31.9223 27.0811 31.7695 26.7049C31.6825 26.5582 31.5438 26.4444 31.4879 26.2798C31.4314 26.128 31.3242 26.0038 31.2518 25.8609C31.1606 25.6488 31.0012 25.4758 30.9039 25.2675C30.8498 25.1415 30.744 25.0446 30.6998 24.9144C30.634 24.6854 30.4144 24.5444 30.3444 24.3173C30.2085 24.0657 30.0608 23.8203 29.9193 23.5715C29.8347 23.3313 29.617 23.1657 29.5455 22.9198C29.4609 22.7539 29.3278 22.6156 29.2662 22.4374C29.1059 22.2051 28.9737 21.9578 28.8289 21.7171C28.7621 21.8041 28.6714 21.868 28.5919 21.9428C28.3996 22.1097 28.2468 22.3241 28.0188 22.4463C27.9388 22.5686 27.8086 22.6189 27.6821 22.6772C27.4748 22.8502 27.2171 22.9415 26.9914 23.0853C26.8536 23.1794 26.6778 23.1822 26.5362 23.2687C26.3886 23.3256 26.2381 23.4281 26.0736 23.3773C25.9551 23.3059 25.8432 23.2241 25.7383 23.1352C25.6819 22.9824 25.6875 22.8131 25.7167 22.6551C25.8173 22.5465 25.9109 22.405 26.0708 22.3862C26.3707 22.3311 26.6096 22.1299 26.8865 22.0175C27.022 21.9338 27.147 21.8337 27.2975 21.7758C27.4917 21.5774 27.7183 21.4129 27.9299 21.2323C28.0884 21.0433 28.2351 20.8439 28.3973 20.6577C28.5012 20.4278 28.7062 20.2567 28.7791 20.0107C28.8759 19.8029 28.9869 19.5998 29.024 19.3703C29.1571 19.0652 29.2098 18.7356 29.2756 18.4121C29.2916 18.0985 29.2888 17.7834 29.2817 17.4693C29.2878 17.2662 29.2008 17.0781 29.1844 16.8774C29.104 16.614 29.0099 16.3545 28.9389 16.0884C28.7969 15.8603 28.756 15.5792 28.5614 15.385C28.4213 15.2505 28.4034 14.9933 28.2139 14.9232C28.0183 15.1184 27.8401 15.3328 27.6186 15.4997C27.7028 15.668 27.8655 15.7832 27.9341 15.9614C28.0028 16.1561 28.1565 16.315 28.1843 16.5247C28.2285 16.8012 28.3945 17.0457 28.4081 17.3292C28.4344 17.7058 28.4325 18.0853 28.4076 18.4619C28.3907 18.7389 28.22 18.9735 28.1847 19.2457C28.1349 19.4648 27.976 19.6393 27.92 19.8579C27.7362 20.0587 27.6182 20.3074 27.4273 20.5007C27.265 20.7297 27.0055 20.8604 26.8038 21.0494C26.619 21.2417 26.3468 21.2925 26.1389 21.4528C25.8121 21.5266 25.5084 21.687 25.1732 21.7241C24.9611 21.8172 24.7255 21.7947 24.4994 21.8003C24.3339 21.7942 24.1608 21.8111 24.0047 21.7453C23.8608 21.6959 23.7014 21.7124 23.5627 21.6465C23.2848 21.5276 22.9693 21.505 22.7281 21.3089C22.5166 21.2384 22.3398 21.1068 22.1818 20.9511C21.9965 21.1702 21.7769 21.3578 21.578 21.5647C21.8912 21.8929 22.3252 22.0575 22.7145 22.2752C22.8965 22.3918 23.1236 22.3763 23.3164 22.4652C23.4015 22.499 23.4946 22.5047 23.5801 22.5385C23.7931 22.6354 24.0348 22.5916 24.2586 22.6419C24.3616 22.7144 24.4246 22.8347 24.5304 22.9076C24.5412 23.0294 24.561 23.1568 24.5219 23.2758C24.3837 23.453 24.1919 23.6684 23.9412 23.6087C23.7565 23.5325 23.5515 23.5457 23.3657 23.4742C23.1302 23.4168 22.8725 23.4366 22.6595 23.3049C22.4709 23.1935 22.2424 23.1846 22.0586 23.0642C21.6204 22.8084 21.1586 22.5771 20.7914 22.2202C20.664 22.0697 20.5036 21.916 20.4919 21.7067C20.4886 21.5417 20.4698 21.3536 20.5808 21.2168C20.7439 20.9507 21.003 20.7663 21.1901 20.519C21.2842 20.4339 21.4163 20.4043 21.4925 20.2947C21.5799 20.2308 21.5931 20.1194 21.6504 20.0342C21.863 19.8528 22.0323 19.6261 22.2659 19.4691C23.3446 18.3951 24.4157 17.3132 25.4929 16.2384C25.547 16.142 25.4981 16.0334 25.4684 15.9384C25.4181 15.7432 25.246 15.6172 25.1595 15.4409C25.0857 15.2467 24.9432 15.0897 24.8661 14.8964C24.758 14.7427 24.6644 14.5823 24.6052 14.4037C24.3955 14.2034 24.3099 13.9255 24.1707 13.68C24.0405 13.9006 23.8717 14.0933 23.7212 14.2993C23.6286 14.382 23.5515 14.4789 23.4936 14.5889C23.0982 14.9181 22.7394 15.3238 22.2467 15.5143C22.1254 15.5768 22.0228 15.6784 21.8837 15.7014C21.5381 15.8142 21.193 15.9341 20.8365 16.0033C20.5027 16.0108 20.1543 16.0526 19.8341 15.9384C19.5468 15.8951 19.2873 15.7574 19.0127 15.6713C18.889 15.5843 18.7705 15.4908 18.6252 15.4419C18.3873 15.2806 18.1908 15.0671 17.9909 14.8635C17.9312 14.6646 17.9171 14.4333 18.0347 14.2523C18.194 14.0947 18.4531 14.0628 18.6558 14.1483C18.8415 14.2894 19.0169 14.4474 19.1688 14.6247C19.339 14.6985 19.5007 14.7892 19.6658 14.8739C19.843 14.9369 20.0382 14.9261 20.2149 14.9933C20.5535 15.0775 20.8803 14.942 21.2127 14.8997C21.3947 14.8612 21.548 14.7469 21.7229 14.6867C21.9669 14.6148 22.1291 14.4013 22.3515 14.288C22.4672 14.1347 22.6529 14.0562 22.7559 13.8912C22.9689 13.6767 23.1504 13.4304 23.2961 13.1642C23.3747 13.0246 23.5058 12.9136 23.5364 12.7495C23.5778 12.5624 23.701 12.4082 23.7522 12.2257C23.8068 11.9328 23.9149 11.654 23.9633 11.3592C24.0226 10.7752 24.0231 10.1649 23.7988 9.61285C23.7626 9.36929 23.6102 9.1718 23.5157 8.95081C23.258 8.57654 22.9261 8.24693 22.5198 8.03628C22.2457 7.93989 21.9683 7.85385 21.681 7.80871C21.2795 7.77674 20.9047 7.94742 20.5206 8.0344C20.3292 8.1402 20.151 8.26997 19.9493 8.35649C19.756 8.52717 19.5219 8.64895 19.3559 8.85019C19.0545 9.13795 18.8509 9.50564 18.6102 9.84136C18.5373 10.0144 18.4658 10.187 18.3619 10.3449C18.3041 10.5796 18.2542 10.8156 18.1616 11.0404C18.0845 11.1894 18.1179 11.3662 18.0535 11.52C17.9336 11.9492 18.0859 12.4035 17.9928 12.8346C17.9825 12.9714 17.8315 12.9964 17.7398 13.066C17.5546 13.1525 17.3707 13.0453 17.2034 12.9686C17.1686 12.837 17.0712 12.7255 17.0764 12.5849C17.0529 12.2389 17.0534 11.8909 17.0759 11.5453C17.0731 11.3681 17.185 11.2115 17.1653 11.0324C17.1502 10.8617 17.1812 10.6943 17.2245 10.5302C17.2457 10.5208 17.2875 10.5015 17.3087 10.4921C17.3063 10.4277 17.3049 10.3633 17.3035 10.2989C17.453 10.288 17.3806 10.1188 17.4239 10.0214C17.5099 9.7666 17.6834 9.55219 17.7864 9.3044C18.1828 8.60287 18.7395 7.99115 19.4043 7.53553C19.6869 7.40481 19.9103 7.14338 20.245 7.14386C20.2888 6.88713 20.0687 6.70798 19.9512 6.50815C19.8675 6.30221 19.7288 6.12588 19.6413 5.92182C19.5374 5.7596 19.3921 5.61713 19.339 5.42623C19.3108 5.29552 19.1796 5.22734 19.1368 5.10415C19.055 4.89961 18.9144 4.72611 18.8274 4.5244C18.7 4.34761 18.5867 4.16141 18.4945 3.9644C18.4056 3.85813 18.3351 3.73964 18.2857 3.61081C18.2063 3.41521 18.0332 3.27838 17.9637 3.07855C17.8202 2.83311 17.7008 2.57497 17.5254 2.34975C17.4248 2.23173 17.4182 2.06105 17.3035 1.9529C17.2198 1.86263 17.1817 1.74461 17.1446 1.63035C17.051 1.61765 16.948 1.59273 16.862 1.64728C16.6767 1.85557 16.5912 2.12641 16.4304 2.35116C16.3575 2.54394 16.2216 2.70004 16.105 2.86555C16.0438 3.09783 15.8614 3.26616 15.7777 3.48809C15.6818 3.65548 15.537 3.81676 15.545 4.02129C15.5826 4.21548 15.6113 4.41296 15.679 4.6001C15.7777 5.03456 15.6574 5.47325 15.5483 5.89173C15.4392 6.07933 15.3136 6.25801 15.2215 6.45549C15.0155 6.71927 14.7677 6.95155 14.4828 7.12928C14.132 7.30466 13.7742 7.48804 13.3764 7.53082C13.3562 7.74947 13.1601 7.88347 13.0906 8.08236C13.0346 8.24834 12.9095 8.37529 12.8197 8.52247C12.6486 8.85865 12.4605 9.1845 12.2517 9.49953C12.1901 9.66786 12.0698 9.80187 11.9823 9.95609C12.0227 10.1799 11.8032 10.3026 11.7383 10.4945C11.7134 10.5739 11.6306 10.6181 11.6156 10.7018C11.5173 10.9454 11.2812 11.1029 11.1867 11.3507C11.1289 11.5289 10.9916 11.6601 10.8943 11.8152C10.725 12.1674 10.5228 12.5041 10.3014 12.8271C10.2412 12.9682 10.3197 13.1238 10.3225 13.271C10.639 13.31 10.9878 13.2658 11.2676 13.4463C11.3725 13.507 11.4872 13.5446 11.5996 13.5879C11.9311 13.7985 12.1779 14.1093 12.3994 14.4305C12.5682 14.6858 12.6274 14.9933 12.7205 15.281C12.783 15.5072 12.7121 15.7527 12.7915 15.9718C13.1376 16.0677 13.3722 16.3625 13.6087 16.6145C13.707 16.7814 13.8504 16.9239 13.9082 17.1125C13.9604 17.2803 14.0878 17.4181 14.1151 17.5944C14.2035 18.1695 14.2021 18.7577 14.1193 19.3332C14.1024 19.4822 13.9755 19.597 14.0121 19.7554C13.8645 19.8015 13.8786 20.0023 13.8706 20.1311C13.7719 20.1433 13.7808 20.2383 13.7606 20.3126C13.7117 20.362 13.6731 20.4236 13.6148 20.4626C13.4235 20.558 13.3083 20.7461 13.1446 20.8768C12.9363 21.0391 12.7388 21.2285 12.4779 21.3005C12.264 21.4331 11.9992 21.4857 11.8286 21.6799C11.7228 21.7937 11.6057 21.8972 11.5088 22.0189C11.395 22.1332 11.4068 22.3095 11.3207 22.4407C11.254 22.6518 11.1877 22.8644 11.1505 23.0835C11.0532 23.2988 10.851 23.4408 10.6691 23.5819C10.5844 23.6406 10.5054 23.721 10.3978 23.7323C10.1429 23.7836 9.88195 23.7939 9.62569 23.7502C9.42868 23.7446 9.29373 23.5828 9.14891 23.4709C8.91852 23.3233 8.81225 23.0524 8.60584 22.8799C8.41494 22.7562 8.23156 22.6062 7.99318 22.5949C7.57282 22.4116 7.09839 22.5893 6.6644 22.4661C6.45752 22.3753 6.21161 22.4134 6.01977 22.2841C5.70333 22.1182 5.40616 21.9244 5.11605 21.7171C5.07374 21.9531 4.8518 22.0876 4.80055 22.3175C4.74178 22.467 4.62094 22.5789 4.5363 22.712C4.4385 22.9358 4.29133 23.1342 4.19917 23.3609C4.09197 23.4573 4.03178 23.5837 3.99558 23.7215C3.87474 23.8475 3.71628 23.9895 3.52821 23.9702C3.36035 23.9655 3.17838 23.8743 3.11302 23.7135C3.03309 23.4502 3.09657 23.1582 3.26255 22.9415C3.39655 22.7708 3.48166 22.5705 3.60579 22.3932C3.69418 22.2804 3.69559 22.1214 3.80139 22.0199C3.92646 21.8816 4.01627 21.7218 4.07269 21.545C4.23303 21.3729 4.29274 21.1416 4.42863 20.9535C4.52925 20.8326 4.40136 20.7005 4.34917 20.591C4.25136 20.4504 4.26312 20.274 4.21187 20.1179C4.10137 19.896 4.12817 19.6402 4.11736 19.4C4.1277 19.1597 4.09902 18.902 4.21422 18.6815C4.26265 18.5339 4.25748 18.3679 4.34211 18.2329C4.42722 18.0839 4.51091 17.9334 4.59743 17.7848C4.62799 17.711 4.55981 17.6574 4.53019 17.5982C4.35387 17.12 4.22221 16.6056 4.31672 16.0945C4.38255 15.8542 4.44414 15.6107 4.54383 15.3821C4.74319 15.1292 4.88002 14.8146 5.16872 14.6472C5.33281 14.5579 5.44848 14.3985 5.62762 14.3331C5.55757 13.8352 5.55004 13.3203 5.66101 12.828C5.86978 12.402 6.07901 11.9525 6.45799 11.6502C6.62585 11.5745 6.74434 11.4165 6.9263 11.3718C7.15247 11.29 7.37158 11.1711 7.61655 11.1626C7.87845 11.1494 8.14458 11.1405 8.40318 11.1904C8.59173 11.2411 8.76947 11.3258 8.95331 11.3911C9.10848 11.4428 9.2232 11.567 9.36755 11.6408C9.45172 11.677 9.48463 11.7701 9.54576 11.8326C9.61347 11.8688 9.69199 11.8632 9.76628 11.8707C9.79167 11.7137 9.8937 11.5942 9.98304 11.4696C10.054 11.3229 10.11 11.1673 10.2167 11.0408C10.4293 10.6318 10.7095 10.2603 10.8952 9.83713C10.9893 9.69889 11.1153 9.57899 11.1703 9.41772C11.2084 9.30534 11.2756 9.20754 11.3447 9.11256C11.5591 8.7049 11.8356 8.33204 12.0242 7.91074C12.1464 7.74523 12.2766 7.56797 12.3067 7.35967C12.1229 7.31736 11.963 7.21391 11.7923 7.13915C11.6903 7.04888 11.5756 6.97694 11.4538 6.91722C11.3391 6.73808 11.167 6.6083 11.049 6.43104C10.8237 6.23544 10.8002 5.92135 10.6559 5.67309C10.5506 5.23533 10.5468 4.76655 10.6507 4.32692C10.7358 4.12708 10.8219 3.92678 10.8797 3.7166C11.1519 3.30518 11.3212 2.83264 11.6353 2.44849C11.8154 2.20352 11.9367 1.91294 12.1558 1.69759C12.294 1.40231 12.5447 1.16909 12.8174 0.995116C13.067 0.924117 13.3553 0.925527 13.5786 1.0727C13.8913 1.28288 14.0629 1.62988 14.2759 1.92892C14.3798 2.00698 14.4485 2.11371 14.4936 2.23455C14.6511 2.45648 14.7861 2.6944 14.9568 2.90787C15.0343 2.71086 15.2008 2.56604 15.2718 2.36667C15.3597 2.15227 15.5422 1.99522 15.6235 1.77846C15.7843 1.48929 15.947 1.19965 16.1374 0.929759C16.2663 0.839011 16.4012 0.754847 16.5277 0.658927ZM12.5343 2.87496C12.4398 3.07056 12.2541 3.20926 12.1864 3.41991C12.1389 3.56473 12.0082 3.66253 11.9635 3.80782C11.9122 3.97756 11.774 4.10781 11.7378 4.28225C11.6922 4.49995 11.5403 4.68944 11.537 4.91654C11.5088 5.22687 11.6814 5.50146 11.7867 5.7817C11.8991 5.8889 11.9691 6.03514 12.0999 6.12306C12.2395 6.2439 12.3829 6.37885 12.5743 6.40565C12.7144 6.42022 12.8305 6.51755 12.9735 6.51473C13.1484 6.5185 13.3355 6.5406 13.4982 6.4616C13.6148 6.40988 13.7427 6.39672 13.8668 6.37226C14.0563 6.20158 14.2693 6.053 14.4292 5.85223C14.5087 5.7107 14.5872 5.56682 14.6511 5.4173C14.7165 5.13847 14.732 4.83755 14.6497 4.5606C14.5519 4.36782 14.4767 4.16564 14.4071 3.96158C14.2849 3.7909 14.1513 3.62351 14.0944 3.41709C13.8518 3.10864 13.7013 2.73484 13.4305 2.44708C13.3304 2.31119 13.2598 2.1518 13.1206 2.04741C12.9377 2.33141 12.6965 2.57591 12.5343 2.87496ZM22.9614 2.79972C22.7662 2.84909 22.7159 3.07432 22.5462 3.1613C22.5184 3.31506 22.4794 3.47963 22.5316 3.63197C22.7164 3.91738 22.9548 4.19949 22.9816 4.5512C23.0206 4.85824 23.0088 5.17233 22.9378 5.47372C22.8927 5.61243 22.8048 5.73327 22.7606 5.87245C22.6797 6.25378 22.3708 6.55611 22.375 6.96095C22.6618 6.95343 22.8762 7.16454 23.1414 7.23225C23.2162 7.27739 23.2543 7.17489 23.2896 7.12928C23.3643 6.96095 23.4753 6.8072 23.5228 6.62664C23.5778 6.36098 23.7475 6.13764 23.8082 5.87292C23.9699 5.60632 24.1533 5.34301 24.4091 5.15822C24.5384 5.04349 24.7194 5.03315 24.8675 4.95322C25.1407 4.84789 25.4854 4.8446 25.665 4.57847C25.7383 4.37206 25.7299 4.14213 25.6852 3.93054C25.554 3.69262 25.2968 3.51207 25.0161 3.54169C24.8685 3.52523 24.7453 3.60987 24.6174 3.66629C24.4622 3.70062 24.3 3.69545 24.1448 3.66723C24.0268 3.5826 23.9323 3.45659 23.8923 3.31553C23.8336 3.10159 23.6765 2.9295 23.5011 2.80066C23.3243 2.76916 23.1372 2.75882 22.9614 2.79972ZM7.02881 12.4613C6.95263 12.5737 6.86659 12.6785 6.78101 12.7843C6.64607 13.0754 6.51817 13.3862 6.54639 13.7139C6.52805 13.9871 6.67616 14.2269 6.74622 14.4812C6.76362 14.651 6.80264 14.8762 6.64089 14.99C6.46974 15.1729 6.21208 15.2025 5.98638 15.2754C5.88059 15.3582 5.77244 15.4376 5.66336 15.5161C5.60035 15.5956 5.54299 15.6793 5.48186 15.7606C5.35961 15.913 5.38783 16.1236 5.31918 16.2981C5.27028 16.4184 5.27028 16.5586 5.31871 16.6789C5.38359 16.8567 5.36432 17.0598 5.46823 17.2239C5.55616 17.3744 5.64079 17.5272 5.72778 17.679C5.80818 17.9442 5.59565 18.161 5.43673 18.3439C5.30272 18.5785 5.16025 18.815 5.10101 19.0812C5.08784 19.3083 5.08126 19.5382 5.10853 19.7644C5.23407 20.1598 5.40757 20.5505 5.69157 20.8585C5.77433 20.9309 5.87354 20.9845 5.94642 21.0691C6.10675 21.26 6.36442 21.308 6.56754 21.4401C7.03163 21.5732 7.52251 21.4495 7.99412 21.529C8.30397 21.5897 8.58186 21.7462 8.87056 21.8661C9.06804 22.0044 9.28856 22.1106 9.43573 22.309C9.44514 22.2192 9.43902 22.1285 9.39624 22.0476C9.33511 21.8182 9.25236 21.592 9.2406 21.3522C9.23214 21.0809 9.02196 20.8881 8.87855 20.6789C8.74972 20.4894 8.5339 20.3977 8.36181 20.2566C8.21417 20.1212 8.00446 20.1151 7.82814 20.038C7.64805 20.0079 7.47925 19.9275 7.29494 19.9228C7.04902 19.8937 6.79371 19.9393 6.55391 19.864C6.39357 19.7206 6.2591 19.5025 6.32304 19.2801C6.36254 19.1954 6.40674 19.1131 6.45329 19.0327C6.69779 18.8766 6.99213 18.8776 7.26954 18.9171C7.52815 18.9984 7.80651 18.9725 8.06841 19.0407C8.28564 19.1418 8.50004 19.25 8.72668 19.3294C8.69471 19.06 8.67308 18.7859 8.57998 18.5292C8.54189 18.2616 8.44691 18.0054 8.2941 17.7825C8.18501 17.6696 8.04349 17.5972 7.91559 17.5088C7.75338 17.3781 7.53285 17.4082 7.3396 17.3734C7.15388 17.3382 6.93477 17.42 6.77866 17.2845C6.65923 17.1712 6.4989 17.048 6.52617 16.8623C6.49043 16.6051 6.72224 16.4152 6.93289 16.3206C7.08946 16.3033 7.25497 16.299 7.40496 16.355C7.5526 16.3992 7.71717 16.3686 7.85682 16.4424C7.93628 16.4843 8.02703 16.4932 8.11401 16.512C8.09803 16.2219 7.97907 15.9525 7.90337 15.6755C7.85917 15.4292 7.82673 15.1781 7.88691 14.9312C8.0275 14.8715 8.1159 14.7004 8.28093 14.7102C8.47654 14.6881 8.65145 14.8179 8.75442 14.975C8.85504 15.1988 8.91053 15.4409 8.92228 15.6864C8.93027 15.8829 9.045 16.0536 9.04641 16.2511C9.09625 16.2449 9.14609 16.2393 9.1964 16.2346C9.23073 16.1758 9.2453 16.0964 9.31442 16.0672C9.52695 15.952 9.70092 15.7672 9.93696 15.6967C10.0456 15.6685 10.15 15.5603 10.267 15.6191C10.3648 15.6671 10.4702 15.6976 10.5675 15.747C10.6197 15.8509 10.6653 15.9591 10.7076 16.0677C10.7302 16.2059 10.6305 16.3178 10.5816 16.4382C10.4824 16.6136 10.2459 16.5858 10.1133 16.7222C9.90546 16.8717 9.70892 17.0429 9.57585 17.2648C9.43385 17.466 9.42868 17.7303 9.46818 17.9645C9.51237 18.3317 9.66237 18.6754 9.71362 19.0412C9.9426 18.9382 10.0385 18.681 10.2473 18.5498C10.4293 18.4346 10.5689 18.2607 10.7673 18.1718C10.9742 18.0373 11.1985 17.9287 11.4298 17.8455C11.6231 17.7947 11.7646 17.9438 11.9249 18.0181C11.9847 18.2456 12.0467 18.556 11.8309 18.7215C11.6259 18.8315 11.4167 18.9349 11.2126 19.0473C11.104 19.1418 10.9902 19.2307 10.8778 19.321C10.6634 19.5006 10.497 19.7272 10.3338 19.9515C10.2887 20.0427 10.2703 20.1438 10.2369 20.2397C10.1029 20.511 10.1048 20.8392 10.196 21.1232C10.3338 21.3729 10.2064 21.7199 10.4429 21.9183C10.5191 21.8069 10.5839 21.6893 10.6281 21.5614C10.8383 21.2323 11.1153 20.9427 11.4402 20.7245C11.5427 20.6761 11.6433 20.6229 11.7355 20.5562C11.8525 20.464 12.011 20.4635 12.1394 20.3935C12.358 20.2233 12.5973 20.0705 12.7633 19.8433C12.8315 19.7272 12.9124 19.6191 12.9956 19.5137C13.1122 19.3722 13.0859 19.1761 13.1498 19.0135C13.2387 18.8437 13.2184 18.6453 13.225 18.4605C13.218 18.3021 13.2321 18.1337 13.1597 17.988C13.091 17.8408 13.1145 17.6626 13.0205 17.5262C12.8446 17.2949 12.689 17.0419 12.4483 16.8736C12.2461 16.7908 12.0538 16.6836 11.8709 16.5652C11.7162 16.4702 11.7284 16.2694 11.7359 16.1109C11.767 15.8312 11.7679 15.5453 11.7035 15.2702C11.5742 14.9025 11.3113 14.5936 10.9921 14.3787C10.6465 14.264 10.275 14.2866 9.91956 14.3345C9.74042 14.3557 9.60735 14.2142 9.49263 14.099C9.42821 13.9669 9.45219 13.8084 9.43056 13.6655C9.37367 13.4252 9.29326 13.191 9.21944 12.9555C9.16913 12.8144 9.01914 12.7462 8.94203 12.623C8.89595 12.5605 8.86727 12.4782 8.79156 12.4453C8.64957 12.372 8.52167 12.2723 8.37497 12.2102C8.11825 12.1378 7.84459 12.135 7.58223 12.1778C7.365 12.1961 7.21782 12.3729 7.02881 12.4613ZM26.863 16.2464C26.5753 16.6418 26.1507 16.9154 25.8629 17.3104C26.3726 17.3081 26.8818 17.2954 27.3911 17.2709C27.3572 17.0137 27.2321 16.7814 27.0995 16.5628C27.0398 16.4377 27.0403 16.2529 26.863 16.2464ZM25.688 18.334C25.8032 18.4784 25.9772 18.5607 26.0755 18.7196C26.1648 18.7859 26.2424 18.8639 26.3082 18.9537C26.4474 19.0318 26.5475 19.1545 26.6373 19.2833C26.745 19.3586 26.8527 19.4409 26.895 19.572C26.9514 19.4916 27.0158 19.4159 27.0539 19.3252C27.1414 19.1183 27.2674 18.9302 27.3455 18.7196C27.3925 18.5607 27.392 18.3937 27.4019 18.2296C27.2528 18.2334 27.1038 18.2334 26.9552 18.2428C26.5424 18.3472 26.1098 18.2865 25.688 18.334ZM24.9503 19.5499C24.9263 19.9463 24.9315 20.3436 24.9145 20.7405C25.0862 20.7203 25.2587 20.7015 25.4294 20.67C25.6067 20.6008 25.7604 20.4776 25.9509 20.4391C26.0435 20.3911 26.1986 20.3295 26.1653 20.2012C25.8827 19.943 25.618 19.668 25.3546 19.391C25.2333 19.2989 25.1097 19.2029 25.0584 19.0525C24.9728 19.2058 25.0109 19.3882 24.9503 19.5499ZM23.7198 19.4206C23.5124 19.6351 23.2994 19.8438 23.0883 20.0549C23.0244 20.1236 22.9016 20.1758 22.9364 20.29C23.0737 20.4659 23.3196 20.4673 23.4964 20.5886C23.6304 20.6859 23.7997 20.6949 23.9596 20.6986C23.9506 20.1955 23.9864 19.6934 23.9911 19.1912C23.8928 19.2575 23.7969 19.3299 23.7198 19.4206ZM16.2169 23.1183C16.0575 23.1723 15.8854 23.1742 15.7251 23.2255C15.5967 23.2875 15.4834 23.3825 15.3409 23.4135C15.1679 23.4483 15.0419 23.5772 14.9032 23.6754C14.1537 24.1127 13.5904 24.8058 13.1291 25.5261C13.0445 25.8115 12.8075 26.0264 12.7548 26.3231C12.6965 26.553 12.5715 26.7646 12.5503 27.0044C12.4817 27.5705 12.4812 28.1456 12.5541 28.7117C12.5766 28.9256 12.6904 29.1142 12.7464 29.3192C12.7915 29.5919 13.0045 29.7884 13.1159 30.0339C13.2631 30.2412 13.3934 30.4782 13.6144 30.6174C13.7455 30.8168 13.9609 30.9254 14.1377 31.0772C14.2261 31.1388 14.3403 31.1492 14.4278 31.2145C14.5895 31.3161 14.7452 31.4506 14.9459 31.459C15.158 31.4732 15.3498 31.5799 15.5633 31.5822C15.9 31.5968 16.2418 31.6119 16.5752 31.5521C16.7449 31.4811 16.9311 31.4755 17.1098 31.4384C17.3265 31.3697 17.4991 31.2065 17.7145 31.1332C17.8884 31.0725 18.0088 30.9221 18.1757 30.8468C18.447 30.584 18.7418 30.3395 18.9534 30.024C19.1067 29.8684 19.1575 29.646 19.3061 29.4861C19.3775 29.2275 19.5092 28.9919 19.5948 28.738C19.7137 28.4865 19.6803 28.1973 19.7368 27.9307C19.8111 27.7285 19.7744 27.5094 19.7838 27.2997C19.7744 27.0989 19.8073 26.8902 19.7372 26.6974C19.6916 26.466 19.6897 26.2277 19.6455 25.9958C19.5313 25.6832 19.4123 25.3705 19.3169 25.0508C19.2421 24.8961 19.142 24.7541 19.0808 24.5923C18.9008 24.2947 18.6925 24.0112 18.4362 23.7742C18.2834 23.6421 18.14 23.4902 17.951 23.4102C17.7897 23.343 17.6627 23.1982 17.4798 23.1874C17.2772 23.1653 17.0914 23.0599 16.8841 23.0788C16.6622 23.0872 16.4322 23.052 16.2169 23.1183Z" fill="black"/>
<path d="M15.5842 25.6787C15.9665 25.6392 16.3567 25.6392 16.7343 25.713C16.9238 25.7751 17.0968 25.8813 17.2783 25.9641C17.4161 26.0765 17.5496 26.1954 17.6996 26.2927C17.765 26.3971 17.8548 26.4818 17.9347 26.5749C18.0222 26.7352 18.1162 26.8922 18.2182 27.0446C18.3443 27.2167 18.3043 27.4447 18.3729 27.6384C18.4482 27.8138 18.4237 28.009 18.4298 28.1947C18.4242 28.3348 18.4378 28.4824 18.3828 28.615C18.3165 28.789 18.3358 28.9832 18.269 29.1567C18.1679 29.3504 18.0471 29.5319 17.9422 29.7233C17.7814 29.9353 17.5952 30.1276 17.3954 30.303C17.2355 30.3726 17.1246 30.5236 16.9539 30.5706C16.7131 30.6491 16.487 30.7887 16.227 30.793C15.9336 30.8071 15.6364 30.816 15.3468 30.7591C15.1502 30.6933 14.9664 30.595 14.7684 30.5339C14.5653 30.383 14.3391 30.2555 14.1788 30.0552C14.0951 29.9471 14.0081 29.8418 13.923 29.736C13.837 29.5296 13.6837 29.3499 13.6559 29.1224C13.6381 28.9644 13.5393 28.829 13.5403 28.6677C13.5243 28.3705 13.5083 28.0668 13.5661 27.7734C13.6663 27.5877 13.6381 27.3615 13.7504 27.1819C13.8059 27.0789 13.8703 26.9797 13.9047 26.8673C13.9319 26.7488 14.0495 26.6924 14.1064 26.5918C14.23 26.375 14.4539 26.2495 14.6391 26.0924C14.7078 26.037 14.7661 25.9631 14.8531 25.9349C15.0971 25.8479 15.3143 25.6768 15.5842 25.6787ZM15.8292 26.6247C15.6909 26.6849 15.5405 26.7075 15.3985 26.7559C15.1502 26.9247 14.9405 27.1438 14.7463 27.3709C14.6485 27.5994 14.5564 27.8322 14.5037 28.0757C14.4905 28.237 14.4915 28.3997 14.5056 28.5605C14.5592 28.7697 14.6396 28.9719 14.7336 29.167C14.9062 29.4021 15.1262 29.601 15.3863 29.7341C15.698 29.8216 16.0309 29.8239 16.3464 29.7576C16.5114 29.712 16.6374 29.5865 16.7912 29.5159C16.8881 29.4727 16.937 29.3735 17.0028 29.2968C17.063 29.2202 17.1551 29.1666 17.1838 29.0688C17.2435 28.9089 17.338 28.7636 17.3949 28.6037C17.4485 28.2892 17.4537 27.9619 17.3865 27.6497C17.2628 27.4428 17.2026 27.1889 17.0089 27.0314C16.8523 26.8791 16.6849 26.715 16.4569 26.6877C16.2594 26.6068 16.0389 26.573 15.8292 26.6247Z" fill="black"/>
<path d="M11.7148 9.51953H18.1001" stroke="black"/>
<path d="M3.34961 23.2812H14.5788" stroke="black"/>
<path d="M18.7617 23.2812H30.6515" stroke="black"/>
<path d="M12.5977 16.457L25.5883 16.457" stroke="black"/>
</svg>
