<svg width="72" height="50" viewBox="0 0 72 50" fill="none" xmlns="http://www.w3.org/2000/svg">
<path d="M52.1245 48.5H1.625L26.1245 16.5L43.1245 17L49.6245 16.5L70.6245 44.5L52.1245 48.5Z" fill="white"/>
<path d="M26.625 16.5H42.125L38.125 2L33.125 7.5L26.625 16.5Z" fill="#48FDBC"/>
<path d="M42.625 16.5H49.625L39.625 3.5L39.125 6L42.625 16.5Z" fill="#48FDBC"/>
<path d="M38.024 1L42.3834 16.6387M38.024 1L26.1914 16.6387M38.024 1L49.7482 16.6387M51.4135 49L70.875 44.8194L64.2584 35.9935M51.4135 49H1.125L9.53237 38.1613M51.4135 49L48.144 38.1613M9.53237 38.1613H48.144M9.53237 38.1613L17.4727 27.9419M48.144 38.1613L45.3415 27.9419M48.144 38.1613L64.2584 35.9935M45.3415 27.9419H17.4727M45.3415 27.9419L42.3834 16.6387M45.3415 27.9419L57.6417 27.1677M17.4727 27.9419L26.1914 16.6387M42.3834 16.6387H26.1914M42.3834 16.6387H49.7482M64.2584 35.9935L57.6417 27.1677M57.6417 27.1677L49.7482 16.6387" stroke="black" stroke-width="2" stroke-linejoin="round"/>
</svg>
