<svg width="72" height="50" viewBox="0 0 72 50" fill="none" xmlns="http://www.w3.org/2000/svg">
<path d="M18.125 28H45.125L42.625 17L26.625 16.5L18.125 28Z" fill="#48FDBC"/>
<path d="M37.625 1L49.625 16.5H43.625H26.125L37.625 1Z" fill="white"/>
<path d="M51.125 49.5L1.125 49L18.125 28H45.125L56.625 27L70.625 45L51.125 49.5Z" fill="white"/>
<path d="M46.125 27.5L57.125 27L50.125 17H43.125L46.125 27.5Z" fill="#48FDBC"/>
<path d="M38.024 1L42.3834 16.6387M38.024 1L26.1914 16.6387M38.024 1L49.7482 16.6387M51.4135 49L70.875 44.8194L64.2584 35.9935M51.4135 49H1.125L9.53237 38.1613M51.4135 49L48.144 38.1613M9.53237 38.1613H48.144M9.53237 38.1613L17.4727 27.9419M48.144 38.1613L45.3415 27.9419M48.144 38.1613L64.2584 35.9935M45.3415 27.9419H17.4727M45.3415 27.9419L42.3834 16.6387M45.3415 27.9419L57.6417 27.1677M17.4727 27.9419L26.1914 16.6387M42.3834 16.6387H26.1914M42.3834 16.6387H49.7482M64.2584 35.9935L57.6417 27.1677M57.6417 27.1677L49.7482 16.6387" stroke="black" stroke-width="2" stroke-linejoin="round"/>
</svg>
