<svg width="28" height="27" viewBox="0 0 28 27" fill="none" xmlns="http://www.w3.org/2000/svg">
<path fill-rule="evenodd" clip-rule="evenodd" d="M14.0008 2.5904C17.5631 2.5904 17.985 2.60602 19.386 2.66852C20.688 2.72581 21.3911 2.94455 21.8598 3.12684C22.4796 3.36641 22.9275 3.65807 23.391 4.12159C23.8598 4.59032 24.1462 5.03301 24.3858 5.65278C24.5681 6.12151 24.7868 6.82982 24.8441 8.12664C24.9066 9.53284 24.9222 9.9547 24.9222 13.5118C24.9222 17.0742 24.9066 17.4961 24.8441 18.8971C24.7868 20.1991 24.5681 20.9022 24.3858 21.3709C24.1462 21.9907 23.8546 22.4386 23.391 22.9021C22.9223 23.3708 22.4796 23.6573 21.8598 23.8969C21.3911 24.0791 20.6828 24.2979 19.386 24.3552C17.9798 24.4177 17.5579 24.4333 14.0008 24.4333C10.4384 24.4333 10.0166 24.4177 8.61558 24.3552C7.31354 24.2979 6.61045 24.0791 6.14171 23.8969C5.52195 23.6573 5.07405 23.3656 4.61052 22.9021C4.14179 22.4334 3.85534 21.9907 3.61577 21.3709C3.43349 20.9022 3.21474 20.1939 3.15745 18.8971C3.09496 17.4909 3.07933 17.069 3.07933 13.5118C3.07933 9.94949 3.09496 9.52763 3.15745 8.12664C3.21474 6.82461 3.43349 6.12151 3.61577 5.65278C3.85534 5.03301 4.147 4.58511 4.61052 4.12159C5.07925 3.65286 5.52195 3.36641 6.14171 3.12684C6.61045 2.94455 7.31875 2.72581 8.61558 2.66852C10.0166 2.60602 10.4384 2.5904 14.0008 2.5904ZM14.0008 0.189453C10.3811 0.189453 9.92802 0.205078 8.5062 0.267575C7.08959 0.330073 6.11567 0.55923 5.27196 0.887342C4.39178 1.23108 3.64702 1.68419 2.90746 2.42895C2.1627 3.1685 1.70959 3.91327 1.36586 4.78823C1.03775 5.63716 0.808588 6.60587 0.746091 8.02248C0.683593 9.44951 0.667969 9.90261 0.667969 13.5223C0.667969 17.1419 0.683593 17.595 0.746091 19.0168C0.808588 20.4335 1.03775 21.4074 1.36586 22.2511C1.70959 23.1313 2.1627 23.876 2.90746 24.6156C3.64702 25.3551 4.39178 25.8135 5.26675 26.152C6.11567 26.4801 7.08438 26.7092 8.501 26.7717C9.92282 26.8342 10.3759 26.8499 13.9956 26.8499C17.6152 26.8499 18.0683 26.8342 19.4902 26.7717C20.9068 26.7092 21.8807 26.4801 22.7244 26.152C23.5994 25.8135 24.3441 25.3551 25.0837 24.6156C25.8232 23.876 26.2816 23.1313 26.6201 22.2563C26.9482 21.4074 27.1774 20.4387 27.2398 19.0221C27.3023 17.6002 27.318 17.1471 27.318 13.5275C27.318 9.90782 27.3023 9.45472 27.2398 8.0329C27.1774 6.61629 26.9482 5.64236 26.6201 4.79865C26.292 3.91327 25.8389 3.1685 25.0941 2.42895C24.3545 1.68939 23.6098 1.23108 22.7348 0.892551C21.8859 0.564438 20.9172 0.335281 19.5006 0.272783C18.0735 0.205078 17.6204 0.189453 14.0008 0.189453ZM14.0008 6.67357C10.2197 6.67357 7.15209 9.74116 7.15209 13.5223C7.15209 17.3034 10.2197 20.371 14.0008 20.371C17.7819 20.371 20.8495 17.3034 20.8495 13.5223C20.8495 9.74116 17.7819 6.67357 14.0008 6.67357ZM14.0008 17.9648C11.5478 17.9648 9.55825 15.9753 9.55825 13.5223C9.55825 11.0692 11.5478 9.07973 14.0008 9.07973C16.4538 9.07973 18.4433 11.0692 18.4433 13.5223C18.4433 15.9753 16.4538 17.9648 14.0008 17.9648ZM21.121 8.00183C22.0012 8.00183 22.7199 7.28832 22.7199 6.40293C22.7199 5.52276 22.0012 4.80404 21.121 4.80404C20.2409 4.80404 19.5221 5.51755 19.5221 6.40293C19.5221 7.28311 20.2357 8.00183 21.121 8.00183Z" fill="white"/>
</svg>
