<svg width="32" height="33" viewBox="0 0 32 33" fill="none" xmlns="http://www.w3.org/2000/svg">
<path d="M27.3661 3.18945H4.63649C4.1144 3.18945 3.6137 3.39685 3.24453 3.76602C2.87537 4.13519 2.66797 4.63589 2.66797 5.15797V27.8876C2.66797 28.4097 2.87537 28.9104 3.24453 29.2796C3.6137 29.6487 4.1144 29.8561 4.63649 29.8561H27.3661C27.8882 29.8561 28.3889 29.6487 28.7581 29.2796C29.1272 28.9104 29.3346 28.4097 29.3346 27.8876V5.15797C29.3346 4.63589 29.1272 4.13519 28.7581 3.76602C28.3889 3.39685 27.8882 3.18945 27.3661 3.18945ZM10.6161 25.9061H6.60686V13.1709H10.6161V25.9061ZM8.60871 11.4061C8.15393 11.4036 7.7101 11.2663 7.33323 11.0118C6.95636 10.7572 6.66335 10.3967 6.49117 9.97577C6.31899 9.55484 6.27536 9.09233 6.36578 8.64663C6.45621 8.20092 6.67664 7.79198 6.99925 7.47143C7.32187 7.15088 7.73221 6.93308 8.17849 6.84552C8.62477 6.75796 9.08698 6.80456 9.5068 6.97944C9.92663 7.15432 10.2852 7.44964 10.5374 7.82813C10.7895 8.20663 10.9239 8.65133 10.9235 9.10612C10.9278 9.4106 10.8708 9.71283 10.7558 9.99479C10.6408 10.2768 10.4702 10.5327 10.2542 10.7473C10.0381 10.9619 9.78113 11.1309 9.49844 11.2441C9.21575 11.3573 8.91316 11.4124 8.60871 11.4061ZM25.3939 25.9172H21.3865V18.9598C21.3865 16.908 20.5143 16.2746 19.3883 16.2746C18.1995 16.2746 17.0328 17.1709 17.0328 19.0117V25.9172H13.0235V13.1802H16.8791V14.945H16.9309C17.318 14.1617 18.6735 12.8228 20.742 12.8228C22.9791 12.8228 25.3957 14.1506 25.3957 18.0395L25.3939 25.9172Z" fill="white"/>
</svg>
