<svg width="24" height="25" viewBox="0 0 24 25" fill="none" xmlns="http://www.w3.org/2000/svg">
<path d="M21.97 18.705C21.97 19.065 21.89 19.435 21.72 19.795C21.55 20.155 21.33 20.495 21.04 20.815C20.55 21.355 20.01 21.745 19.4 21.995C18.8 22.245 18.15 22.375 17.45 22.375C16.43 22.375 15.34 22.135 14.19 21.645C13.04 21.155 11.89 20.495 10.75 19.665C9.6 18.825 8.51 17.895 7.47 16.865C6.44 15.825 5.51 14.735 4.68 13.595C3.86 12.455 3.2 11.315 2.72 10.185C2.24 9.045 2 7.955 2 6.915C2 6.235 2.12 5.585 2.36 4.985C2.6 4.375 2.98 3.815 3.51 3.315C4.15 2.685 4.85 2.375 5.59 2.375C5.87 2.375 6.15 2.435 6.4 2.555C6.66 2.675 6.89 2.855 7.07 3.115L9.39 6.385C9.57 6.635 9.7 6.865 9.79 7.085C9.88 7.295 9.93 7.505 9.93 7.695C9.93 7.935 9.86 8.175 9.72 8.405C9.59 8.635 9.4 8.875 9.16 9.115L8.4 9.905C8.29 10.015 8.24 10.145 8.24 10.305C8.24 10.385 8.25 10.455 8.27 10.535C8.3 10.615 8.33 10.675 8.35 10.735C8.53 11.065 8.84 11.495 9.28 12.015C9.73 12.535 10.21 13.065 10.73 13.595C11.27 14.125 11.79 14.615 12.32 15.065C12.84 15.505 13.27 15.805 13.61 15.985C13.66 16.005 13.72 16.035 13.79 16.065C13.87 16.095 13.95 16.105 14.04 16.105C14.21 16.105 14.34 16.045 14.45 15.935L15.21 15.185C15.46 14.935 15.7 14.745 15.93 14.625C16.16 14.485 16.39 14.415 16.64 14.415C16.83 14.415 17.03 14.455 17.25 14.545C17.47 14.635 17.7 14.765 17.95 14.935L21.26 17.285C21.52 17.465 21.7 17.675 21.81 17.925C21.91 18.175 21.97 18.425 21.97 18.705Z" stroke="black" stroke-width="2" stroke-miterlimit="10"/>
</svg>
