<svg width="24" height="25" viewBox="0 0 24 25" fill="none" xmlns="http://www.w3.org/2000/svg">
<path d="M21.9301 7.04224L18.5601 20.5723C18.3201 21.5823 17.4201 22.2822 16.3801 22.2822H3.24013C1.73013 22.2822 0.650145 20.8022 1.10015 19.3522L5.31014 5.83228C5.60014 4.89228 6.47015 4.24219 7.45015 4.24219H19.7501C20.7001 4.24219 21.4901 4.82219 21.8201 5.62219C22.0101 6.05219 22.0501 6.54224 21.9301 7.04224Z" stroke="white" stroke-width="2" stroke-miterlimit="10"/>
<path d="M16 22.2812H20.78C22.07 22.2812 23.08 21.1912 22.99 19.9012L22 6.28125" stroke="white" stroke-width="2" stroke-miterlimit="10" stroke-linecap="round" stroke-linejoin="round"/>
<path d="M9.67969 6.6637L10.7197 2.34375" stroke="white" stroke-width="2" stroke-miterlimit="10" stroke-linecap="round" stroke-linejoin="round"/>
<path d="M16.3799 6.672L17.3199 2.33203" stroke="white" stroke-width="2" stroke-miterlimit="10" stroke-linecap="round" stroke-linejoin="round"/>
<path d="M7.7002 12.2812H15.7002" stroke="white" stroke-width="1.5" stroke-miterlimit="10" stroke-linecap="round" stroke-linejoin="round"/>
<path d="M6.7002 16.2812H14.7002" stroke="white" stroke-width="1.5" stroke-miterlimit="10" stroke-linecap="round" stroke-linejoin="round"/>
</svg>
