<svg width="32" height="34" viewBox="0 0 32 34" fill="none" xmlns="http://www.w3.org/2000/svg">
<path d="M5.70985 17.6217L6.21864 19.0592H6.2844L5.56669 20.7558L4.22262 21.0429L3.16528 20.4165L2.63086 19.8293L3.16528 17.4413L4.57484 16.6309L5.70985 17.6217Z" fill="white"/>
<path d="M6.78205 3.51974C7.45612 2.83334 8.43063 2.32811 9.35738 2.21718C10.033 2.16788 10.0496 2.2563 10.7206 2.35799C10.7938 3.18999 10.8293 4.18687 10.6914 5.01502C10.5704 5.7122 10.3154 6.4063 9.85474 6.95326C9.23613 7.64736 8.23366 8.36991 7.3177 8.40688C7.97944 7.98318 9.35507 7.13044 9.84194 6.50721C10.0946 6.22372 9.93223 6.02423 9.52933 6.01191C9.205 5.94488 9.12748 6.17677 8.94491 6.3786C8.46189 6.88165 7.79662 7.39741 7.17108 7.70787C6.92919 7.8111 6.48859 7.86194 6.24053 7.70787C6.22897 7.54378 6.36374 7.10117 6.43076 6.94555C6.78051 6.10894 7.36676 5.38479 8.05855 4.80548C8.34435 4.57051 8.10425 4.3352 7.75297 4.22427C7.45253 4.10255 7.38447 4.3871 7.17108 4.55658C6.68421 5.01803 6.16633 5.54118 5.82814 6.12126C5.82582 5.27617 6.20196 4.13449 6.78205 3.51974Z" fill="#48FDBC"/>
<path d="M11.7703 6.61285L12.2734 3.02086L11.7702 2.01891L9.16321 2.01891L7.0102 2.69508L5.41021 4.59117L5.81542 7.17225L6.82997 8.53426L8.71026 8.77273L11.7703 6.61285Z" fill="white"/>
<path d="M29.8717 6.7128C29.8805 5.75081 29.4398 4.7413 28.8629 4.00755C28.4201 3.49496 28.6498 3.03748 28.1035 2.63493C27.4634 3.17149 26.7335 3.85133 26.2454 4.53443C25.8379 5.11293 25.5274 5.78404 25.4664 6.49655C25.413 7.42477 25.4157 9.11595 26.0372 9.78978C25.8689 9.02225 25.4992 7.44656 25.5956 6.6616C25.6174 6.28247 25.8733 6.25624 26.1669 6.53242C26.4436 6.71436 26.3345 6.93314 26.3208 7.20496C26.3067 7.90221 26.4124 8.73733 26.6352 9.39917C26.7332 9.64321 27.0088 9.99072 27.2932 10.0572C27.4174 9.94932 27.6351 9.54105 27.6977 9.38362C28.042 8.54473 28.1395 7.61815 28.06 6.71934C28.024 6.3511 28.3602 6.35448 28.687 6.52444C28.9855 6.65082 28.8324 6.90015 28.8635 7.17088C28.8815 7.84144 28.8777 8.57756 28.7067 9.22688C29.3059 8.63094 29.8472 7.55768 29.8717 6.7128Z" fill="#48FDBC"/>
<path d="M19.0582 6.92124L18.1715 8.8796L16.3313 9.12037L15.7981 7.7823L16.5395 6.38667L16.1301 5.36674L15.9705 4.05541L16.6647 3.01499L17.4695 2.94558L18.9828 4.59763L19.0582 6.92124Z" fill="white"/>
<path d="M21.5344 15.765C20.8603 15.0786 19.8349 14.6763 18.9081 14.5654C18.2325 14.5161 18.2668 14.5015 17.5958 14.6032C17.5226 15.4352 17.4872 16.4321 17.6251 17.2602C17.746 17.9574 18.001 18.6515 18.4617 19.1985C19.0803 19.8926 20.7494 20.6151 21.6654 20.6521C21.0036 20.2284 18.9613 19.3757 18.4745 18.7524C18.2218 18.4689 18.3842 18.2695 18.7871 18.2571C19.1114 18.1901 19.1889 18.422 19.3715 18.6238C19.8545 19.1269 20.5198 19.6426 21.1453 19.9531C21.3872 20.0563 21.8278 20.1072 22.0759 19.9531C22.0874 19.789 21.9527 19.3464 21.8856 19.1908C21.5359 18.3542 20.9496 17.63 20.2579 17.0507C19.9721 16.8157 20.2122 16.5804 20.5634 16.4695C20.8639 16.3478 20.9319 16.6323 21.1453 16.8018C21.6322 17.2633 22.1501 17.7864 22.4883 18.3665C22.4906 17.5214 22.1144 16.3797 21.5344 15.765Z" fill="#48FDBC"/>
<path d="M7.93098 1.64529C9.3142 1.23784 10.7952 1.19176 12.2092 1.46582C12.4856 1.49007 12.6506 1.75766 12.674 2.01312C12.7961 2.86439 12.8527 3.73264 12.7589 4.58957C12.6659 5.78766 12.286 7.01242 11.463 7.91462C10.7629 8.64706 9.80329 9.1208 8.80085 9.25661C7.77981 9.41506 6.64397 9.22508 5.85575 8.51771C5.31492 8.0561 4.97457 7.38915 4.84603 6.69633C4.62533 5.32524 5.0538 3.86199 5.99399 2.83691C6.51381 2.26858 7.20744 1.89105 7.93098 1.64529ZM6.82829 3.50548C6.21954 4.1506 5.86788 5.03582 5.87031 5.92267C6.2252 5.31392 6.68277 4.765 7.1937 4.28075C7.41763 4.1029 7.6739 3.82561 7.98919 3.95334C8.35783 4.06976 8.46777 4.60817 8.16785 4.85474C7.44188 5.46267 6.82667 6.22259 6.45965 7.10054C6.38931 7.26384 6.40306 7.44412 6.41518 7.61632C6.6755 7.778 6.9827 7.65108 7.23654 7.54275C7.89298 7.21695 8.48233 6.76343 8.98921 6.23553C9.18081 6.02372 9.36108 5.68903 9.70143 5.75936C10.1242 5.7723 10.3045 6.34305 10.0394 6.64055C9.52843 7.29456 8.85905 7.8063 8.16462 8.25093C9.12583 8.21213 10.1032 7.83702 10.7524 7.10863C11.2358 6.53464 11.5034 5.80625 11.6303 5.07463C11.775 4.20557 11.7379 3.32358 11.6611 2.45048C10.9569 2.34377 10.2398 2.34781 9.53085 2.39955C8.55832 2.51596 7.53566 2.78517 6.82829 3.50548Z" fill="black"/>
<path d="M26.6375 1.57865C26.8598 1.39271 27.1807 1.17443 27.4637 1.37977C28.3764 2.00469 29.1864 2.78401 29.8421 3.6757C30.5414 4.63773 31.0377 5.82126 30.9084 7.03066C30.7572 8.28615 30.108 9.49717 29.0846 10.2547C28.5534 10.6508 27.8994 10.8771 27.2373 10.9022C26.171 10.9111 25.1686 10.3307 24.521 9.50525C23.5913 8.36133 23.1653 6.73559 23.6859 5.32165C23.8177 4.97565 23.901 4.53748 24.2526 4.34588C24.6043 4.18824 24.9705 4.48898 25.0012 4.84387C24.8597 5.30144 24.6188 5.72587 24.5477 6.20526C24.4175 7.24651 24.8444 8.30312 25.5566 9.05415C25.3602 8.28615 25.2834 7.48581 25.3497 6.69517C25.3618 6.49144 25.4475 6.28045 25.6326 6.17454C25.9422 5.95384 26.4685 6.2182 26.4127 6.61594C26.3658 7.49551 26.4111 8.40175 26.7264 9.23281C26.8064 9.45109 26.9002 9.692 27.1096 9.81569C27.3157 9.88764 27.458 9.66936 27.5397 9.51414C27.9213 8.69117 28.0239 7.75501 27.9681 6.85766C27.8849 6.58603 27.9908 6.26185 28.2632 6.14382C28.5955 5.97567 29.0005 6.25377 29.0256 6.60947C29.1104 7.4276 29.0272 8.25866 28.8299 9.05577C29.3376 8.51655 29.6966 7.8302 29.8186 7.09857C29.9666 6.29823 29.7038 5.489 29.3061 4.80022C28.7766 3.91014 28.0393 3.1575 27.2236 2.52612C26.9487 2.62556 26.7458 2.89072 26.513 3.07261C26.2405 3.29412 26.0223 3.71046 25.6132 3.64013C25.2163 3.59243 25.0368 3.05402 25.3068 2.76865C25.7118 2.33129 26.1686 1.94486 26.6375 1.57865Z" fill="black"/>
<path d="M16.7641 2.38636C17.3801 2.27641 18.0285 2.50924 18.4545 2.96115C19.1716 3.70247 19.6462 4.69279 19.706 5.72839C19.803 6.78096 19.5233 7.86586 18.9032 8.72522C18.5677 9.20946 18.1271 9.66946 17.5346 9.81255C16.8239 10.0147 16.0341 9.69533 15.5935 9.11811C15.0705 8.42772 15.136 7.37111 15.7229 6.73811C15.8959 6.55379 16.0511 6.32015 16.0212 6.05499C16.0107 5.84076 15.8732 5.66695 15.739 5.51173C15.2564 4.99434 15.1044 4.19319 15.3631 3.53432C15.5774 2.93285 16.1513 2.51086 16.7641 2.38636ZM16.4513 3.75098C16.1796 4.07273 16.2823 4.55779 16.5644 4.8375C17.1344 5.39774 17.2411 6.3436 16.8425 7.02995C16.6898 7.28299 16.4416 7.47378 16.3357 7.75511C16.2346 8.0227 16.3057 8.33394 16.5014 8.54009C16.7237 8.81819 17.14 8.83678 17.4489 8.71713C17.9145 8.38326 18.2177 7.8699 18.444 7.35332C18.9194 6.07278 18.5984 4.5206 17.575 3.59657C17.2427 3.32413 16.693 3.38961 16.4513 3.75098Z" fill="black"/>
<path d="M20.1069 9.86439L20.0092 11.8214L20.7918 12.5427L21.9571 13.0764L23.5138 12.9608L23.8789 11.9734L23.4428 10.8615L21.8419 9.77734L20.1069 9.86439Z" fill="white"/>
<path d="M1.35474 9.12071C1.80988 8.32684 2.88671 8.02206 3.70968 8.39879C4.37987 8.71084 4.8245 9.44004 4.81157 10.1773C4.79621 10.5807 5.18425 10.8992 5.56906 10.9009C5.966 10.9227 6.37425 11.0124 6.69196 11.2655C7.27484 11.6664 7.57396 12.4086 7.45431 13.1038C7.28939 13.8686 6.64992 14.5202 5.85686 14.6051C4.71779 14.6908 3.55447 14.2946 2.68783 13.5549C2.35719 13.2776 2.55687 12.6705 2.98533 12.6357C3.22786 12.588 3.4041 12.7821 3.58599 12.9041C4.15836 13.3253 4.86816 13.5444 5.57553 13.5638C6.08484 13.5889 6.53594 13.0521 6.37263 12.5549C6.27401 12.1313 5.80431 11.9397 5.40657 11.9462C4.70243 11.9122 4.07267 11.4086 3.84226 10.7497C3.71696 10.4805 3.77112 10.1757 3.69998 9.89518C3.63773 9.62274 3.40733 9.41255 3.14702 9.32605C2.81071 9.21611 2.43237 9.40366 2.24967 9.69308C2.09364 9.93722 2.14942 10.2396 2.16155 10.5128C2.2044 10.8111 2.29898 11.0965 2.3677 11.3883C2.39842 11.7562 1.9845 12.0577 1.64335 11.9065C1.34019 11.816 1.30704 11.4651 1.22054 11.2105C1.04511 10.5298 0.951337 9.74158 1.35474 9.12071Z" fill="black"/>
<path d="M20.7009 8.97555C21.0857 8.88501 21.4819 8.97394 21.8594 9.0564C22.6864 9.22536 23.4358 9.74356 23.8813 10.4606C24.2911 11.0847 24.473 11.9029 24.2168 12.6215C24.0203 13.2368 23.4439 13.704 22.8053 13.7833C21.6565 13.9611 20.5142 13.2675 19.9459 12.2917C19.6112 11.7299 19.4689 11.0702 19.4648 10.4218C19.4875 9.73062 20.0251 9.10894 20.7009 8.97555ZM20.9726 9.99821C20.7098 10.0427 20.4899 10.3078 20.5215 10.577C20.5805 11.1421 20.743 11.7299 21.1561 12.143C21.5368 12.5286 22.085 12.8123 22.6371 12.738C23.013 12.6846 23.2814 12.3305 23.2838 11.9603C23.2766 11.5738 23.1092 11.2052 22.8893 10.8931C22.4568 10.2917 21.6904 10.0152 20.9726 9.99821Z" fill="black"/>
<path d="M23.3188 32.9111H18.31H8.53405V28.5839L5.56923 28.1442L2.8448 26.339L1.68291 24.9771L0.601562 22.6133V20.8125L31.3315 21.0529V22.2951L30.5703 24.4555L29.0077 26.339L25.8827 28.1442L23.3188 28.5839V32.9111Z" fill="white"/>
<path d="M14.0533 10.3683L14.151 12.3253L13.3683 13.0466L12.203 13.5803L10.6463 13.4647L10.2812 12.4773L10.7174 11.3654L12.3183 10.2812L14.0533 10.3683Z" fill="white"/>
<path d="M28.4109 17.7554L26.3992 18.5132L24.9277 17.3822L25.4969 16.059L27.0079 15.5964L27.4397 14.5857L28.2541 13.5456L29.4806 13.3008L30.0988 13.8208L30.0007 16.059L28.4109 17.7554Z" fill="white"/>
<path d="M9.20744 20.1556L10.0941 22.114L11.9343 22.3547L12.4675 21.0167L11.7262 19.621L12.1355 18.6011L12.2951 17.2898L11.6009 16.2494L10.7961 16.18L9.28284 17.832L9.20744 20.1556Z" fill="white"/>
<path d="M12.5742 9.51765C12.9638 9.47157 13.3866 9.4263 13.7504 9.6082C14.2977 9.86366 14.7019 10.4473 14.6728 11.0617C14.6623 11.7497 14.4465 12.4393 14.0673 13.0133C13.5871 13.719 12.8078 14.217 11.9622 14.3407C11.2079 14.4474 10.3728 14.0966 10.0203 13.4005C9.77054 12.9761 9.75923 12.4636 9.83198 11.9898C10.0252 11.1313 10.5935 10.3681 11.3591 9.93318C11.7415 9.73674 12.1457 9.57667 12.5742 9.51765ZM11.3615 11.2792C11.0697 11.6285 10.8247 12.0618 10.8635 12.5331C10.8457 12.9114 11.1724 13.2558 11.545 13.2841C12.0366 13.3407 12.5014 13.0893 12.8628 12.7805C13.3979 12.314 13.617 11.5824 13.6049 10.8904C13.499 10.7376 13.3761 10.5565 13.1716 10.546C12.5063 10.5403 11.8102 10.7699 11.3615 11.2792Z" fill="black"/>
<path d="M28.7472 12.5247C29.7577 12.3194 30.8054 13.114 30.9154 14.131C31.0075 15.4649 30.4287 16.8183 29.44 17.7099C28.6089 18.4788 27.4747 18.9064 26.3445 18.8951C25.3809 18.8822 24.5143 18.0228 24.5288 17.0527C24.4851 16.0341 25.4286 15.1464 26.4318 15.1618C26.7059 15.182 26.9573 15.0106 27.098 14.7843C27.2346 14.5733 27.174 14.3129 27.2168 14.0785C27.3599 13.3218 27.9695 12.6419 28.7472 12.5247ZM28.4335 13.8845C28.178 14.2054 28.3227 14.6444 28.1643 15.0009C27.9751 15.5417 27.5256 15.9856 26.9735 16.1481C26.638 16.275 26.2386 16.1723 25.9363 16.3906C25.6687 16.5668 25.5329 16.925 25.6266 17.233C25.6905 17.5095 25.9266 17.7261 26.1917 17.8078C26.7819 17.8862 27.3728 17.7196 27.9064 17.4771C28.9218 16.9896 29.6663 15.9783 29.8216 14.8619C29.8676 14.5312 29.9186 14.1464 29.6898 13.8683C29.3931 13.4754 28.7156 13.473 28.4335 13.8845Z" fill="black"/>
<path d="M16.1424 13.7371C17.4076 13.5552 18.7156 13.5301 19.9671 13.826C20.9986 14.0912 22.0059 14.6271 22.626 15.5188C23.0351 16.0928 23.3212 16.7573 23.4441 17.4526C23.6204 18.5011 23.4659 19.6564 22.7675 20.4939C23.4021 20.4923 24.0375 20.4939 24.6729 20.4939C24.9567 20.6014 25.1345 20.9248 25.0197 21.2182C24.9486 21.4373 24.715 21.5764 24.4886 21.5618C16.6881 21.5651 8.88762 21.561 1.08712 21.5634C1.20596 22.8787 1.68051 24.169 2.49136 25.2159C3.39598 26.4059 4.69108 27.2944 6.13089 27.6978C6.76793 27.8546 7.42032 27.9686 8.07838 27.9613C13.3606 27.9613 18.6429 27.9613 23.9251 27.9613C25.3835 27.9605 26.8468 27.5199 28.0279 26.6565C29.6763 25.4883 30.7499 23.5748 30.9132 21.5634C29.4984 21.5602 28.0837 21.5667 26.6697 21.561C26.4102 21.5683 26.1653 21.3516 26.1297 21.097C26.0772 20.827 26.2817 20.6176 26.4975 20.4979C28.2041 20.489 29.9107 20.4931 31.6173 20.4955C31.804 20.6022 31.994 20.7696 31.9924 21.004C32.0053 23.3121 30.9592 25.6015 29.1936 27.0906C27.7676 28.3283 25.8912 29.0236 24.0035 29.0155C23.9995 30.258 24.0084 31.5014 23.9995 32.744C24.0003 33.0722 23.6818 33.3325 23.36 33.2913C18.4262 33.2888 13.4924 33.2953 8.55778 33.288C8.26109 33.301 7.99916 33.0342 7.99996 32.7407C7.99269 32.0649 7.99997 31.389 7.99673 30.7132C7.97005 30.4246 8.17701 30.1125 8.47774 30.0859C8.78656 30.0398 9.08002 30.3187 9.06547 30.6267C9.07032 31.1586 9.06385 31.6906 9.06709 32.2217C13.6889 32.2217 18.3114 32.2217 22.9332 32.2225C22.934 31.1538 22.9324 30.0859 22.934 29.0171C17.98 29.0147 13.0259 29.0179 8.07111 29.0155C6.86494 29.0179 5.65311 28.7714 4.5682 28.2378C2.82443 27.4164 1.40564 25.933 0.650573 24.1601C0.228575 23.1665 0.00464166 22.0841 0.00787536 21.004C0.00383323 20.7679 0.19543 20.6038 0.381368 20.4955C1.16392 20.4907 1.94648 20.4939 2.72903 20.4931C2.27551 19.6636 2.21649 18.6499 2.5625 17.7703C2.87536 17.1397 3.25694 16.4186 3.97158 16.1842C4.48412 15.9958 5.08074 16.1357 5.49385 16.4801C6.08481 17.0565 6.48821 17.8342 6.58603 18.6563C6.66202 19.2918 6.48013 19.9223 6.21335 20.4931C7.03794 20.4931 7.86253 20.4931 8.68713 20.4931C8.54323 19.8965 8.5602 19.274 8.61598 18.6677C8.77848 17.721 9.24736 16.8261 9.94504 16.164C10.3937 15.7678 11.0429 15.5593 11.6314 15.7226C12.1989 15.8657 12.7082 16.2739 12.9184 16.8277C13.1415 17.3346 13.0866 17.9312 12.8311 18.4154C12.688 18.7671 12.2773 18.9757 12.2725 19.3872C12.2248 19.8544 12.7131 20.0824 12.8432 20.4858C14.6226 20.5028 16.4027 20.4882 18.1829 20.4931C18.8046 20.4842 19.4271 20.5117 20.0487 20.4769C19.347 20.0282 18.6607 19.5068 18.1829 18.8148C17.9743 18.4526 18.343 17.9862 18.7391 18.0549C19.0002 18.0921 19.1393 18.3378 19.3034 18.5149C19.7512 18.9894 20.271 19.3977 20.8378 19.721C21.1223 19.8536 21.4222 20.029 21.7488 19.987C21.9938 19.8714 21.862 19.5254 21.8151 19.3241C21.436 18.4736 20.8313 17.7291 20.1191 17.1349C19.9299 16.9934 19.9598 16.7242 20.0051 16.5213C20.1037 16.3281 20.3252 16.2165 20.5394 16.2327C20.7593 16.2658 20.9323 16.4194 21.0924 16.5633C21.6211 17.054 22.0811 17.6224 22.4417 18.2481C22.4215 17.1478 21.9251 16.0079 20.9792 15.3984C20.153 14.8584 19.1498 14.7088 18.1821 14.6692C17.6639 14.6514 17.1465 14.6951 16.6331 14.7573C16.5782 15.3855 16.5765 16.0168 16.5943 16.6466C16.6081 17.3022 16.7827 17.9449 17.0204 18.5521C17.1093 18.7792 17.309 18.9765 17.2766 19.2376C17.292 19.5028 17.0454 19.6669 16.8288 19.7526C16.2993 19.7574 16.1489 19.1859 15.9686 18.797C15.4326 17.3443 15.3768 15.7444 15.6541 14.2302C15.6857 13.9788 15.8853 13.7629 16.1424 13.7371ZM10.7033 16.9231C9.72757 17.8002 9.39692 19.2643 9.80518 20.4971C10.3864 20.4874 10.9677 20.4971 11.549 20.4915C11.1544 19.9498 11.0881 19.1883 11.3978 18.5925C11.5255 18.3508 11.7333 18.1664 11.882 17.9393C12.0639 17.6482 12.0316 17.2311 11.7753 16.9934C11.5174 16.6862 10.9992 16.6603 10.7033 16.9231ZM4.21734 17.2335C3.56737 17.7929 3.20762 18.7606 3.5027 19.5957C3.62315 19.9571 3.84062 20.3233 4.20118 20.4842C4.44128 20.4907 4.72827 20.5545 4.92229 20.3718C5.44049 19.9425 5.61834 19.2045 5.50274 18.5601C5.3839 18.0977 5.15188 17.6579 4.81639 17.316C4.66925 17.1511 4.40571 17.1333 4.21734 17.2335Z" fill="black"/>
<path d="M3.00103 22.6427C3.2379 22.612 3.4772 22.6314 3.71487 22.6274C11.9859 22.6266 20.2569 22.629 28.5287 22.6266C28.7591 22.6371 29.0299 22.5829 29.2207 22.7486C29.4761 22.933 29.4737 23.3792 29.2183 23.5635C29.0994 23.6751 28.924 23.6759 28.772 23.6824C20.2302 23.6808 11.6884 23.6856 3.14655 23.6799C2.8733 23.6977 2.57742 23.4787 2.59601 23.1892C2.55155 22.9322 2.75366 22.688 3.00103 22.6427Z" fill="black"/>
</svg>
