<svg width="32" height="33" viewBox="0 0 32 33" fill="none" xmlns="http://www.w3.org/2000/svg">
<path d="M16.0013 29.8561C23.3651 29.8561 29.3346 23.8866 29.3346 16.5228C29.3346 9.15899 23.3651 3.18945 16.0013 3.18945C8.63751 3.18945 2.66797 9.15899 2.66797 16.5228C2.66797 23.8866 8.63751 29.8561 16.0013 29.8561Z" fill="white"/>
<path fill-rule="evenodd" clip-rule="evenodd" d="M9.00826 16.3554C12.9453 14.6619 15.5706 13.5455 16.8842 13.006C20.6347 11.4659 21.4141 11.1984 21.922 11.1895C22.0337 11.1876 22.2835 11.2149 22.4454 11.3446C22.582 11.454 22.6196 11.6019 22.6376 11.7056C22.6556 11.8094 22.678 12.0458 22.6601 12.2305C22.4569 14.3389 21.5775 19.4552 21.1301 21.8165C20.9408 22.8157 20.568 23.1507 20.2071 23.1835C19.4228 23.2548 18.8273 22.6718 18.0677 22.1802C16.8791 21.411 16.2076 20.9321 15.0538 20.1815C13.7204 19.314 14.5848 18.8372 15.3447 18.0579C15.5435 17.854 18.9991 14.751 19.0659 14.4695C19.0743 14.4343 19.0821 14.303 19.0031 14.2337C18.9241 14.1644 18.8076 14.1881 18.7235 14.207C18.6043 14.2337 16.7054 15.4728 13.0269 17.9243C12.4879 18.2897 11.9997 18.4677 11.5623 18.4584C11.0801 18.4481 10.1525 18.1892 9.46298 17.9679C8.61722 17.6965 7.94502 17.553 8.00355 17.092C8.03404 16.8519 8.36894 16.6064 9.00826 16.3554Z" fill="black"/>
</svg>
