<svg width="32" height="33" viewBox="0 0 32 33" fill="none" xmlns="http://www.w3.org/2000/svg">
<path d="M2.66797 29.8561L4.55136 23.0083C3.38917 21.0039 2.77849 18.7317 2.77961 16.4017C2.78296 9.11723 8.73903 3.18945 16.0571 3.18945C19.6084 3.19056 22.942 4.56723 25.4495 7.06501C27.9559 9.56279 29.3358 12.8828 29.3346 16.4139C29.3313 23.6995 23.3752 29.6272 16.0571 29.6272C13.8355 29.6261 11.6462 29.0717 9.70696 28.0183L2.66797 29.8561ZM10.033 25.6261C11.9041 26.7317 13.6903 27.3939 16.0527 27.395C22.1349 27.395 27.0895 22.4683 27.0929 16.4117C27.0951 10.3428 22.1639 5.42279 16.0616 5.42056C9.9749 5.42056 5.0236 10.3472 5.02137 16.4028C5.02025 18.875 5.74816 20.7261 6.97063 22.6628L5.85533 26.7161L10.033 25.6261ZM22.7456 19.555C22.6629 19.4172 22.4419 19.335 22.1092 19.1695C21.7776 19.0039 20.1465 18.205 19.8418 18.095C19.5381 17.985 19.3171 17.9295 19.0949 18.2606C18.8738 18.5906 18.2375 19.335 18.0443 19.555C17.8512 19.775 17.6569 19.8028 17.3254 19.6372C16.9938 19.4717 15.9243 19.1239 14.6571 17.9983C13.6713 17.1228 13.0048 16.0417 12.8117 15.7106C12.6186 15.3806 12.7916 15.2017 12.9568 15.0372C13.1064 14.8895 13.2884 14.6517 13.4548 14.4583C13.6233 14.2672 13.678 14.1295 13.7897 13.9083C13.9002 13.6883 13.8455 13.495 13.7618 13.3295C13.678 13.165 13.0149 11.5395 12.7391 10.8783C12.469 10.235 12.1954 10.3217 11.9923 10.3117L11.3559 10.3006C11.1349 10.3006 10.7754 10.3828 10.4717 10.7139C10.168 11.045 9.31063 11.8428 9.31063 13.4683C9.31063 15.0939 10.4996 16.6639 10.6648 16.8839C10.8312 17.1039 13.0037 20.4395 16.3318 21.8695C17.1233 22.2095 17.7418 22.4128 18.223 22.565C19.0179 22.8161 19.7413 22.7806 20.3129 22.6961C20.9504 22.6017 22.2756 21.8972 22.5524 21.1261C22.8293 20.3539 22.8293 19.6928 22.7456 19.555Z" fill="white"/>
</svg>
